G04 EAGLE Gerber RS-274X export*
G75*
%MOMM*%
%FSLAX34Y34*%
%LPD*%
%IN*%
%IPPOS*%
%AMOC8*
5,1,8,0,0,1.08239X$1,22.5*%
G01*
%ADD10C,0.254000*%


D10*
X150000Y720000D02*
X250000Y630000D01*
X640000Y630000D01*
X740000Y720000D01*
X740000Y950000D01*
X680000Y1000000D01*
X210000Y1000000D01*
X150000Y950000D01*
X150000Y720000D01*
X391150Y890524D02*
X391219Y891569D01*
X391355Y892608D01*
X391560Y893635D01*
X391831Y894647D01*
X392167Y895639D01*
X392568Y896607D01*
X393032Y897546D01*
X393556Y898454D01*
X394138Y899325D01*
X394775Y900156D01*
X395466Y900943D01*
X396207Y901684D01*
X396994Y902375D01*
X397825Y903013D01*
X398696Y903595D01*
X399604Y904118D01*
X400543Y904582D01*
X401511Y904983D01*
X402503Y905319D01*
X403515Y905590D01*
X404542Y905795D01*
X405581Y905932D01*
X406626Y906000D01*
X407674Y906000D01*
X408719Y905932D01*
X409758Y905795D01*
X410785Y905590D01*
X411797Y905319D01*
X412789Y904983D01*
X413757Y904582D01*
X414696Y904118D01*
X415604Y903595D01*
X416475Y903013D01*
X417306Y902375D01*
X418093Y901684D01*
X418834Y900943D01*
X419525Y900156D01*
X420163Y899325D01*
X420745Y898454D01*
X421268Y897546D01*
X421732Y896607D01*
X422133Y895639D01*
X422469Y894647D01*
X422740Y893635D01*
X422945Y892608D01*
X423082Y891569D01*
X423150Y890524D01*
X423150Y889476D01*
X423082Y888431D01*
X422945Y887392D01*
X422740Y886365D01*
X422469Y885353D01*
X422133Y884361D01*
X421732Y883393D01*
X421268Y882454D01*
X420745Y881546D01*
X420163Y880675D01*
X419525Y879844D01*
X418834Y879057D01*
X418093Y878316D01*
X417306Y877625D01*
X416475Y876988D01*
X415604Y876406D01*
X414696Y875882D01*
X413757Y875418D01*
X412789Y875017D01*
X411797Y874681D01*
X410785Y874410D01*
X409758Y874205D01*
X408719Y874069D01*
X407674Y874000D01*
X406626Y874000D01*
X405581Y874069D01*
X404542Y874205D01*
X403515Y874410D01*
X402503Y874681D01*
X401511Y875017D01*
X400543Y875418D01*
X399604Y875882D01*
X398696Y876406D01*
X397825Y876988D01*
X396994Y877625D01*
X396207Y878316D01*
X395466Y879057D01*
X394775Y879844D01*
X394138Y880675D01*
X393556Y881546D01*
X393032Y882454D01*
X392568Y883393D01*
X392167Y884361D01*
X391831Y885353D01*
X391560Y886365D01*
X391355Y887392D01*
X391219Y888431D01*
X391150Y889476D01*
X391150Y890524D01*
X276850Y890524D02*
X276919Y891569D01*
X277055Y892608D01*
X277260Y893635D01*
X277531Y894647D01*
X277867Y895639D01*
X278268Y896607D01*
X278732Y897546D01*
X279256Y898454D01*
X279838Y899325D01*
X280475Y900156D01*
X281166Y900943D01*
X281907Y901684D01*
X282694Y902375D01*
X283525Y903013D01*
X284396Y903595D01*
X285304Y904118D01*
X286243Y904582D01*
X287211Y904983D01*
X288203Y905319D01*
X289215Y905590D01*
X290242Y905795D01*
X291281Y905932D01*
X292326Y906000D01*
X293374Y906000D01*
X294419Y905932D01*
X295458Y905795D01*
X296485Y905590D01*
X297497Y905319D01*
X298489Y904983D01*
X299457Y904582D01*
X300396Y904118D01*
X301304Y903595D01*
X302175Y903013D01*
X303006Y902375D01*
X303793Y901684D01*
X304534Y900943D01*
X305225Y900156D01*
X305863Y899325D01*
X306445Y898454D01*
X306968Y897546D01*
X307432Y896607D01*
X307833Y895639D01*
X308169Y894647D01*
X308440Y893635D01*
X308645Y892608D01*
X308782Y891569D01*
X308850Y890524D01*
X308850Y889476D01*
X308782Y888431D01*
X308645Y887392D01*
X308440Y886365D01*
X308169Y885353D01*
X307833Y884361D01*
X307432Y883393D01*
X306968Y882454D01*
X306445Y881546D01*
X305863Y880675D01*
X305225Y879844D01*
X304534Y879057D01*
X303793Y878316D01*
X303006Y877625D01*
X302175Y876988D01*
X301304Y876406D01*
X300396Y875882D01*
X299457Y875418D01*
X298489Y875017D01*
X297497Y874681D01*
X296485Y874410D01*
X295458Y874205D01*
X294419Y874069D01*
X293374Y874000D01*
X292326Y874000D01*
X291281Y874069D01*
X290242Y874205D01*
X289215Y874410D01*
X288203Y874681D01*
X287211Y875017D01*
X286243Y875418D01*
X285304Y875882D01*
X284396Y876406D01*
X283525Y876988D01*
X282694Y877625D01*
X281907Y878316D01*
X281166Y879057D01*
X280475Y879844D01*
X279838Y880675D01*
X279256Y881546D01*
X278732Y882454D01*
X278268Y883393D01*
X277867Y884361D01*
X277531Y885353D01*
X277260Y886365D01*
X277055Y887392D01*
X276919Y888431D01*
X276850Y889476D01*
X276850Y890524D01*
X244000Y949500D02*
X243929Y948503D01*
X243786Y947513D01*
X243574Y946536D01*
X243292Y945576D01*
X242943Y944639D01*
X242527Y943729D01*
X242048Y942852D01*
X241507Y942010D01*
X240908Y941210D01*
X240253Y940454D01*
X239546Y939747D01*
X238790Y939092D01*
X237990Y938493D01*
X237148Y937952D01*
X236271Y937473D01*
X235361Y937057D01*
X234424Y936708D01*
X233465Y936426D01*
X232487Y936214D01*
X231498Y936071D01*
X230500Y936000D01*
X229500Y936000D01*
X228503Y936071D01*
X227513Y936214D01*
X226536Y936426D01*
X225576Y936708D01*
X224639Y937057D01*
X223729Y937473D01*
X222852Y937952D01*
X222010Y938493D01*
X221210Y939092D01*
X220454Y939747D01*
X219747Y940454D01*
X219092Y941210D01*
X218493Y942010D01*
X217952Y942852D01*
X217473Y943729D01*
X217057Y944639D01*
X216708Y945576D01*
X216426Y946536D01*
X216214Y947513D01*
X216071Y948503D01*
X216000Y949500D01*
X216000Y950500D01*
X216071Y951498D01*
X216214Y952487D01*
X216426Y953465D01*
X216708Y954424D01*
X217057Y955361D01*
X217473Y956271D01*
X217952Y957148D01*
X218493Y957990D01*
X219092Y958790D01*
X219747Y959546D01*
X220454Y960253D01*
X221210Y960908D01*
X222010Y961507D01*
X222852Y962048D01*
X223729Y962527D01*
X224639Y962943D01*
X225576Y963292D01*
X226536Y963574D01*
X227513Y963786D01*
X228503Y963929D01*
X229500Y964000D01*
X230500Y964000D01*
X231498Y963929D01*
X232487Y963786D01*
X233465Y963574D01*
X234424Y963292D01*
X235361Y962943D01*
X236271Y962527D01*
X237148Y962048D01*
X237990Y961507D01*
X238790Y960908D01*
X239546Y960253D01*
X240253Y959546D01*
X240908Y958790D01*
X241507Y957990D01*
X242048Y957148D01*
X242527Y956271D01*
X242943Y955361D01*
X243292Y954424D01*
X243574Y953465D01*
X243786Y952487D01*
X243929Y951498D01*
X244000Y950500D01*
X244000Y949500D01*
X664000Y949500D02*
X663929Y948503D01*
X663786Y947513D01*
X663574Y946536D01*
X663292Y945576D01*
X662943Y944639D01*
X662527Y943729D01*
X662048Y942852D01*
X661507Y942010D01*
X660908Y941210D01*
X660253Y940454D01*
X659546Y939747D01*
X658790Y939092D01*
X657990Y938493D01*
X657148Y937952D01*
X656271Y937473D01*
X655361Y937057D01*
X654424Y936708D01*
X653465Y936426D01*
X652487Y936214D01*
X651498Y936071D01*
X650500Y936000D01*
X649500Y936000D01*
X648503Y936071D01*
X647513Y936214D01*
X646536Y936426D01*
X645576Y936708D01*
X644639Y937057D01*
X643729Y937473D01*
X642852Y937952D01*
X642010Y938493D01*
X641210Y939092D01*
X640454Y939747D01*
X639747Y940454D01*
X639092Y941210D01*
X638493Y942010D01*
X637952Y942852D01*
X637473Y943729D01*
X637057Y944639D01*
X636708Y945576D01*
X636426Y946536D01*
X636214Y947513D01*
X636071Y948503D01*
X636000Y949500D01*
X636000Y950500D01*
X636071Y951498D01*
X636214Y952487D01*
X636426Y953465D01*
X636708Y954424D01*
X637057Y955361D01*
X637473Y956271D01*
X637952Y957148D01*
X638493Y957990D01*
X639092Y958790D01*
X639747Y959546D01*
X640454Y960253D01*
X641210Y960908D01*
X642010Y961507D01*
X642852Y962048D01*
X643729Y962527D01*
X644639Y962943D01*
X645576Y963292D01*
X646536Y963574D01*
X647513Y963786D01*
X648503Y963929D01*
X649500Y964000D01*
X650500Y964000D01*
X651498Y963929D01*
X652487Y963786D01*
X653465Y963574D01*
X654424Y963292D01*
X655361Y962943D01*
X656271Y962527D01*
X657148Y962048D01*
X657990Y961507D01*
X658790Y960908D01*
X659546Y960253D01*
X660253Y959546D01*
X660908Y958790D01*
X661507Y957990D01*
X662048Y957148D01*
X662527Y956271D01*
X662943Y955361D01*
X663292Y954424D01*
X663574Y953465D01*
X663786Y952487D01*
X663929Y951498D01*
X664000Y950500D01*
X664000Y949500D01*
X454000Y729500D02*
X453929Y728503D01*
X453786Y727513D01*
X453574Y726536D01*
X453292Y725576D01*
X452943Y724639D01*
X452527Y723729D01*
X452048Y722852D01*
X451507Y722010D01*
X450908Y721210D01*
X450253Y720454D01*
X449546Y719747D01*
X448790Y719092D01*
X447990Y718493D01*
X447148Y717952D01*
X446271Y717473D01*
X445361Y717057D01*
X444424Y716708D01*
X443465Y716426D01*
X442487Y716214D01*
X441498Y716071D01*
X440500Y716000D01*
X439500Y716000D01*
X438503Y716071D01*
X437513Y716214D01*
X436536Y716426D01*
X435576Y716708D01*
X434639Y717057D01*
X433729Y717473D01*
X432852Y717952D01*
X432010Y718493D01*
X431210Y719092D01*
X430454Y719747D01*
X429747Y720454D01*
X429092Y721210D01*
X428493Y722010D01*
X427952Y722852D01*
X427473Y723729D01*
X427057Y724639D01*
X426708Y725576D01*
X426426Y726536D01*
X426214Y727513D01*
X426071Y728503D01*
X426000Y729500D01*
X426000Y730500D01*
X426071Y731498D01*
X426214Y732487D01*
X426426Y733465D01*
X426708Y734424D01*
X427057Y735361D01*
X427473Y736271D01*
X427952Y737148D01*
X428493Y737990D01*
X429092Y738790D01*
X429747Y739546D01*
X430454Y740253D01*
X431210Y740908D01*
X432010Y741507D01*
X432852Y742048D01*
X433729Y742527D01*
X434639Y742943D01*
X435576Y743292D01*
X436536Y743574D01*
X437513Y743786D01*
X438503Y743929D01*
X439500Y744000D01*
X440500Y744000D01*
X441498Y743929D01*
X442487Y743786D01*
X443465Y743574D01*
X444424Y743292D01*
X445361Y742943D01*
X446271Y742527D01*
X447148Y742048D01*
X447990Y741507D01*
X448790Y740908D01*
X449546Y740253D01*
X450253Y739546D01*
X450908Y738790D01*
X451507Y737990D01*
X452048Y737148D01*
X452527Y736271D01*
X452943Y735361D01*
X453292Y734424D01*
X453574Y733465D01*
X453786Y732487D01*
X453929Y731498D01*
X454000Y730500D01*
X454000Y729500D01*
X571150Y890524D02*
X571219Y891569D01*
X571355Y892608D01*
X571560Y893635D01*
X571831Y894647D01*
X572167Y895639D01*
X572568Y896607D01*
X573032Y897546D01*
X573556Y898454D01*
X574138Y899325D01*
X574775Y900156D01*
X575466Y900943D01*
X576207Y901684D01*
X576994Y902375D01*
X577825Y903013D01*
X578696Y903595D01*
X579604Y904118D01*
X580543Y904582D01*
X581511Y904983D01*
X582503Y905319D01*
X583515Y905590D01*
X584542Y905795D01*
X585581Y905932D01*
X586626Y906000D01*
X587674Y906000D01*
X588719Y905932D01*
X589758Y905795D01*
X590785Y905590D01*
X591797Y905319D01*
X592789Y904983D01*
X593757Y904582D01*
X594696Y904118D01*
X595604Y903595D01*
X596475Y903013D01*
X597306Y902375D01*
X598093Y901684D01*
X598834Y900943D01*
X599525Y900156D01*
X600163Y899325D01*
X600745Y898454D01*
X601268Y897546D01*
X601732Y896607D01*
X602133Y895639D01*
X602469Y894647D01*
X602740Y893635D01*
X602945Y892608D01*
X603082Y891569D01*
X603150Y890524D01*
X603150Y889476D01*
X603082Y888431D01*
X602945Y887392D01*
X602740Y886365D01*
X602469Y885353D01*
X602133Y884361D01*
X601732Y883393D01*
X601268Y882454D01*
X600745Y881546D01*
X600163Y880675D01*
X599525Y879844D01*
X598834Y879057D01*
X598093Y878316D01*
X597306Y877625D01*
X596475Y876988D01*
X595604Y876406D01*
X594696Y875882D01*
X593757Y875418D01*
X592789Y875017D01*
X591797Y874681D01*
X590785Y874410D01*
X589758Y874205D01*
X588719Y874069D01*
X587674Y874000D01*
X586626Y874000D01*
X585581Y874069D01*
X584542Y874205D01*
X583515Y874410D01*
X582503Y874681D01*
X581511Y875017D01*
X580543Y875418D01*
X579604Y875882D01*
X578696Y876406D01*
X577825Y876988D01*
X576994Y877625D01*
X576207Y878316D01*
X575466Y879057D01*
X574775Y879844D01*
X574138Y880675D01*
X573556Y881546D01*
X573032Y882454D01*
X572568Y883393D01*
X572167Y884361D01*
X571831Y885353D01*
X571560Y886365D01*
X571355Y887392D01*
X571219Y888431D01*
X571150Y889476D01*
X571150Y890524D01*
X456850Y890524D02*
X456919Y891569D01*
X457055Y892608D01*
X457260Y893635D01*
X457531Y894647D01*
X457867Y895639D01*
X458268Y896607D01*
X458732Y897546D01*
X459256Y898454D01*
X459838Y899325D01*
X460475Y900156D01*
X461166Y900943D01*
X461907Y901684D01*
X462694Y902375D01*
X463525Y903013D01*
X464396Y903595D01*
X465304Y904118D01*
X466243Y904582D01*
X467211Y904983D01*
X468203Y905319D01*
X469215Y905590D01*
X470242Y905795D01*
X471281Y905932D01*
X472326Y906000D01*
X473374Y906000D01*
X474419Y905932D01*
X475458Y905795D01*
X476485Y905590D01*
X477497Y905319D01*
X478489Y904983D01*
X479457Y904582D01*
X480396Y904118D01*
X481304Y903595D01*
X482175Y903013D01*
X483006Y902375D01*
X483793Y901684D01*
X484534Y900943D01*
X485225Y900156D01*
X485863Y899325D01*
X486445Y898454D01*
X486968Y897546D01*
X487432Y896607D01*
X487833Y895639D01*
X488169Y894647D01*
X488440Y893635D01*
X488645Y892608D01*
X488782Y891569D01*
X488850Y890524D01*
X488850Y889476D01*
X488782Y888431D01*
X488645Y887392D01*
X488440Y886365D01*
X488169Y885353D01*
X487833Y884361D01*
X487432Y883393D01*
X486968Y882454D01*
X486445Y881546D01*
X485863Y880675D01*
X485225Y879844D01*
X484534Y879057D01*
X483793Y878316D01*
X483006Y877625D01*
X482175Y876988D01*
X481304Y876406D01*
X480396Y875882D01*
X479457Y875418D01*
X478489Y875017D01*
X477497Y874681D01*
X476485Y874410D01*
X475458Y874205D01*
X474419Y874069D01*
X473374Y874000D01*
X472326Y874000D01*
X471281Y874069D01*
X470242Y874205D01*
X469215Y874410D01*
X468203Y874681D01*
X467211Y875017D01*
X466243Y875418D01*
X465304Y875882D01*
X464396Y876406D01*
X463525Y876988D01*
X462694Y877625D01*
X461907Y878316D01*
X461166Y879057D01*
X460475Y879844D01*
X459838Y880675D01*
X459256Y881546D01*
X458732Y882454D01*
X458268Y883393D01*
X457867Y884361D01*
X457531Y885353D01*
X457260Y886365D01*
X457055Y887392D01*
X456919Y888431D01*
X456850Y889476D01*
X456850Y890524D01*
M02*
