G04 EAGLE Gerber RS-274X export*
G75*
%MOMM*%
%FSLAX34Y34*%
%LPD*%
%INSilkscreen Bottom*%
%IPPOS*%
%AMOC8*
5,1,8,0,0,1.08239X$1,22.5*%
G01*
%ADD10C,0.254000*%
%ADD11C,0.076200*%


D10*
X555208Y755161D02*
X555208Y748676D01*
X548468Y748676D01*
X566189Y703004D01*
X571431Y703004D01*
X571431Y696284D01*
X549466Y696284D01*
X549466Y702819D01*
X543300Y702819D01*
X543300Y690000D01*
X577967Y690000D01*
X577967Y709126D01*
X570181Y709126D01*
X557701Y742392D01*
X561623Y742392D01*
X561623Y761472D01*
X516344Y761472D01*
X516344Y742369D01*
X520262Y742369D01*
X507782Y709126D01*
X500000Y709126D01*
X500000Y690010D01*
X534667Y690010D01*
X534667Y702819D01*
X528488Y702819D01*
X528488Y696284D01*
X506536Y696284D01*
X506536Y703004D01*
X511778Y703004D01*
X529496Y748676D01*
X522775Y748676D01*
X522775Y755161D01*
X555208Y755161D01*
X538968Y755107D02*
X556959Y708454D01*
X557378Y707567D01*
X558579Y705615D01*
X559449Y704572D01*
X560483Y703663D01*
X561673Y703020D01*
X563007Y702776D01*
X549902Y702776D01*
X550319Y702865D01*
X550740Y703160D01*
X551216Y703784D01*
X551384Y704290D01*
X551386Y704796D01*
X551273Y705343D01*
X547224Y715759D01*
X530739Y715759D01*
X526680Y705343D01*
X526573Y704796D01*
X526578Y704290D01*
X526747Y703784D01*
X527227Y703164D01*
X527645Y702869D01*
X528054Y702776D01*
X514950Y702776D01*
X516283Y703020D01*
X517472Y703663D01*
X518507Y704572D01*
X519376Y705615D01*
X520579Y707567D01*
X520998Y708454D01*
X538968Y755107D01*
X539076Y737056D02*
X545289Y720692D01*
X532641Y720692D02*
X539076Y737056D01*
X545289Y720692D02*
X532641Y720692D01*
D11*
X379619Y730861D02*
X379619Y740259D01*
X377008Y740259D01*
X376908Y740257D01*
X376808Y740251D01*
X376709Y740242D01*
X376609Y740228D01*
X376511Y740211D01*
X376413Y740190D01*
X376316Y740166D01*
X376220Y740137D01*
X376125Y740105D01*
X376032Y740070D01*
X375940Y740031D01*
X375849Y739988D01*
X375761Y739942D01*
X375674Y739892D01*
X375589Y739840D01*
X375506Y739784D01*
X375425Y739725D01*
X375347Y739662D01*
X375271Y739597D01*
X375197Y739529D01*
X375127Y739459D01*
X375059Y739385D01*
X374994Y739309D01*
X374931Y739231D01*
X374872Y739150D01*
X374816Y739067D01*
X374764Y738982D01*
X374714Y738895D01*
X374668Y738807D01*
X374625Y738716D01*
X374586Y738624D01*
X374551Y738531D01*
X374519Y738436D01*
X374490Y738340D01*
X374466Y738243D01*
X374445Y738145D01*
X374428Y738047D01*
X374414Y737947D01*
X374405Y737848D01*
X374399Y737748D01*
X374397Y737648D01*
X374398Y737648D02*
X374398Y733472D01*
X374397Y733472D02*
X374399Y733372D01*
X374405Y733272D01*
X374414Y733173D01*
X374428Y733073D01*
X374445Y732975D01*
X374466Y732877D01*
X374490Y732780D01*
X374519Y732684D01*
X374551Y732589D01*
X374586Y732496D01*
X374625Y732404D01*
X374668Y732313D01*
X374714Y732225D01*
X374764Y732138D01*
X374816Y732053D01*
X374872Y731970D01*
X374931Y731889D01*
X374994Y731811D01*
X375059Y731735D01*
X375127Y731661D01*
X375197Y731591D01*
X375271Y731523D01*
X375347Y731458D01*
X375425Y731395D01*
X375506Y731336D01*
X375589Y731280D01*
X375674Y731228D01*
X375761Y731178D01*
X375849Y731132D01*
X375940Y731089D01*
X376032Y731050D01*
X376125Y731015D01*
X376220Y730983D01*
X376316Y730954D01*
X376413Y730930D01*
X376511Y730909D01*
X376609Y730892D01*
X376709Y730878D01*
X376808Y730869D01*
X376908Y730863D01*
X377008Y730861D01*
X379619Y730861D01*
X368691Y730861D02*
X366081Y730861D01*
X368691Y730861D02*
X368768Y730863D01*
X368844Y730869D01*
X368921Y730878D01*
X368997Y730891D01*
X369072Y730908D01*
X369146Y730928D01*
X369219Y730953D01*
X369290Y730980D01*
X369361Y731011D01*
X369429Y731046D01*
X369496Y731084D01*
X369561Y731125D01*
X369624Y731169D01*
X369684Y731216D01*
X369743Y731267D01*
X369798Y731320D01*
X369851Y731375D01*
X369902Y731434D01*
X369949Y731494D01*
X369993Y731557D01*
X370034Y731622D01*
X370072Y731689D01*
X370107Y731757D01*
X370138Y731828D01*
X370165Y731899D01*
X370190Y731972D01*
X370210Y732046D01*
X370227Y732121D01*
X370240Y732197D01*
X370249Y732274D01*
X370255Y732350D01*
X370257Y732427D01*
X370258Y732427D02*
X370258Y735038D01*
X370257Y735038D02*
X370255Y735128D01*
X370249Y735217D01*
X370240Y735307D01*
X370226Y735396D01*
X370209Y735484D01*
X370188Y735571D01*
X370163Y735658D01*
X370134Y735743D01*
X370102Y735827D01*
X370067Y735909D01*
X370027Y735990D01*
X369985Y736069D01*
X369939Y736146D01*
X369889Y736221D01*
X369837Y736294D01*
X369781Y736365D01*
X369723Y736433D01*
X369661Y736498D01*
X369597Y736561D01*
X369530Y736621D01*
X369461Y736678D01*
X369389Y736732D01*
X369315Y736783D01*
X369239Y736831D01*
X369161Y736875D01*
X369081Y736916D01*
X368999Y736954D01*
X368916Y736988D01*
X368831Y737018D01*
X368745Y737045D01*
X368659Y737068D01*
X368571Y737087D01*
X368482Y737102D01*
X368393Y737114D01*
X368304Y737122D01*
X368214Y737126D01*
X368124Y737126D01*
X368034Y737122D01*
X367945Y737114D01*
X367856Y737102D01*
X367767Y737087D01*
X367679Y737068D01*
X367593Y737045D01*
X367507Y737018D01*
X367422Y736988D01*
X367339Y736954D01*
X367257Y736916D01*
X367177Y736875D01*
X367099Y736831D01*
X367023Y736783D01*
X366949Y736732D01*
X366877Y736678D01*
X366808Y736621D01*
X366741Y736561D01*
X366677Y736498D01*
X366615Y736433D01*
X366557Y736365D01*
X366501Y736294D01*
X366449Y736221D01*
X366399Y736146D01*
X366353Y736069D01*
X366311Y735990D01*
X366271Y735909D01*
X366236Y735827D01*
X366204Y735743D01*
X366175Y735658D01*
X366150Y735571D01*
X366129Y735484D01*
X366112Y735396D01*
X366098Y735307D01*
X366089Y735217D01*
X366083Y735128D01*
X366081Y735038D01*
X366081Y733994D01*
X370258Y733994D01*
X361550Y734516D02*
X358939Y733472D01*
X361550Y734516D02*
X361616Y734544D01*
X361681Y734577D01*
X361744Y734612D01*
X361805Y734651D01*
X361864Y734693D01*
X361920Y734738D01*
X361974Y734786D01*
X362025Y734837D01*
X362074Y734890D01*
X362119Y734947D01*
X362162Y735005D01*
X362201Y735065D01*
X362238Y735128D01*
X362270Y735193D01*
X362299Y735259D01*
X362325Y735326D01*
X362347Y735395D01*
X362365Y735465D01*
X362380Y735536D01*
X362391Y735607D01*
X362398Y735679D01*
X362401Y735751D01*
X362400Y735823D01*
X362395Y735896D01*
X362387Y735967D01*
X362375Y736039D01*
X362359Y736109D01*
X362339Y736178D01*
X362315Y736247D01*
X362288Y736314D01*
X362258Y736379D01*
X362224Y736443D01*
X362186Y736505D01*
X362146Y736565D01*
X362102Y736622D01*
X362055Y736677D01*
X362005Y736730D01*
X361953Y736779D01*
X361898Y736826D01*
X361841Y736870D01*
X361781Y736911D01*
X361719Y736948D01*
X361655Y736983D01*
X361590Y737013D01*
X361523Y737041D01*
X361455Y737064D01*
X361385Y737084D01*
X361315Y737100D01*
X361244Y737113D01*
X361172Y737121D01*
X361100Y737126D01*
X361028Y737127D01*
X361027Y737126D02*
X360876Y737122D01*
X360725Y737114D01*
X360574Y737103D01*
X360423Y737087D01*
X360273Y737067D01*
X360123Y737044D01*
X359974Y737017D01*
X359826Y736986D01*
X359678Y736951D01*
X359532Y736913D01*
X359386Y736870D01*
X359242Y736824D01*
X359099Y736775D01*
X358957Y736722D01*
X358817Y736665D01*
X358678Y736604D01*
X358939Y733472D02*
X358873Y733444D01*
X358808Y733411D01*
X358745Y733376D01*
X358684Y733337D01*
X358625Y733295D01*
X358569Y733250D01*
X358515Y733202D01*
X358464Y733151D01*
X358415Y733098D01*
X358370Y733041D01*
X358327Y732983D01*
X358288Y732923D01*
X358251Y732860D01*
X358219Y732795D01*
X358190Y732729D01*
X358164Y732662D01*
X358142Y732593D01*
X358124Y732523D01*
X358109Y732452D01*
X358098Y732381D01*
X358091Y732309D01*
X358088Y732237D01*
X358089Y732165D01*
X358094Y732092D01*
X358102Y732021D01*
X358114Y731949D01*
X358130Y731879D01*
X358150Y731810D01*
X358174Y731741D01*
X358201Y731674D01*
X358231Y731609D01*
X358265Y731545D01*
X358303Y731483D01*
X358343Y731423D01*
X358387Y731366D01*
X358434Y731311D01*
X358484Y731258D01*
X358536Y731209D01*
X358591Y731162D01*
X358648Y731118D01*
X358708Y731077D01*
X358770Y731040D01*
X358834Y731005D01*
X358899Y730975D01*
X358966Y730947D01*
X359034Y730924D01*
X359104Y730904D01*
X359174Y730888D01*
X359245Y730875D01*
X359317Y730867D01*
X359389Y730862D01*
X359461Y730861D01*
X359671Y730866D01*
X359880Y730877D01*
X360089Y730892D01*
X360297Y730912D01*
X360505Y730938D01*
X360712Y730968D01*
X360919Y731003D01*
X361124Y731043D01*
X361329Y731087D01*
X361532Y731137D01*
X361735Y731191D01*
X361936Y731251D01*
X362135Y731314D01*
X362333Y731383D01*
X354453Y730861D02*
X354453Y737126D01*
X354714Y739737D02*
X354714Y740259D01*
X354192Y740259D01*
X354192Y739737D01*
X354714Y739737D01*
X349230Y730861D02*
X346619Y730861D01*
X349230Y730861D02*
X349307Y730863D01*
X349383Y730869D01*
X349460Y730878D01*
X349536Y730891D01*
X349611Y730908D01*
X349685Y730928D01*
X349758Y730953D01*
X349829Y730980D01*
X349900Y731011D01*
X349968Y731046D01*
X350035Y731084D01*
X350100Y731125D01*
X350163Y731169D01*
X350223Y731216D01*
X350282Y731267D01*
X350337Y731320D01*
X350390Y731375D01*
X350441Y731434D01*
X350488Y731494D01*
X350532Y731557D01*
X350573Y731622D01*
X350611Y731689D01*
X350646Y731757D01*
X350677Y731828D01*
X350704Y731899D01*
X350729Y731972D01*
X350749Y732046D01*
X350766Y732121D01*
X350779Y732197D01*
X350788Y732274D01*
X350794Y732350D01*
X350796Y732427D01*
X350796Y735560D01*
X350794Y735637D01*
X350788Y735713D01*
X350779Y735790D01*
X350766Y735866D01*
X350749Y735941D01*
X350729Y736015D01*
X350704Y736088D01*
X350677Y736159D01*
X350646Y736230D01*
X350611Y736298D01*
X350573Y736365D01*
X350532Y736430D01*
X350488Y736493D01*
X350441Y736553D01*
X350390Y736612D01*
X350337Y736667D01*
X350282Y736720D01*
X350223Y736771D01*
X350163Y736818D01*
X350100Y736862D01*
X350035Y736903D01*
X349968Y736941D01*
X349900Y736976D01*
X349829Y737007D01*
X349758Y737034D01*
X349685Y737059D01*
X349611Y737079D01*
X349536Y737096D01*
X349460Y737109D01*
X349383Y737118D01*
X349307Y737124D01*
X349230Y737126D01*
X346619Y737126D01*
X346619Y729295D01*
X346620Y729295D02*
X346622Y729218D01*
X346628Y729142D01*
X346637Y729065D01*
X346650Y728989D01*
X346667Y728914D01*
X346687Y728840D01*
X346712Y728767D01*
X346739Y728696D01*
X346770Y728625D01*
X346805Y728557D01*
X346843Y728490D01*
X346884Y728425D01*
X346928Y728362D01*
X346975Y728302D01*
X347026Y728243D01*
X347079Y728188D01*
X347134Y728135D01*
X347193Y728084D01*
X347253Y728037D01*
X347316Y727993D01*
X347381Y727952D01*
X347448Y727914D01*
X347516Y727879D01*
X347587Y727848D01*
X347658Y727821D01*
X347731Y727796D01*
X347805Y727776D01*
X347880Y727759D01*
X347956Y727746D01*
X348033Y727737D01*
X348109Y727731D01*
X348186Y727729D01*
X348186Y727728D02*
X350274Y727728D01*
X342216Y730861D02*
X342216Y737126D01*
X339606Y737126D01*
X339529Y737124D01*
X339453Y737118D01*
X339376Y737109D01*
X339300Y737096D01*
X339226Y737079D01*
X339151Y737059D01*
X339078Y737034D01*
X339007Y737007D01*
X338936Y736976D01*
X338868Y736941D01*
X338801Y736903D01*
X338736Y736862D01*
X338673Y736818D01*
X338613Y736771D01*
X338554Y736720D01*
X338499Y736667D01*
X338446Y736612D01*
X338395Y736553D01*
X338348Y736493D01*
X338304Y736430D01*
X338263Y736365D01*
X338225Y736298D01*
X338190Y736230D01*
X338159Y736159D01*
X338132Y736088D01*
X338107Y736015D01*
X338087Y735941D01*
X338070Y735866D01*
X338057Y735790D01*
X338048Y735714D01*
X338042Y735637D01*
X338040Y735560D01*
X338039Y735560D02*
X338039Y730861D01*
X332420Y730861D02*
X329810Y730861D01*
X332420Y730861D02*
X332497Y730863D01*
X332573Y730869D01*
X332650Y730878D01*
X332726Y730891D01*
X332801Y730908D01*
X332875Y730928D01*
X332948Y730953D01*
X333019Y730980D01*
X333090Y731011D01*
X333158Y731046D01*
X333225Y731084D01*
X333290Y731125D01*
X333353Y731169D01*
X333413Y731216D01*
X333472Y731267D01*
X333527Y731320D01*
X333580Y731375D01*
X333631Y731434D01*
X333678Y731494D01*
X333722Y731557D01*
X333763Y731622D01*
X333801Y731689D01*
X333836Y731757D01*
X333867Y731828D01*
X333894Y731899D01*
X333919Y731972D01*
X333939Y732046D01*
X333956Y732121D01*
X333969Y732197D01*
X333978Y732274D01*
X333984Y732350D01*
X333986Y732427D01*
X333987Y732427D02*
X333987Y735038D01*
X333986Y735038D02*
X333984Y735128D01*
X333978Y735217D01*
X333969Y735307D01*
X333955Y735396D01*
X333938Y735484D01*
X333917Y735571D01*
X333892Y735658D01*
X333863Y735743D01*
X333831Y735827D01*
X333796Y735909D01*
X333756Y735990D01*
X333714Y736069D01*
X333668Y736146D01*
X333618Y736221D01*
X333566Y736294D01*
X333510Y736365D01*
X333452Y736433D01*
X333390Y736498D01*
X333326Y736561D01*
X333259Y736621D01*
X333190Y736678D01*
X333118Y736732D01*
X333044Y736783D01*
X332968Y736831D01*
X332890Y736875D01*
X332810Y736916D01*
X332728Y736954D01*
X332645Y736988D01*
X332560Y737018D01*
X332474Y737045D01*
X332388Y737068D01*
X332300Y737087D01*
X332211Y737102D01*
X332122Y737114D01*
X332033Y737122D01*
X331943Y737126D01*
X331853Y737126D01*
X331763Y737122D01*
X331674Y737114D01*
X331585Y737102D01*
X331496Y737087D01*
X331408Y737068D01*
X331322Y737045D01*
X331236Y737018D01*
X331151Y736988D01*
X331068Y736954D01*
X330986Y736916D01*
X330906Y736875D01*
X330828Y736831D01*
X330752Y736783D01*
X330678Y736732D01*
X330606Y736678D01*
X330537Y736621D01*
X330470Y736561D01*
X330406Y736498D01*
X330344Y736433D01*
X330286Y736365D01*
X330230Y736294D01*
X330178Y736221D01*
X330128Y736146D01*
X330082Y736069D01*
X330040Y735990D01*
X330000Y735909D01*
X329965Y735827D01*
X329933Y735743D01*
X329904Y735658D01*
X329879Y735571D01*
X329858Y735484D01*
X329841Y735396D01*
X329827Y735307D01*
X329818Y735217D01*
X329812Y735128D01*
X329810Y735038D01*
X329810Y733994D01*
X333987Y733994D01*
X321931Y730861D02*
X321931Y740259D01*
X321931Y730861D02*
X324541Y730861D01*
X324618Y730863D01*
X324694Y730869D01*
X324771Y730878D01*
X324847Y730891D01*
X324922Y730908D01*
X324996Y730928D01*
X325069Y730953D01*
X325140Y730980D01*
X325211Y731011D01*
X325279Y731046D01*
X325346Y731084D01*
X325411Y731125D01*
X325474Y731169D01*
X325534Y731216D01*
X325593Y731267D01*
X325648Y731320D01*
X325701Y731375D01*
X325752Y731434D01*
X325799Y731494D01*
X325843Y731557D01*
X325884Y731622D01*
X325922Y731689D01*
X325957Y731757D01*
X325988Y731828D01*
X326015Y731899D01*
X326040Y731972D01*
X326060Y732046D01*
X326077Y732121D01*
X326090Y732197D01*
X326099Y732274D01*
X326105Y732350D01*
X326107Y732427D01*
X326108Y732427D02*
X326108Y735560D01*
X326107Y735560D02*
X326105Y735637D01*
X326099Y735713D01*
X326090Y735790D01*
X326077Y735866D01*
X326060Y735941D01*
X326040Y736015D01*
X326015Y736088D01*
X325988Y736159D01*
X325957Y736230D01*
X325922Y736298D01*
X325884Y736365D01*
X325843Y736430D01*
X325799Y736493D01*
X325752Y736553D01*
X325701Y736612D01*
X325648Y736667D01*
X325593Y736720D01*
X325534Y736771D01*
X325474Y736818D01*
X325411Y736862D01*
X325346Y736903D01*
X325279Y736941D01*
X325211Y736976D01*
X325140Y737007D01*
X325069Y737034D01*
X324996Y737059D01*
X324922Y737079D01*
X324847Y737096D01*
X324771Y737109D01*
X324694Y737118D01*
X324618Y737124D01*
X324541Y737126D01*
X321931Y737126D01*
X312605Y740259D02*
X312605Y730861D01*
X309995Y730861D01*
X309918Y730863D01*
X309842Y730869D01*
X309765Y730878D01*
X309689Y730891D01*
X309615Y730908D01*
X309540Y730928D01*
X309467Y730953D01*
X309396Y730980D01*
X309325Y731011D01*
X309257Y731046D01*
X309190Y731084D01*
X309125Y731125D01*
X309062Y731169D01*
X309002Y731216D01*
X308943Y731267D01*
X308888Y731320D01*
X308835Y731375D01*
X308784Y731434D01*
X308737Y731494D01*
X308693Y731557D01*
X308652Y731622D01*
X308614Y731689D01*
X308579Y731757D01*
X308548Y731828D01*
X308521Y731899D01*
X308496Y731972D01*
X308476Y732046D01*
X308459Y732121D01*
X308446Y732197D01*
X308437Y732273D01*
X308431Y732350D01*
X308429Y732427D01*
X308428Y732427D02*
X308428Y735560D01*
X308429Y735560D02*
X308431Y735637D01*
X308437Y735713D01*
X308446Y735790D01*
X308459Y735866D01*
X308476Y735941D01*
X308496Y736015D01*
X308521Y736088D01*
X308548Y736159D01*
X308579Y736230D01*
X308614Y736298D01*
X308652Y736365D01*
X308693Y736430D01*
X308737Y736493D01*
X308784Y736553D01*
X308835Y736612D01*
X308888Y736667D01*
X308943Y736720D01*
X309002Y736771D01*
X309062Y736818D01*
X309125Y736862D01*
X309190Y736903D01*
X309257Y736941D01*
X309325Y736976D01*
X309396Y737007D01*
X309467Y737034D01*
X309540Y737059D01*
X309615Y737079D01*
X309690Y737096D01*
X309765Y737109D01*
X309842Y737118D01*
X309918Y737124D01*
X309995Y737126D01*
X312605Y737126D01*
X305031Y727728D02*
X303987Y727728D01*
X300854Y737126D01*
X305031Y737126D02*
X302943Y730861D01*
X297412Y731644D02*
X297412Y732166D01*
X296890Y732166D01*
X296890Y731644D01*
X297412Y731644D01*
X297412Y735821D02*
X297412Y736343D01*
X296890Y736343D01*
X296890Y735821D01*
X297412Y735821D01*
X376486Y725019D02*
X379619Y715621D01*
X373354Y715621D02*
X376486Y725019D01*
X374137Y717971D02*
X378836Y717971D01*
X369915Y717187D02*
X369915Y725019D01*
X369915Y717187D02*
X369913Y717110D01*
X369907Y717034D01*
X369898Y716957D01*
X369885Y716881D01*
X369868Y716806D01*
X369848Y716732D01*
X369823Y716659D01*
X369796Y716588D01*
X369765Y716517D01*
X369730Y716449D01*
X369692Y716382D01*
X369651Y716317D01*
X369607Y716254D01*
X369560Y716194D01*
X369509Y716135D01*
X369456Y716080D01*
X369401Y716027D01*
X369342Y715976D01*
X369282Y715929D01*
X369219Y715885D01*
X369154Y715844D01*
X369087Y715806D01*
X369019Y715771D01*
X368948Y715740D01*
X368877Y715713D01*
X368804Y715688D01*
X368730Y715668D01*
X368655Y715651D01*
X368579Y715638D01*
X368502Y715629D01*
X368426Y715623D01*
X368349Y715621D01*
X363597Y715621D02*
X360987Y715621D01*
X363597Y715621D02*
X363674Y715623D01*
X363750Y715629D01*
X363827Y715638D01*
X363903Y715651D01*
X363978Y715668D01*
X364052Y715688D01*
X364125Y715713D01*
X364196Y715740D01*
X364267Y715771D01*
X364335Y715806D01*
X364402Y715844D01*
X364467Y715885D01*
X364530Y715929D01*
X364590Y715976D01*
X364649Y716027D01*
X364704Y716080D01*
X364757Y716135D01*
X364808Y716194D01*
X364855Y716254D01*
X364899Y716317D01*
X364940Y716382D01*
X364978Y716449D01*
X365013Y716517D01*
X365044Y716588D01*
X365071Y716659D01*
X365096Y716732D01*
X365116Y716806D01*
X365133Y716881D01*
X365146Y716957D01*
X365155Y717034D01*
X365161Y717110D01*
X365163Y717187D01*
X365164Y717187D02*
X365164Y719798D01*
X365163Y719798D02*
X365161Y719888D01*
X365155Y719977D01*
X365146Y720067D01*
X365132Y720156D01*
X365115Y720244D01*
X365094Y720331D01*
X365069Y720418D01*
X365040Y720503D01*
X365008Y720587D01*
X364973Y720669D01*
X364933Y720750D01*
X364891Y720829D01*
X364845Y720906D01*
X364795Y720981D01*
X364743Y721054D01*
X364687Y721125D01*
X364629Y721193D01*
X364567Y721258D01*
X364503Y721321D01*
X364436Y721381D01*
X364367Y721438D01*
X364295Y721492D01*
X364221Y721543D01*
X364145Y721591D01*
X364067Y721635D01*
X363987Y721676D01*
X363905Y721714D01*
X363822Y721748D01*
X363737Y721778D01*
X363651Y721805D01*
X363565Y721828D01*
X363477Y721847D01*
X363388Y721862D01*
X363299Y721874D01*
X363210Y721882D01*
X363120Y721886D01*
X363030Y721886D01*
X362940Y721882D01*
X362851Y721874D01*
X362762Y721862D01*
X362673Y721847D01*
X362585Y721828D01*
X362499Y721805D01*
X362413Y721778D01*
X362328Y721748D01*
X362245Y721714D01*
X362163Y721676D01*
X362083Y721635D01*
X362005Y721591D01*
X361929Y721543D01*
X361855Y721492D01*
X361783Y721438D01*
X361714Y721381D01*
X361647Y721321D01*
X361583Y721258D01*
X361521Y721193D01*
X361463Y721125D01*
X361407Y721054D01*
X361355Y720981D01*
X361305Y720906D01*
X361259Y720829D01*
X361217Y720750D01*
X361177Y720669D01*
X361142Y720587D01*
X361110Y720503D01*
X361081Y720418D01*
X361056Y720331D01*
X361035Y720244D01*
X361018Y720156D01*
X361004Y720067D01*
X360995Y719977D01*
X360989Y719888D01*
X360987Y719798D01*
X360987Y718754D01*
X365164Y718754D01*
X357544Y715621D02*
X353367Y721886D01*
X357544Y721886D02*
X353367Y715621D01*
X344598Y715621D02*
X344598Y725019D01*
X341987Y725019D01*
X341886Y725017D01*
X341785Y725011D01*
X341684Y725001D01*
X341584Y724988D01*
X341484Y724970D01*
X341385Y724949D01*
X341287Y724923D01*
X341190Y724894D01*
X341094Y724862D01*
X341000Y724825D01*
X340907Y724785D01*
X340815Y724741D01*
X340726Y724694D01*
X340638Y724643D01*
X340552Y724589D01*
X340469Y724532D01*
X340387Y724472D01*
X340309Y724408D01*
X340232Y724342D01*
X340159Y724272D01*
X340088Y724200D01*
X340020Y724125D01*
X339955Y724047D01*
X339893Y723967D01*
X339834Y723885D01*
X339778Y723800D01*
X339726Y723714D01*
X339677Y723625D01*
X339631Y723534D01*
X339590Y723442D01*
X339551Y723348D01*
X339517Y723253D01*
X339486Y723157D01*
X339459Y723059D01*
X339435Y722961D01*
X339416Y722861D01*
X339400Y722761D01*
X339388Y722661D01*
X339380Y722560D01*
X339376Y722459D01*
X339376Y722357D01*
X339380Y722256D01*
X339388Y722155D01*
X339400Y722055D01*
X339416Y721955D01*
X339435Y721855D01*
X339459Y721757D01*
X339486Y721659D01*
X339517Y721563D01*
X339551Y721468D01*
X339590Y721374D01*
X339631Y721282D01*
X339677Y721191D01*
X339726Y721103D01*
X339778Y721016D01*
X339834Y720931D01*
X339893Y720849D01*
X339955Y720769D01*
X340020Y720691D01*
X340088Y720616D01*
X340159Y720544D01*
X340232Y720474D01*
X340309Y720408D01*
X340387Y720344D01*
X340469Y720284D01*
X340552Y720227D01*
X340638Y720173D01*
X340726Y720122D01*
X340815Y720075D01*
X340907Y720031D01*
X341000Y719991D01*
X341094Y719954D01*
X341190Y719922D01*
X341287Y719893D01*
X341385Y719867D01*
X341484Y719846D01*
X341584Y719828D01*
X341684Y719815D01*
X341785Y719805D01*
X341886Y719799D01*
X341987Y719797D01*
X341987Y719798D02*
X344598Y719798D01*
X341465Y719798D02*
X339377Y715621D01*
X335598Y717709D02*
X335598Y719798D01*
X335596Y719888D01*
X335590Y719977D01*
X335581Y720067D01*
X335567Y720156D01*
X335550Y720244D01*
X335529Y720331D01*
X335504Y720418D01*
X335475Y720503D01*
X335443Y720587D01*
X335408Y720669D01*
X335368Y720750D01*
X335326Y720829D01*
X335280Y720906D01*
X335230Y720981D01*
X335178Y721054D01*
X335122Y721125D01*
X335064Y721193D01*
X335002Y721258D01*
X334938Y721321D01*
X334871Y721381D01*
X334802Y721438D01*
X334730Y721492D01*
X334656Y721543D01*
X334580Y721591D01*
X334502Y721635D01*
X334422Y721676D01*
X334340Y721714D01*
X334257Y721748D01*
X334172Y721778D01*
X334086Y721805D01*
X334000Y721828D01*
X333912Y721847D01*
X333823Y721862D01*
X333734Y721874D01*
X333645Y721882D01*
X333555Y721886D01*
X333465Y721886D01*
X333375Y721882D01*
X333286Y721874D01*
X333197Y721862D01*
X333108Y721847D01*
X333020Y721828D01*
X332934Y721805D01*
X332848Y721778D01*
X332763Y721748D01*
X332680Y721714D01*
X332598Y721676D01*
X332518Y721635D01*
X332440Y721591D01*
X332364Y721543D01*
X332290Y721492D01*
X332218Y721438D01*
X332149Y721381D01*
X332082Y721321D01*
X332018Y721258D01*
X331956Y721193D01*
X331898Y721125D01*
X331842Y721054D01*
X331790Y720981D01*
X331740Y720906D01*
X331694Y720829D01*
X331652Y720750D01*
X331612Y720669D01*
X331577Y720587D01*
X331545Y720503D01*
X331516Y720418D01*
X331491Y720331D01*
X331470Y720244D01*
X331453Y720156D01*
X331439Y720067D01*
X331430Y719977D01*
X331424Y719888D01*
X331422Y719798D01*
X331421Y719798D02*
X331421Y717709D01*
X331422Y717709D02*
X331424Y717619D01*
X331430Y717530D01*
X331439Y717440D01*
X331453Y717351D01*
X331470Y717263D01*
X331491Y717176D01*
X331516Y717089D01*
X331545Y717004D01*
X331577Y716920D01*
X331612Y716838D01*
X331652Y716757D01*
X331694Y716678D01*
X331740Y716601D01*
X331790Y716526D01*
X331842Y716453D01*
X331898Y716382D01*
X331956Y716314D01*
X332018Y716249D01*
X332082Y716186D01*
X332149Y716126D01*
X332218Y716069D01*
X332290Y716015D01*
X332364Y715964D01*
X332440Y715916D01*
X332518Y715872D01*
X332598Y715831D01*
X332680Y715793D01*
X332763Y715759D01*
X332848Y715729D01*
X332934Y715702D01*
X333020Y715679D01*
X333108Y715660D01*
X333197Y715645D01*
X333286Y715633D01*
X333375Y715625D01*
X333465Y715621D01*
X333555Y715621D01*
X333645Y715625D01*
X333734Y715633D01*
X333823Y715645D01*
X333912Y715660D01*
X334000Y715679D01*
X334086Y715702D01*
X334172Y715729D01*
X334257Y715759D01*
X334340Y715793D01*
X334422Y715831D01*
X334502Y715872D01*
X334580Y715916D01*
X334656Y715964D01*
X334730Y716015D01*
X334802Y716069D01*
X334871Y716126D01*
X334938Y716186D01*
X335002Y716249D01*
X335064Y716314D01*
X335122Y716382D01*
X335178Y716453D01*
X335230Y716526D01*
X335280Y716601D01*
X335326Y716678D01*
X335368Y716757D01*
X335408Y716838D01*
X335443Y716920D01*
X335475Y717004D01*
X335504Y717089D01*
X335529Y717176D01*
X335550Y717263D01*
X335567Y717351D01*
X335581Y717440D01*
X335590Y717530D01*
X335596Y717619D01*
X335598Y717709D01*
X327194Y715621D02*
X327194Y721886D01*
X322495Y721886D01*
X322418Y721884D01*
X322342Y721878D01*
X322265Y721869D01*
X322189Y721856D01*
X322114Y721839D01*
X322040Y721819D01*
X321967Y721794D01*
X321896Y721767D01*
X321825Y721736D01*
X321757Y721701D01*
X321690Y721663D01*
X321625Y721622D01*
X321562Y721578D01*
X321502Y721531D01*
X321443Y721480D01*
X321388Y721427D01*
X321335Y721372D01*
X321284Y721313D01*
X321237Y721253D01*
X321193Y721190D01*
X321152Y721125D01*
X321114Y721058D01*
X321079Y720990D01*
X321048Y720919D01*
X321021Y720848D01*
X320996Y720775D01*
X320976Y720701D01*
X320959Y720626D01*
X320946Y720550D01*
X320937Y720473D01*
X320931Y720397D01*
X320929Y720320D01*
X320928Y720320D02*
X320928Y715621D01*
X324061Y715621D02*
X324061Y721886D01*
X315135Y715621D02*
X312524Y715621D01*
X315135Y715621D02*
X315212Y715623D01*
X315288Y715629D01*
X315365Y715638D01*
X315441Y715651D01*
X315516Y715668D01*
X315590Y715688D01*
X315663Y715713D01*
X315734Y715740D01*
X315805Y715771D01*
X315873Y715806D01*
X315940Y715844D01*
X316005Y715885D01*
X316068Y715929D01*
X316128Y715976D01*
X316187Y716027D01*
X316242Y716080D01*
X316295Y716135D01*
X316346Y716194D01*
X316393Y716254D01*
X316437Y716317D01*
X316478Y716382D01*
X316516Y716449D01*
X316551Y716517D01*
X316582Y716588D01*
X316609Y716659D01*
X316634Y716732D01*
X316654Y716806D01*
X316671Y716881D01*
X316684Y716957D01*
X316693Y717034D01*
X316699Y717110D01*
X316701Y717187D01*
X316701Y719798D01*
X316700Y719798D02*
X316698Y719888D01*
X316692Y719977D01*
X316683Y720067D01*
X316669Y720156D01*
X316652Y720244D01*
X316631Y720331D01*
X316606Y720418D01*
X316577Y720503D01*
X316545Y720587D01*
X316510Y720669D01*
X316470Y720750D01*
X316428Y720829D01*
X316382Y720906D01*
X316332Y720981D01*
X316280Y721054D01*
X316224Y721125D01*
X316166Y721193D01*
X316104Y721258D01*
X316040Y721321D01*
X315973Y721381D01*
X315904Y721438D01*
X315832Y721492D01*
X315758Y721543D01*
X315682Y721591D01*
X315604Y721635D01*
X315524Y721676D01*
X315442Y721714D01*
X315359Y721748D01*
X315274Y721778D01*
X315188Y721805D01*
X315102Y721828D01*
X315014Y721847D01*
X314925Y721862D01*
X314836Y721874D01*
X314747Y721882D01*
X314657Y721886D01*
X314567Y721886D01*
X314477Y721882D01*
X314388Y721874D01*
X314299Y721862D01*
X314210Y721847D01*
X314122Y721828D01*
X314036Y721805D01*
X313950Y721778D01*
X313865Y721748D01*
X313782Y721714D01*
X313700Y721676D01*
X313620Y721635D01*
X313542Y721591D01*
X313466Y721543D01*
X313392Y721492D01*
X313320Y721438D01*
X313251Y721381D01*
X313184Y721321D01*
X313120Y721258D01*
X313058Y721193D01*
X313000Y721125D01*
X312944Y721054D01*
X312892Y720981D01*
X312842Y720906D01*
X312796Y720829D01*
X312754Y720750D01*
X312714Y720669D01*
X312679Y720587D01*
X312647Y720503D01*
X312618Y720418D01*
X312593Y720331D01*
X312572Y720244D01*
X312555Y720156D01*
X312541Y720067D01*
X312532Y719977D01*
X312526Y719888D01*
X312524Y719798D01*
X312524Y718754D01*
X316701Y718754D01*
X308420Y715621D02*
X308420Y721886D01*
X305287Y721886D01*
X305287Y720842D01*
X302375Y719798D02*
X302375Y717709D01*
X302375Y719798D02*
X302373Y719888D01*
X302367Y719977D01*
X302358Y720067D01*
X302344Y720156D01*
X302327Y720244D01*
X302306Y720331D01*
X302281Y720418D01*
X302252Y720503D01*
X302220Y720587D01*
X302185Y720669D01*
X302145Y720750D01*
X302103Y720829D01*
X302057Y720906D01*
X302007Y720981D01*
X301955Y721054D01*
X301899Y721125D01*
X301841Y721193D01*
X301779Y721258D01*
X301715Y721321D01*
X301648Y721381D01*
X301579Y721438D01*
X301507Y721492D01*
X301433Y721543D01*
X301357Y721591D01*
X301279Y721635D01*
X301199Y721676D01*
X301117Y721714D01*
X301034Y721748D01*
X300949Y721778D01*
X300863Y721805D01*
X300777Y721828D01*
X300689Y721847D01*
X300600Y721862D01*
X300511Y721874D01*
X300422Y721882D01*
X300332Y721886D01*
X300242Y721886D01*
X300152Y721882D01*
X300063Y721874D01*
X299974Y721862D01*
X299885Y721847D01*
X299797Y721828D01*
X299711Y721805D01*
X299625Y721778D01*
X299540Y721748D01*
X299457Y721714D01*
X299375Y721676D01*
X299295Y721635D01*
X299217Y721591D01*
X299141Y721543D01*
X299067Y721492D01*
X298995Y721438D01*
X298926Y721381D01*
X298859Y721321D01*
X298795Y721258D01*
X298733Y721193D01*
X298675Y721125D01*
X298619Y721054D01*
X298567Y720981D01*
X298517Y720906D01*
X298471Y720829D01*
X298429Y720750D01*
X298389Y720669D01*
X298354Y720587D01*
X298322Y720503D01*
X298293Y720418D01*
X298268Y720331D01*
X298247Y720244D01*
X298230Y720156D01*
X298216Y720067D01*
X298207Y719977D01*
X298201Y719888D01*
X298199Y719798D01*
X298198Y719798D02*
X298198Y717709D01*
X298199Y717709D02*
X298201Y717619D01*
X298207Y717530D01*
X298216Y717440D01*
X298230Y717351D01*
X298247Y717263D01*
X298268Y717176D01*
X298293Y717089D01*
X298322Y717004D01*
X298354Y716920D01*
X298389Y716838D01*
X298429Y716757D01*
X298471Y716678D01*
X298517Y716601D01*
X298567Y716526D01*
X298619Y716453D01*
X298675Y716382D01*
X298733Y716314D01*
X298795Y716249D01*
X298859Y716186D01*
X298926Y716126D01*
X298995Y716069D01*
X299067Y716015D01*
X299141Y715964D01*
X299217Y715916D01*
X299295Y715872D01*
X299375Y715831D01*
X299457Y715793D01*
X299540Y715759D01*
X299625Y715729D01*
X299711Y715702D01*
X299797Y715679D01*
X299885Y715660D01*
X299974Y715645D01*
X300063Y715633D01*
X300152Y715625D01*
X300242Y715621D01*
X300332Y715621D01*
X300422Y715625D01*
X300511Y715633D01*
X300600Y715645D01*
X300689Y715660D01*
X300777Y715679D01*
X300863Y715702D01*
X300949Y715729D01*
X301034Y715759D01*
X301117Y715793D01*
X301199Y715831D01*
X301279Y715872D01*
X301357Y715916D01*
X301433Y715964D01*
X301507Y716015D01*
X301579Y716069D01*
X301648Y716126D01*
X301715Y716186D01*
X301779Y716249D01*
X301841Y716314D01*
X301899Y716382D01*
X301955Y716453D01*
X302007Y716526D01*
X302057Y716601D01*
X302103Y716678D01*
X302145Y716757D01*
X302185Y716838D01*
X302220Y716920D01*
X302252Y717004D01*
X302281Y717089D01*
X302306Y717176D01*
X302327Y717263D01*
X302344Y717351D01*
X302358Y717440D01*
X302367Y717530D01*
X302373Y717619D01*
X302375Y717709D01*
X379619Y709779D02*
X379619Y700381D01*
X376486Y704558D02*
X379619Y709779D01*
X376486Y704558D02*
X373354Y709779D01*
X373354Y700381D01*
X369171Y700381D02*
X369171Y706646D01*
X369432Y709257D02*
X369432Y709779D01*
X368910Y709779D01*
X368910Y709257D01*
X369432Y709257D01*
X363892Y700381D02*
X361803Y700381D01*
X363892Y700381D02*
X363969Y700383D01*
X364045Y700389D01*
X364122Y700398D01*
X364198Y700411D01*
X364273Y700428D01*
X364347Y700448D01*
X364420Y700473D01*
X364491Y700500D01*
X364562Y700531D01*
X364630Y700566D01*
X364697Y700604D01*
X364762Y700645D01*
X364825Y700689D01*
X364885Y700736D01*
X364944Y700787D01*
X364999Y700840D01*
X365052Y700895D01*
X365103Y700954D01*
X365150Y701014D01*
X365194Y701077D01*
X365235Y701142D01*
X365273Y701209D01*
X365308Y701277D01*
X365339Y701348D01*
X365366Y701419D01*
X365391Y701492D01*
X365411Y701566D01*
X365428Y701641D01*
X365441Y701717D01*
X365450Y701794D01*
X365456Y701870D01*
X365458Y701947D01*
X365458Y705080D01*
X365456Y705157D01*
X365450Y705233D01*
X365441Y705310D01*
X365428Y705386D01*
X365411Y705461D01*
X365391Y705535D01*
X365366Y705608D01*
X365339Y705679D01*
X365308Y705750D01*
X365273Y705818D01*
X365235Y705885D01*
X365194Y705950D01*
X365150Y706013D01*
X365103Y706073D01*
X365052Y706132D01*
X364999Y706187D01*
X364944Y706240D01*
X364885Y706291D01*
X364825Y706338D01*
X364762Y706382D01*
X364697Y706423D01*
X364630Y706461D01*
X364562Y706496D01*
X364491Y706527D01*
X364420Y706554D01*
X364347Y706579D01*
X364273Y706599D01*
X364198Y706616D01*
X364122Y706629D01*
X364045Y706638D01*
X363969Y706644D01*
X363892Y706646D01*
X361803Y706646D01*
X358153Y709779D02*
X358153Y700381D01*
X358153Y706646D02*
X355543Y706646D01*
X355466Y706644D01*
X355390Y706638D01*
X355313Y706629D01*
X355237Y706616D01*
X355163Y706599D01*
X355088Y706579D01*
X355015Y706554D01*
X354944Y706527D01*
X354873Y706496D01*
X354805Y706461D01*
X354738Y706423D01*
X354673Y706382D01*
X354610Y706338D01*
X354550Y706291D01*
X354491Y706240D01*
X354436Y706187D01*
X354383Y706132D01*
X354332Y706073D01*
X354285Y706013D01*
X354241Y705950D01*
X354200Y705885D01*
X354162Y705818D01*
X354127Y705750D01*
X354096Y705679D01*
X354069Y705608D01*
X354044Y705535D01*
X354024Y705461D01*
X354007Y705386D01*
X353994Y705310D01*
X353985Y705234D01*
X353979Y705157D01*
X353977Y705080D01*
X353976Y705080D02*
X353976Y700381D01*
X348142Y704036D02*
X345792Y704036D01*
X348142Y704035D02*
X348226Y704033D01*
X348311Y704027D01*
X348394Y704017D01*
X348478Y704004D01*
X348560Y703986D01*
X348642Y703965D01*
X348723Y703940D01*
X348802Y703912D01*
X348880Y703879D01*
X348956Y703843D01*
X349031Y703804D01*
X349104Y703761D01*
X349175Y703715D01*
X349243Y703666D01*
X349309Y703614D01*
X349373Y703558D01*
X349434Y703500D01*
X349492Y703439D01*
X349548Y703375D01*
X349600Y703309D01*
X349649Y703241D01*
X349695Y703170D01*
X349738Y703097D01*
X349777Y703022D01*
X349813Y702946D01*
X349846Y702868D01*
X349874Y702789D01*
X349899Y702708D01*
X349920Y702626D01*
X349938Y702544D01*
X349951Y702460D01*
X349961Y702377D01*
X349967Y702292D01*
X349969Y702208D01*
X349967Y702124D01*
X349961Y702039D01*
X349951Y701956D01*
X349938Y701872D01*
X349920Y701790D01*
X349899Y701708D01*
X349874Y701627D01*
X349846Y701548D01*
X349813Y701470D01*
X349777Y701394D01*
X349738Y701319D01*
X349695Y701246D01*
X349649Y701175D01*
X349600Y701107D01*
X349548Y701041D01*
X349492Y700977D01*
X349434Y700916D01*
X349373Y700858D01*
X349309Y700802D01*
X349243Y700750D01*
X349175Y700701D01*
X349104Y700655D01*
X349031Y700612D01*
X348956Y700573D01*
X348880Y700537D01*
X348802Y700504D01*
X348723Y700476D01*
X348642Y700451D01*
X348560Y700430D01*
X348478Y700412D01*
X348394Y700399D01*
X348311Y700389D01*
X348226Y700383D01*
X348142Y700381D01*
X345792Y700381D01*
X345792Y705080D01*
X345793Y705080D02*
X345795Y705157D01*
X345801Y705233D01*
X345810Y705310D01*
X345823Y705386D01*
X345840Y705461D01*
X345860Y705535D01*
X345885Y705608D01*
X345912Y705679D01*
X345943Y705750D01*
X345978Y705818D01*
X346016Y705885D01*
X346057Y705950D01*
X346101Y706013D01*
X346148Y706073D01*
X346199Y706132D01*
X346252Y706187D01*
X346307Y706240D01*
X346366Y706291D01*
X346426Y706338D01*
X346489Y706382D01*
X346554Y706423D01*
X346621Y706461D01*
X346689Y706496D01*
X346760Y706527D01*
X346831Y706554D01*
X346904Y706579D01*
X346979Y706599D01*
X347054Y706616D01*
X347129Y706629D01*
X347206Y706638D01*
X347282Y706644D01*
X347359Y706646D01*
X349447Y706646D01*
X340128Y700381D02*
X337517Y700381D01*
X340128Y700381D02*
X340205Y700383D01*
X340281Y700389D01*
X340358Y700398D01*
X340434Y700411D01*
X340509Y700428D01*
X340583Y700448D01*
X340656Y700473D01*
X340727Y700500D01*
X340798Y700531D01*
X340866Y700566D01*
X340933Y700604D01*
X340998Y700645D01*
X341061Y700689D01*
X341121Y700736D01*
X341180Y700787D01*
X341235Y700840D01*
X341288Y700895D01*
X341339Y700954D01*
X341386Y701014D01*
X341430Y701077D01*
X341471Y701142D01*
X341509Y701209D01*
X341544Y701277D01*
X341575Y701348D01*
X341602Y701419D01*
X341627Y701492D01*
X341647Y701566D01*
X341664Y701641D01*
X341677Y701717D01*
X341686Y701794D01*
X341692Y701870D01*
X341694Y701947D01*
X341694Y704558D01*
X341692Y704648D01*
X341686Y704737D01*
X341677Y704827D01*
X341663Y704916D01*
X341646Y705004D01*
X341625Y705091D01*
X341600Y705178D01*
X341571Y705263D01*
X341539Y705347D01*
X341504Y705429D01*
X341464Y705510D01*
X341422Y705589D01*
X341376Y705666D01*
X341326Y705741D01*
X341274Y705814D01*
X341218Y705885D01*
X341160Y705953D01*
X341098Y706018D01*
X341034Y706081D01*
X340967Y706141D01*
X340898Y706198D01*
X340826Y706252D01*
X340752Y706303D01*
X340676Y706351D01*
X340598Y706395D01*
X340518Y706436D01*
X340436Y706474D01*
X340353Y706508D01*
X340268Y706538D01*
X340182Y706565D01*
X340096Y706588D01*
X340008Y706607D01*
X339919Y706622D01*
X339830Y706634D01*
X339741Y706642D01*
X339651Y706646D01*
X339561Y706646D01*
X339471Y706642D01*
X339382Y706634D01*
X339293Y706622D01*
X339204Y706607D01*
X339116Y706588D01*
X339030Y706565D01*
X338944Y706538D01*
X338859Y706508D01*
X338776Y706474D01*
X338694Y706436D01*
X338614Y706395D01*
X338536Y706351D01*
X338460Y706303D01*
X338386Y706252D01*
X338314Y706198D01*
X338245Y706141D01*
X338178Y706081D01*
X338114Y706018D01*
X338052Y705953D01*
X337994Y705885D01*
X337938Y705814D01*
X337886Y705741D01*
X337836Y705666D01*
X337790Y705589D01*
X337748Y705510D01*
X337708Y705429D01*
X337673Y705347D01*
X337641Y705263D01*
X337612Y705178D01*
X337587Y705091D01*
X337566Y705004D01*
X337549Y704916D01*
X337535Y704827D01*
X337526Y704737D01*
X337520Y704648D01*
X337518Y704558D01*
X337517Y704558D02*
X337517Y703514D01*
X341694Y703514D01*
X333644Y701947D02*
X333644Y709779D01*
X333644Y701947D02*
X333642Y701870D01*
X333636Y701794D01*
X333627Y701717D01*
X333614Y701641D01*
X333597Y701566D01*
X333577Y701492D01*
X333552Y701419D01*
X333525Y701348D01*
X333494Y701277D01*
X333459Y701209D01*
X333421Y701142D01*
X333380Y701077D01*
X333336Y701014D01*
X333289Y700954D01*
X333238Y700895D01*
X333185Y700840D01*
X333130Y700787D01*
X333071Y700736D01*
X333011Y700689D01*
X332948Y700645D01*
X332883Y700604D01*
X332816Y700566D01*
X332748Y700531D01*
X332677Y700500D01*
X332606Y700473D01*
X332533Y700448D01*
X332459Y700428D01*
X332384Y700411D01*
X332308Y700398D01*
X332231Y700389D01*
X332155Y700383D01*
X332078Y700381D01*
X323492Y705602D02*
X320882Y705602D01*
X320882Y705603D02*
X320781Y705601D01*
X320680Y705595D01*
X320579Y705585D01*
X320479Y705572D01*
X320379Y705554D01*
X320280Y705533D01*
X320182Y705507D01*
X320085Y705478D01*
X319989Y705446D01*
X319895Y705409D01*
X319802Y705369D01*
X319710Y705325D01*
X319621Y705278D01*
X319533Y705227D01*
X319447Y705173D01*
X319364Y705116D01*
X319282Y705056D01*
X319204Y704992D01*
X319127Y704926D01*
X319054Y704856D01*
X318983Y704784D01*
X318915Y704709D01*
X318850Y704631D01*
X318788Y704551D01*
X318729Y704469D01*
X318673Y704384D01*
X318621Y704298D01*
X318572Y704209D01*
X318526Y704118D01*
X318485Y704026D01*
X318446Y703932D01*
X318412Y703837D01*
X318381Y703741D01*
X318354Y703643D01*
X318330Y703545D01*
X318311Y703445D01*
X318295Y703345D01*
X318283Y703245D01*
X318275Y703144D01*
X318271Y703043D01*
X318271Y702941D01*
X318275Y702840D01*
X318283Y702739D01*
X318295Y702639D01*
X318311Y702539D01*
X318330Y702439D01*
X318354Y702341D01*
X318381Y702243D01*
X318412Y702147D01*
X318446Y702052D01*
X318485Y701958D01*
X318526Y701866D01*
X318572Y701775D01*
X318621Y701687D01*
X318673Y701600D01*
X318729Y701515D01*
X318788Y701433D01*
X318850Y701353D01*
X318915Y701275D01*
X318983Y701200D01*
X319054Y701128D01*
X319127Y701058D01*
X319204Y700992D01*
X319282Y700928D01*
X319364Y700868D01*
X319447Y700811D01*
X319533Y700757D01*
X319621Y700706D01*
X319710Y700659D01*
X319802Y700615D01*
X319895Y700575D01*
X319989Y700538D01*
X320085Y700506D01*
X320182Y700477D01*
X320280Y700451D01*
X320379Y700430D01*
X320479Y700412D01*
X320579Y700399D01*
X320680Y700389D01*
X320781Y700383D01*
X320882Y700381D01*
X323492Y700381D01*
X323492Y709779D01*
X320882Y709779D01*
X320792Y709777D01*
X320703Y709771D01*
X320613Y709762D01*
X320524Y709748D01*
X320436Y709731D01*
X320349Y709710D01*
X320262Y709685D01*
X320177Y709656D01*
X320093Y709624D01*
X320011Y709589D01*
X319930Y709549D01*
X319851Y709507D01*
X319774Y709461D01*
X319699Y709411D01*
X319626Y709359D01*
X319555Y709303D01*
X319487Y709245D01*
X319422Y709183D01*
X319359Y709119D01*
X319299Y709052D01*
X319242Y708983D01*
X319188Y708911D01*
X319137Y708837D01*
X319089Y708761D01*
X319045Y708683D01*
X319004Y708603D01*
X318966Y708521D01*
X318932Y708438D01*
X318902Y708353D01*
X318875Y708267D01*
X318852Y708181D01*
X318833Y708093D01*
X318818Y708004D01*
X318806Y707915D01*
X318798Y707826D01*
X318794Y707736D01*
X318794Y707646D01*
X318798Y707556D01*
X318806Y707467D01*
X318818Y707378D01*
X318833Y707289D01*
X318852Y707201D01*
X318875Y707115D01*
X318902Y707029D01*
X318932Y706944D01*
X318966Y706861D01*
X319004Y706779D01*
X319045Y706699D01*
X319089Y706621D01*
X319137Y706545D01*
X319188Y706471D01*
X319242Y706399D01*
X319299Y706330D01*
X319359Y706263D01*
X319422Y706199D01*
X319487Y706137D01*
X319555Y706079D01*
X319626Y706023D01*
X319699Y705971D01*
X319774Y705921D01*
X319851Y705875D01*
X319930Y705833D01*
X320011Y705793D01*
X320093Y705758D01*
X320177Y705726D01*
X320262Y705697D01*
X320349Y705672D01*
X320436Y705651D01*
X320524Y705634D01*
X320613Y705620D01*
X320703Y705611D01*
X320792Y705605D01*
X320882Y705603D01*
X315177Y697248D02*
X314133Y697248D01*
X311000Y706646D01*
X315177Y706646D02*
X313088Y700381D01*
X305991Y700381D02*
X303380Y700381D01*
X305991Y700381D02*
X306068Y700383D01*
X306144Y700389D01*
X306221Y700398D01*
X306297Y700411D01*
X306372Y700428D01*
X306446Y700448D01*
X306519Y700473D01*
X306590Y700500D01*
X306661Y700531D01*
X306729Y700566D01*
X306796Y700604D01*
X306861Y700645D01*
X306924Y700689D01*
X306984Y700736D01*
X307043Y700787D01*
X307098Y700840D01*
X307151Y700895D01*
X307202Y700954D01*
X307249Y701014D01*
X307293Y701077D01*
X307334Y701142D01*
X307372Y701209D01*
X307407Y701277D01*
X307438Y701348D01*
X307465Y701419D01*
X307490Y701492D01*
X307510Y701566D01*
X307527Y701641D01*
X307540Y701717D01*
X307549Y701794D01*
X307555Y701870D01*
X307557Y701947D01*
X307557Y704558D01*
X307556Y704558D02*
X307554Y704648D01*
X307548Y704737D01*
X307539Y704827D01*
X307525Y704916D01*
X307508Y705004D01*
X307487Y705091D01*
X307462Y705178D01*
X307433Y705263D01*
X307401Y705347D01*
X307366Y705429D01*
X307326Y705510D01*
X307284Y705589D01*
X307238Y705666D01*
X307188Y705741D01*
X307136Y705814D01*
X307080Y705885D01*
X307022Y705953D01*
X306960Y706018D01*
X306896Y706081D01*
X306829Y706141D01*
X306760Y706198D01*
X306688Y706252D01*
X306614Y706303D01*
X306538Y706351D01*
X306460Y706395D01*
X306380Y706436D01*
X306298Y706474D01*
X306215Y706508D01*
X306130Y706538D01*
X306044Y706565D01*
X305958Y706588D01*
X305870Y706607D01*
X305781Y706622D01*
X305692Y706634D01*
X305603Y706642D01*
X305513Y706646D01*
X305423Y706646D01*
X305333Y706642D01*
X305244Y706634D01*
X305155Y706622D01*
X305066Y706607D01*
X304978Y706588D01*
X304892Y706565D01*
X304806Y706538D01*
X304721Y706508D01*
X304638Y706474D01*
X304556Y706436D01*
X304476Y706395D01*
X304398Y706351D01*
X304322Y706303D01*
X304248Y706252D01*
X304176Y706198D01*
X304107Y706141D01*
X304040Y706081D01*
X303976Y706018D01*
X303914Y705953D01*
X303856Y705885D01*
X303800Y705814D01*
X303748Y705741D01*
X303698Y705666D01*
X303652Y705589D01*
X303610Y705510D01*
X303570Y705429D01*
X303535Y705347D01*
X303503Y705263D01*
X303474Y705178D01*
X303449Y705091D01*
X303428Y705004D01*
X303411Y704916D01*
X303397Y704827D01*
X303388Y704737D01*
X303382Y704648D01*
X303380Y704558D01*
X303380Y703514D01*
X307557Y703514D01*
X299276Y700381D02*
X299276Y706646D01*
X296143Y706646D01*
X296143Y705602D01*
X293106Y701947D02*
X293106Y709779D01*
X293106Y701947D02*
X293104Y701870D01*
X293098Y701794D01*
X293089Y701717D01*
X293076Y701641D01*
X293059Y701566D01*
X293039Y701492D01*
X293014Y701419D01*
X292987Y701348D01*
X292956Y701277D01*
X292921Y701209D01*
X292883Y701142D01*
X292842Y701077D01*
X292798Y701014D01*
X292751Y700954D01*
X292700Y700895D01*
X292647Y700840D01*
X292592Y700787D01*
X292533Y700736D01*
X292473Y700689D01*
X292410Y700645D01*
X292345Y700604D01*
X292278Y700566D01*
X292210Y700531D01*
X292139Y700500D01*
X292068Y700473D01*
X291995Y700448D01*
X291921Y700428D01*
X291846Y700411D01*
X291770Y700398D01*
X291693Y700389D01*
X291617Y700383D01*
X291540Y700381D01*
X288659Y697248D02*
X287615Y697248D01*
X284482Y706646D01*
X288659Y706646D02*
X286571Y700381D01*
M02*
