<svg version="1.1" xmlns="http://www.w3.org/2000/svg" xmlns:xlink="http://www.w3.org/1999/xlink" stroke-linecap="round" stroke-linejoin="round" stroke-width="0" fill-rule="evenodd" clip-rule="evenodd" id="jIgN2hPM9j9GVpJLrFrq_bottom" viewBox="15000 63000 59000 37000" width="59mm" height="37mm" class="w-100 h-100"><defs><style>.jIgN2hPM9j9GVpJLrFrq_fr4 {color: #666666;}
.jIgN2hPM9j9GVpJLrFrq_cu {color: #cccccc;}
.jIgN2hPM9j9GVpJLrFrq_cf {color: #cc9933;}
.jIgN2hPM9j9GVpJLrFrq_sm {color: #004200; opacity: 0.75;}
.jIgN2hPM9j9GVpJLrFrq_ss {color: #ffffff;}
.jIgN2hPM9j9GVpJLrFrq_sp {color: #999999;}
.jIgN2hPM9j9GVpJLrFrq_out {color: #000000;}</style><circle cx="0" cy="0" r="1041.4" id="A-OyjNt7KNJp-TWcoWlS_pad-10"/><rect x="-1041.4" y="-1041.4" width="2082.8" height="2082.8" id="A-OyjNt7KNJp-TWcoWlS_pad-11"/><circle cx="0" cy="0" r="1701.6" id="A-OyjNt7KNJp-TWcoWlS_pad-12"/><circle cx="0" cy="0" r="1501.6" id="A-OyjNt7KNJp-TWcoWlS_pad-13"/><circle cx="0" cy="0" r="1201.6" id="A-OyjNt7KNJp-TWcoWlS_pad-14"/><circle cx="0" cy="0" r="939.8" id="aYusHxtlNm48i0jdZ4Kn_pad-10"/><rect x="-939.8" y="-939.8" width="1879.6" height="1879.6" id="aYusHxtlNm48i0jdZ4Kn_pad-11"/><circle cx="0" cy="0" r="1100" id="aYusHxtlNm48i0jdZ4Kn_pad-12"/><circle cx="0" cy="0" r="1600" id="JaoXs996KPkdVU6_PnuF_pad-1"/><circle cx="0" cy="0" r="1400" id="JaoXs996KPkdVU6_PnuF_pad-2"/><circle cx="0" cy="0" r="700" id="JaoXs996KPkdVU6_PnuF_pad-3"/><circle cx="0" cy="0" r="500" id="JaoXs996KPkdVU6_PnuF_pad-4"/><g id="jIgN2hPM9j9GVpJLrFrq_bottom_soldermask"><use xlink:href="#A-OyjNt7KNJp-TWcoWlS_pad-10" x="30555" y="80110"/><use xlink:href="#A-OyjNt7KNJp-TWcoWlS_pad-10" x="31825" y="82650"/><use xlink:href="#A-OyjNt7KNJp-TWcoWlS_pad-10" x="33095" y="80110"/><use xlink:href="#A-OyjNt7KNJp-TWcoWlS_pad-10" x="35635" y="80110"/><use xlink:href="#A-OyjNt7KNJp-TWcoWlS_pad-10" x="38175" y="80110"/><use xlink:href="#A-OyjNt7KNJp-TWcoWlS_pad-10" x="34365" y="82650"/><use xlink:href="#A-OyjNt7KNJp-TWcoWlS_pad-10" x="36905" y="82650"/><use xlink:href="#A-OyjNt7KNJp-TWcoWlS_pad-11" x="39445" y="82650"/><use xlink:href="#A-OyjNt7KNJp-TWcoWlS_pad-12" x="40715" y="89000"/><use xlink:href="#A-OyjNt7KNJp-TWcoWlS_pad-12" x="29285" y="89000"/><use xlink:href="#A-OyjNt7KNJp-TWcoWlS_pad-13" x="23000" y="95000"/><use xlink:href="#A-OyjNt7KNJp-TWcoWlS_pad-13" x="65000" y="95000"/><use xlink:href="#A-OyjNt7KNJp-TWcoWlS_pad-13" x="44000" y="73000"/><use xlink:href="#A-OyjNt7KNJp-TWcoWlS_pad-14" x="18000" y="74000"/><use xlink:href="#A-OyjNt7KNJp-TWcoWlS_pad-14" x="18000" y="76540"/><use xlink:href="#A-OyjNt7KNJp-TWcoWlS_pad-14" x="18000" y="79080"/><use xlink:href="#A-OyjNt7KNJp-TWcoWlS_pad-14" x="71000" y="74000"/><use xlink:href="#A-OyjNt7KNJp-TWcoWlS_pad-14" x="71000" y="76540"/><use xlink:href="#A-OyjNt7KNJp-TWcoWlS_pad-14" x="71000" y="79080"/><use xlink:href="#A-OyjNt7KNJp-TWcoWlS_pad-14" x="18000" y="83000"/><use xlink:href="#A-OyjNt7KNJp-TWcoWlS_pad-14" x="18000" y="85540"/><use xlink:href="#A-OyjNt7KNJp-TWcoWlS_pad-14" x="18000" y="88080"/><use xlink:href="#A-OyjNt7KNJp-TWcoWlS_pad-14" x="18000" y="90620"/><use xlink:href="#A-OyjNt7KNJp-TWcoWlS_pad-14" x="71000" y="83000"/><use xlink:href="#A-OyjNt7KNJp-TWcoWlS_pad-14" x="71000" y="85540"/><use xlink:href="#A-OyjNt7KNJp-TWcoWlS_pad-14" x="71000" y="88080"/><use xlink:href="#A-OyjNt7KNJp-TWcoWlS_pad-14" x="71000" y="90620"/><use xlink:href="#A-OyjNt7KNJp-TWcoWlS_pad-10" x="48555" y="80110"/><use xlink:href="#A-OyjNt7KNJp-TWcoWlS_pad-10" x="49825" y="82650"/><use xlink:href="#A-OyjNt7KNJp-TWcoWlS_pad-10" x="51095" y="80110"/><use xlink:href="#A-OyjNt7KNJp-TWcoWlS_pad-10" x="53635" y="80110"/><use xlink:href="#A-OyjNt7KNJp-TWcoWlS_pad-10" x="56175" y="80110"/><use xlink:href="#A-OyjNt7KNJp-TWcoWlS_pad-10" x="52365" y="82650"/><use xlink:href="#A-OyjNt7KNJp-TWcoWlS_pad-10" x="54905" y="82650"/><use xlink:href="#A-OyjNt7KNJp-TWcoWlS_pad-11" x="57445" y="82650"/><use xlink:href="#A-OyjNt7KNJp-TWcoWlS_pad-12" x="58715" y="89000"/><use xlink:href="#A-OyjNt7KNJp-TWcoWlS_pad-12" x="47285" y="89000"/><use xlink:href="#A-OyjNt7KNJp-TWcoWlS_pad-14" x="46500" y="66000"/><use xlink:href="#A-OyjNt7KNJp-TWcoWlS_pad-14" x="43960" y="66000"/><use xlink:href="#A-OyjNt7KNJp-TWcoWlS_pad-14" x="41420" y="66000"/><use xlink:href="#A-OyjNt7KNJp-TWcoWlS_pad-14" x="63000" y="66000"/><use xlink:href="#A-OyjNt7KNJp-TWcoWlS_pad-14" x="60460" y="66000"/><use xlink:href="#A-OyjNt7KNJp-TWcoWlS_pad-14" x="57920" y="66000"/><use xlink:href="#A-OyjNt7KNJp-TWcoWlS_pad-14" x="31000" y="66000"/><use xlink:href="#A-OyjNt7KNJp-TWcoWlS_pad-14" x="28460" y="66000"/><use xlink:href="#A-OyjNt7KNJp-TWcoWlS_pad-14" x="25920" y="66000"/></g><g id="jIgN2hPM9j9GVpJLrFrq_bottom_silkscreen"><path d="M 55520.8 75516.1 55520.8 74867.6 54846.8 74867.6 56618.9 70300.4 57143.1 70300.4 57143.1 69628.4 54946.6 69628.4 54946.6 70281.9 54330 70281.9 54330 69000 57796.7 69000 57796.7 70912.6 57018.1 70912.6 55770.1 74239.2 56162.3 74239.2 56162.3 76147.2 51634.4 76147.2 51634.4 74236.9 52026.2 74236.9 50778.2 70912.6 50000 70912.6 50000 69001 53466.7 69001 53466.7 70281.9 52848.8 70281.9 52848.8 69628.4 50653.6 69628.4 50653.6 70300.4 51177.8 70300.4 52949.6 74867.6 52277.5 74867.6 52277.5 75516.1 55520.8 75516.1 M 53896.8 75510.7 55695.9 70845.4 55737.8 70756.7 55857.9 70561.5 55944.9 70457.2 56048.3 70366.3 56167.3 70302 56300.7 70277.6 54990.2 70277.6 55031.9 70286.5 55074 70316 55121.6 70378.4 55138.4 70429 55138.6 70479.6 55127.3 70534.3 54722.4 71575.9 53073.9 71575.9 52668 70534.3 52657.3 70479.6 52657.8 70429 52674.7 70378.4 52722.7 70316.4 52764.5 70286.9 52805.4 70277.6 51495 70277.6 51628.3 70302 51747.2 70366.3 51850.7 70457.2 51937.6 70561.5 52057.9 70756.7 52099.8 70845.4 53896.8 75510.7 M 53907.6 73705.6 54528.9 72069.2 M 53264.1 72069.2 53907.6 73705.6 M 54528.9 72069.2 53264.1 72069.2" fill="none" stroke-width="254"/><path d="M 37961.9 73086.1 37961.9 74025.9 37700.8 74025.9 37690.8 74025.7 37680.8 74025.1 37670.9 74024.2 37660.9 74022.8 37651.1 74021.1 37641.3 74019 37631.6 74016.6 37622 74013.7 37612.5 74010.5 37603.2 74007 37594 74003.1 37584.9 73998.8 37576.1 73994.2 37567.4 73989.2 37558.9 73984 37550.6 73978.4 37542.5 73972.5 37534.7 73966.2 37527.1 73959.7 37519.7 73952.9 37512.7 73945.9 37505.9 73938.5 37499.4 73930.9 37493.1 73923.1 37487.2 73915 37481.6 73906.7 37476.4 73898.2 37471.4 73889.5 37466.8 73880.7 37462.5 73871.6 37458.6 73862.4 37455.1 73853.1 37451.9 73843.6 37449 73834 37446.6 73824.3 37444.5 73814.5 37442.8 73804.7 37441.4 73794.7 37440.5 73784.8 37439.9 73774.8 37439.7 73764.8 M 37439.8 73764.8 37439.8 73347.2 M 37439.7 73347.2 37439.9 73337.2 37440.5 73327.2 37441.4 73317.3 37442.8 73307.3 37444.5 73297.5 37446.6 73287.7 37449 73278 37451.9 73268.4 37455.1 73258.9 37458.6 73249.6 37462.5 73240.4 37466.8 73231.3 37471.4 73222.5 37476.4 73213.8 37481.6 73205.3 37487.2 73197 37493.1 73188.9 37499.4 73181.1 37505.9 73173.5 37512.7 73166.1 37519.7 73159.1 37527.1 73152.3 37534.7 73145.8 37542.5 73139.5 37550.6 73133.6 37558.9 73128 37567.4 73122.8 37576.1 73117.8 37584.9 73113.2 37594 73108.9 37603.2 73105 37612.5 73101.5 37622 73098.3 37631.6 73095.4 37641.3 73093 37651.1 73090.9 37660.9 73089.2 37670.9 73087.8 37680.8 73086.9 37690.8 73086.3 37700.8 73086.1 37961.9 73086.1 M 36869.1 73086.1 36608.1 73086.1 M 36869.1 73086.1 36876.8 73086.3 36884.4 73086.9 36892.1 73087.8 36899.7 73089.1 36907.2 73090.8 36914.6 73092.8 36921.9 73095.3 36929 73098 36936.1 73101.1 36942.9 73104.6 36949.6 73108.4 36956.1 73112.5 36962.4 73116.9 36968.4 73121.6 36974.3 73126.7 36979.8 73132 36985.1 73137.5 36990.2 73143.4 36994.9 73149.4 36999.3 73155.7 37003.4 73162.2 37007.2 73168.9 37010.7 73175.7 37013.8 73182.8 37016.5 73189.9 37019 73197.2 37021 73204.6 37022.7 73212.1 37024 73219.7 37024.9 73227.4 37025.5 73235 37025.7 73242.7 M 37025.8 73242.7 37025.8 73503.8 M 37025.7 73503.8 37025.5 73512.8 37024.9 73521.7 37024 73530.7 37022.6 73539.6 37020.9 73548.4 37018.8 73557.1 37016.3 73565.8 37013.4 73574.3 37010.2 73582.7 37006.7 73590.9 37002.7 73599 36998.5 73606.9 36993.9 73614.6 36988.9 73622.1 36983.7 73629.4 36978.1 73636.5 36972.3 73643.3 36966.1 73649.8 36959.7 73656.1 36953 73662.1 36946.1 73667.8 36938.9 73673.2 36931.5 73678.3 36923.9 73683.1 36916.1 73687.5 36908.1 73691.6 36899.9 73695.4 36891.6 73698.8 36883.1 73701.8 36874.5 73704.5 36865.9 73706.8 36857.1 73708.7 36848.2 73710.2 36839.3 73711.4 36830.4 73712.2 36821.4 73712.6 36812.4 73712.6 36803.4 73712.2 36794.5 73711.4 36785.6 73710.2 36776.7 73708.7 36767.9 73706.8 36759.3 73704.5 36750.7 73701.8 36742.2 73698.8 36733.9 73695.4 36725.7 73691.6 36717.7 73687.5 36709.9 73683.1 36702.3 73678.3 36694.9 73673.2 36687.7 73667.8 36680.8 73662.1 36674.1 73656.1 36667.7 73649.8 36661.5 73643.3 36655.7 73636.5 36650.1 73629.4 36644.9 73622.1 36639.9 73614.6 36635.3 73606.9 36631.1 73599 36627.1 73590.9 36623.6 73582.7 36620.4 73574.3 36617.5 73565.8 36615 73557.1 36612.9 73548.4 36611.2 73539.6 36609.8 73530.7 36608.9 73521.7 36608.3 73512.8 36608.1 73503.8 36608.1 73399.4 37025.8 73399.4 M 36155 73451.6 35893.9 73347.2 M 36155 73451.6 36161.6 73454.4 36168.1 73457.7 36174.4 73461.2 36180.5 73465.1 36186.4 73469.3 36192 73473.8 36197.4 73478.6 36202.5 73483.7 36207.4 73489 36211.9 73494.7 36216.2 73500.5 36220.1 73506.5 36223.8 73512.8 36227 73519.3 36229.9 73525.9 36232.5 73532.6 36234.7 73539.5 36236.5 73546.5 36238 73553.6 36239.1 73560.7 36239.8 73567.9 36240.1 73575.1 36240 73582.3 36239.5 73589.6 36238.7 73596.7 36237.5 73603.9 36235.9 73610.9 36233.9 73617.8 36231.5 73624.7 36228.8 73631.4 36225.8 73637.9 36222.4 73644.3 36218.6 73650.5 36214.6 73656.5 36210.2 73662.2 36205.5 73667.7 36200.5 73673 36195.3 73677.9 36189.8 73682.6 36184.1 73687 36178.1 73691.1 36171.9 73694.8 36165.5 73698.3 36159 73701.3 36152.3 73704.1 36145.5 73706.4 36138.5 73708.4 36131.5 73710 36124.4 73711.3 36117.2 73712.1 36110 73712.6 36102.8 73712.7 M 36102.7 73712.6 36087.6 73712.2 36072.5 73711.4 36057.4 73710.3 36042.3 73708.7 36027.3 73706.7 36012.3 73704.4 35997.4 73701.7 35982.6 73698.6 35967.8 73695.1 35953.2 73691.3 35938.6 73687 35924.2 73682.4 35909.9 73677.5 35895.7 73672.2 35881.7 73666.5 35867.8 73660.4 M 35893.9 73347.2 35887.3 73344.4 35880.8 73341.1 35874.5 73337.6 35868.4 73333.7 35862.5 73329.5 35856.9 73325 35851.5 73320.2 35846.4 73315.1 35841.5 73309.8 35837 73304.1 35832.7 73298.3 35828.8 73292.3 35825.1 73286 35821.9 73279.5 35819 73272.9 35816.4 73266.2 35814.2 73259.3 35812.4 73252.3 35810.9 73245.2 35809.8 73238.1 35809.1 73230.9 35808.8 73223.7 35808.9 73216.5 35809.4 73209.2 35810.2 73202.1 35811.4 73194.9 35813 73187.9 35815 73181 35817.4 73174.1 35820.1 73167.4 35823.1 73160.9 35826.5 73154.5 35830.3 73148.3 35834.3 73142.3 35838.7 73136.6 35843.4 73131.1 35848.4 73125.8 35853.6 73120.9 35859.1 73116.2 35864.8 73111.8 35870.8 73107.7 35877 73104 35883.4 73100.5 35889.9 73097.5 35896.6 73094.7 35903.4 73092.4 35910.4 73090.4 35917.4 73088.8 35924.5 73087.5 35931.7 73086.7 35938.9 73086.2 35946.1 73086.1 35967.1 73086.6 35988 73087.7 36008.9 73089.2 36029.7 73091.2 36050.5 73093.8 36071.2 73096.8 36091.9 73100.3 36112.4 73104.3 36132.9 73108.7 36153.2 73113.7 36173.5 73119.1 36193.6 73125.1 36213.5 73131.4 36233.3 73138.3 M 35445.3 73086.1 35445.3 73712.6 M 35471.4 73973.7 35471.4 74025.9 35419.2 74025.9 35419.2 73973.7 35471.4 73973.7 M 34923 73086.1 34661.9 73086.1 M 34923 73086.1 34930.7 73086.3 34938.3 73086.9 34946 73087.8 34953.6 73089.1 34961.1 73090.8 34968.5 73092.8 34975.8 73095.3 34982.9 73098 34990 73101.1 34996.8 73104.6 35003.5 73108.4 35010 73112.5 35016.3 73116.9 35022.3 73121.6 35028.2 73126.7 35033.7 73132 35039 73137.5 35044.1 73143.4 35048.8 73149.4 35053.2 73155.7 35057.3 73162.2 35061.1 73168.9 35064.6 73175.7 35067.7 73182.8 35070.4 73189.9 35072.9 73197.2 35074.9 73204.6 35076.6 73212.1 35077.9 73219.7 35078.8 73227.4 35079.4 73235 35079.6 73242.7 35079.6 73556 35079.4 73563.7 35078.8 73571.3 35077.9 73579 35076.6 73586.6 35074.9 73594.1 35072.9 73601.5 35070.4 73608.8 35067.7 73615.9 35064.6 73623 35061.1 73629.8 35057.3 73636.5 35053.2 73643 35048.8 73649.3 35044.1 73655.3 35039 73661.2 35033.7 73666.7 35028.2 73672 35022.3 73677.1 35016.3 73681.8 35010 73686.2 35003.5 73690.3 34996.8 73694.1 34990 73697.6 34982.9 73700.7 34975.8 73703.4 34968.5 73705.9 34961.1 73707.9 34953.6 73709.6 34946 73710.9 34938.3 73711.8 34930.7 73712.4 34923 73712.6 34661.9 73712.6 34661.9 72929.5 M 34662 72929.5 34662.2 72921.8 34662.8 72914.2 34663.7 72906.5 34665 72898.9 34666.7 72891.4 34668.7 72884 34671.2 72876.7 34673.9 72869.6 34677 72862.5 34680.5 72855.7 34684.3 72849 34688.4 72842.5 34692.8 72836.2 34697.5 72830.2 34702.6 72824.3 34707.9 72818.8 34713.4 72813.5 34719.3 72808.4 34725.3 72803.7 34731.6 72799.3 34738.1 72795.2 34744.8 72791.4 34751.6 72787.9 34758.7 72784.8 34765.8 72782.1 34773.1 72779.6 34780.5 72777.6 34788 72775.9 34795.6 72774.6 34803.3 72773.7 34810.9 72773.1 34818.6 72772.9 M 34818.6 72772.8 35027.4 72772.8 M 34221.6 73086.1 34221.6 73712.6 33960.6 73712.6 33952.9 73712.4 33945.3 73711.8 33937.6 73710.9 33930 73709.6 33922.6 73707.9 33915.1 73705.9 33907.8 73703.4 33900.7 73700.7 33893.6 73697.6 33886.8 73694.1 33880.1 73690.3 33873.6 73686.2 33867.3 73681.8 33861.3 73677.1 33855.4 73672 33849.9 73666.7 33844.6 73661.2 33839.5 73655.3 33834.8 73649.3 33830.4 73643 33826.3 73636.5 33822.5 73629.8 33819 73623 33815.9 73615.9 33813.2 73608.8 33810.7 73601.5 33808.7 73594.1 33807 73586.6 33805.7 73579 33804.8 73571.4 33804.2 73563.7 33804 73556 M 33803.9 73556 33803.9 73086.1 M 33242 73086.1 32981 73086.1 M 33242 73086.1 33249.7 73086.3 33257.3 73086.9 33265 73087.8 33272.6 73089.1 33280.1 73090.8 33287.5 73092.8 33294.8 73095.3 33301.9 73098 33309 73101.1 33315.8 73104.6 33322.5 73108.4 33329 73112.5 33335.3 73116.9 33341.3 73121.6 33347.2 73126.7 33352.7 73132 33358 73137.5 33363.1 73143.4 33367.8 73149.4 33372.2 73155.7 33376.3 73162.2 33380.1 73168.9 33383.6 73175.7 33386.7 73182.8 33389.4 73189.9 33391.9 73197.2 33393.9 73204.6 33395.6 73212.1 33396.9 73219.7 33397.8 73227.4 33398.4 73235 33398.6 73242.7 M 33398.7 73242.7 33398.7 73503.8 M 33398.6 73503.8 33398.4 73512.8 33397.8 73521.7 33396.9 73530.7 33395.5 73539.6 33393.8 73548.4 33391.7 73557.1 33389.2 73565.8 33386.3 73574.3 33383.1 73582.7 33379.6 73590.9 33375.6 73599 33371.4 73606.9 33366.8 73614.6 33361.8 73622.1 33356.6 73629.4 33351 73636.5 33345.2 73643.3 33339 73649.8 33332.6 73656.1 33325.9 73662.1 33319 73667.8 33311.8 73673.2 33304.4 73678.3 33296.8 73683.1 33289 73687.5 33281 73691.6 33272.8 73695.4 33264.5 73698.8 33256 73701.8 33247.4 73704.5 33238.8 73706.8 33230 73708.7 33221.1 73710.2 33212.2 73711.4 33203.3 73712.2 33194.3 73712.6 33185.3 73712.6 33176.3 73712.2 33167.4 73711.4 33158.5 73710.2 33149.6 73708.7 33140.8 73706.8 33132.2 73704.5 33123.6 73701.8 33115.1 73698.8 33106.8 73695.4 33098.6 73691.6 33090.6 73687.5 33082.8 73683.1 33075.2 73678.3 33067.8 73673.2 33060.6 73667.8 33053.7 73662.1 33047 73656.1 33040.6 73649.8 33034.4 73643.3 33028.6 73636.5 33023 73629.4 33017.8 73622.1 33012.8 73614.6 33008.2 73606.9 33004 73599 33000 73590.9 32996.5 73582.7 32993.3 73574.3 32990.4 73565.8 32987.9 73557.1 32985.8 73548.4 32984.1 73539.6 32982.7 73530.7 32981.8 73521.7 32981.2 73512.8 32981 73503.8 32981 73399.4 33398.7 73399.4 M 32193.1 73086.1 32193.1 74025.9 M 32193.1 73086.1 32454.1 73086.1 32461.8 73086.3 32469.4 73086.9 32477.1 73087.8 32484.7 73089.1 32492.2 73090.8 32499.6 73092.8 32506.9 73095.3 32514 73098 32521.1 73101.1 32527.9 73104.6 32534.6 73108.4 32541.1 73112.5 32547.4 73116.9 32553.4 73121.6 32559.3 73126.7 32564.8 73132 32570.1 73137.5 32575.2 73143.4 32579.9 73149.4 32584.3 73155.7 32588.4 73162.2 32592.2 73168.9 32595.7 73175.7 32598.8 73182.8 32601.5 73189.9 32604 73197.2 32606 73204.6 32607.7 73212.1 32609 73219.7 32609.9 73227.4 32610.5 73235 32610.7 73242.7 M 32610.8 73242.7 32610.8 73556 M 32610.7 73556 32610.5 73563.7 32609.9 73571.3 32609 73579 32607.7 73586.6 32606 73594.1 32604 73601.5 32601.5 73608.8 32598.8 73615.9 32595.7 73623 32592.2 73629.8 32588.4 73636.5 32584.3 73643 32579.9 73649.3 32575.2 73655.3 32570.1 73661.2 32564.8 73666.7 32559.3 73672 32553.4 73677.1 32547.4 73681.8 32541.1 73686.2 32534.6 73690.3 32527.9 73694.1 32521.1 73697.6 32514 73700.7 32506.9 73703.4 32499.6 73705.9 32492.2 73707.9 32484.7 73709.6 32477.1 73710.9 32469.4 73711.8 32461.8 73712.4 32454.1 73712.6 32193.1 73712.6 M 31260.5 74025.9 31260.5 73086.1 30999.5 73086.1 30991.8 73086.3 30984.2 73086.9 30976.5 73087.8 30968.9 73089.1 30961.5 73090.8 30954 73092.8 30946.7 73095.3 30939.6 73098 30932.5 73101.1 30925.7 73104.6 30919 73108.4 30912.5 73112.5 30906.2 73116.9 30900.2 73121.6 30894.3 73126.7 30888.8 73132 30883.5 73137.5 30878.4 73143.4 30873.7 73149.4 30869.3 73155.7 30865.2 73162.2 30861.4 73168.9 30857.9 73175.7 30854.8 73182.8 30852.1 73189.9 30849.6 73197.2 30847.6 73204.6 30845.9 73212.1 30844.6 73219.7 30843.7 73227.3 30843.1 73235 30842.9 73242.7 M 30842.8 73242.7 30842.8 73556 M 30842.9 73556 30843.1 73563.7 30843.7 73571.3 30844.6 73579 30845.9 73586.6 30847.6 73594.1 30849.6 73601.5 30852.1 73608.8 30854.8 73615.9 30857.9 73623 30861.4 73629.8 30865.2 73636.5 30869.3 73643 30873.7 73649.3 30878.4 73655.3 30883.5 73661.2 30888.8 73666.7 30894.3 73672 30900.2 73677.1 30906.2 73681.8 30912.5 73686.2 30919 73690.3 30925.7 73694.1 30932.5 73697.6 30939.6 73700.7 30946.7 73703.4 30954 73705.9 30961.5 73707.9 30969 73709.6 30976.5 73710.9 30984.2 73711.8 30991.8 73712.4 30999.5 73712.6 31260.5 73712.6 M 30503.1 72772.8 30398.7 72772.8 30085.4 73712.6 M 30503.1 73712.6 30294.3 73086.1 M 29741.2 73164.4 29741.2 73216.6 29689 73216.6 29689 73164.4 29741.2 73164.4 M 29741.2 73582.1 29741.2 73634.3 29689 73634.3 29689 73582.1 29741.2 73582.1 M 37648.6 72501.9 37961.9 71562.1 M 37335.4 71562.1 37648.6 72501.9 M 37413.7 71797.1 37883.6 71797.1 M 36991.5 71718.7 36991.5 72501.9 M 36991.5 71718.7 36991.3 71711 36990.7 71703.4 36989.8 71695.7 36988.5 71688.1 36986.8 71680.6 36984.8 71673.2 36982.3 71665.9 36979.6 71658.8 36976.5 71651.7 36973 71644.9 36969.2 71638.2 36965.1 71631.7 36960.7 71625.4 36956 71619.4 36950.9 71613.5 36945.6 71608 36940.1 71602.7 36934.2 71597.6 36928.2 71592.9 36921.9 71588.5 36915.4 71584.4 36908.7 71580.6 36901.9 71577.1 36894.8 71574 36887.7 71571.3 36880.4 71568.8 36873 71566.8 36865.5 71565.1 36857.9 71563.8 36850.2 71562.9 36842.6 71562.3 36834.9 71562.1 M 36359.7 71562.1 36098.7 71562.1 M 36359.7 71562.1 36367.4 71562.3 36375 71562.9 36382.7 71563.8 36390.3 71565.1 36397.8 71566.8 36405.2 71568.8 36412.5 71571.3 36419.6 71574 36426.7 71577.1 36433.5 71580.6 36440.2 71584.4 36446.7 71588.5 36453 71592.9 36459 71597.6 36464.9 71602.7 36470.4 71608 36475.7 71613.5 36480.8 71619.4 36485.5 71625.4 36489.9 71631.7 36494 71638.2 36497.8 71644.9 36501.3 71651.7 36504.4 71658.8 36507.1 71665.9 36509.6 71673.2 36511.6 71680.6 36513.3 71688.1 36514.6 71695.7 36515.5 71703.4 36516.1 71711 36516.3 71718.7 M 36516.4 71718.7 36516.4 71979.8 M 36516.3 71979.8 36516.1 71988.8 36515.5 71997.7 36514.6 72006.7 36513.2 72015.6 36511.5 72024.4 36509.4 72033.1 36506.9 72041.8 36504 72050.3 36500.8 72058.7 36497.3 72066.9 36493.3 72075 36489.1 72082.9 36484.5 72090.6 36479.5 72098.1 36474.3 72105.4 36468.7 72112.5 36462.9 72119.3 36456.7 72125.8 36450.3 72132.1 36443.6 72138.1 36436.7 72143.8 36429.5 72149.2 36422.1 72154.3 36414.5 72159.1 36406.7 72163.5 36398.7 72167.6 36390.5 72171.4 36382.2 72174.8 36373.7 72177.8 36365.1 72180.5 36356.5 72182.8 36347.7 72184.7 36338.8 72186.2 36329.9 72187.4 36321 72188.2 36312 72188.6 36303 72188.6 36294 72188.2 36285.1 72187.4 36276.2 72186.2 36267.3 72184.7 36258.5 72182.8 36249.9 72180.5 36241.3 72177.8 36232.8 72174.8 36224.5 72171.4 36216.3 72167.6 36208.3 72163.5 36200.5 72159.1 36192.9 72154.3 36185.5 72149.2 36178.3 72143.8 36171.4 72138.1 36164.7 72132.1 36158.3 72125.8 36152.1 72119.3 36146.3 72112.5 36140.7 72105.4 36135.5 72098.1 36130.5 72090.6 36125.9 72082.9 36121.7 72075 36117.7 72066.9 36114.2 72058.7 36111 72050.3 36108.1 72041.8 36105.6 72033.1 36103.5 72024.4 36101.8 72015.6 36100.4 72006.7 36099.5 71997.7 36098.9 71988.8 36098.7 71979.8 36098.7 71875.4 36516.4 71875.4 M 35754.4 71562.1 35336.7 72188.6 M 35754.4 72188.6 35336.7 71562.1 M 34459.8 71562.1 34459.8 72501.9 34198.7 72501.9 34188.6 72501.7 34178.5 72501.1 34168.4 72500.1 34158.4 72498.8 34148.4 72497 34138.5 72494.9 34128.7 72492.3 34119 72489.4 34109.4 72486.2 34100 72482.5 34090.7 72478.5 34081.5 72474.1 34072.6 72469.4 34063.8 72464.3 34055.2 72458.9 34046.9 72453.2 34038.7 72447.2 34030.9 72440.8 34023.2 72434.2 34015.9 72427.2 34008.8 72420 34002 72412.5 33995.5 72404.7 33989.3 72396.7 33983.4 72388.5 33977.8 72380 33972.6 72371.4 33967.7 72362.5 33963.1 72353.4 33959 72344.2 33955.1 72334.8 33951.7 72325.3 33948.6 72315.7 33945.9 72305.9 33943.5 72296.1 33941.6 72286.1 33940 72276.1 33938.8 72266.1 33938 72256 33937.6 72245.9 33937.6 72235.7 33938 72225.6 33938.8 72215.5 33940 72205.5 33941.6 72195.5 33943.5 72185.5 33945.9 72175.7 33948.6 72165.9 33951.7 72156.3 33955.1 72146.8 33959 72137.4 33963.1 72128.2 33967.7 72119.1 33972.6 72110.3 33977.8 72101.6 33983.4 72093.1 33989.3 72084.9 33995.5 72076.9 34002 72069.1 34008.8 72061.6 34015.9 72054.4 34023.2 72047.4 34030.9 72040.8 34038.7 72034.4 34046.9 72028.4 34055.2 72022.7 34063.8 72017.3 34072.6 72012.2 34081.5 72007.5 34090.7 72003.1 34100 71999.1 34109.4 71995.4 34119 71992.2 34128.7 71989.3 34138.5 71986.7 34148.4 71984.6 34158.4 71982.8 34168.4 71981.5 34178.5 71980.5 34188.6 71979.9 34198.7 71979.7 M 34198.7 71979.8 34459.8 71979.8 M 34146.5 71979.8 33937.7 71562.1 M 33559.8 71770.9 33559.8 71979.8 33559.6 71988.8 33559 71997.7 33558.1 72006.7 33556.7 72015.6 33555 72024.4 33552.9 72033.1 33550.4 72041.8 33547.5 72050.3 33544.3 72058.7 33540.8 72066.9 33536.8 72075 33532.6 72082.9 33528 72090.6 33523 72098.1 33517.8 72105.4 33512.2 72112.5 33506.4 72119.3 33500.2 72125.8 33493.8 72132.1 33487.1 72138.1 33480.2 72143.8 33473 72149.2 33465.6 72154.3 33458 72159.1 33450.2 72163.5 33442.2 72167.6 33434 72171.4 33425.7 72174.8 33417.2 72177.8 33408.6 72180.5 33400 72182.8 33391.2 72184.7 33382.3 72186.2 33373.4 72187.4 33364.5 72188.2 33355.5 72188.6 33346.5 72188.6 33337.5 72188.2 33328.6 72187.4 33319.7 72186.2 33310.8 72184.7 33302 72182.8 33293.4 72180.5 33284.8 72177.8 33276.3 72174.8 33268 72171.4 33259.8 72167.6 33251.8 72163.5 33244 72159.1 33236.4 72154.3 33229 72149.2 33221.8 72143.8 33214.9 72138.1 33208.2 72132.1 33201.8 72125.8 33195.6 72119.3 33189.8 72112.5 33184.2 72105.4 33179 72098.1 33174 72090.6 33169.4 72082.9 33165.2 72075 33161.2 72066.9 33157.7 72058.7 33154.5 72050.3 33151.6 72041.8 33149.1 72033.1 33147 72024.4 33145.3 72015.6 33143.9 72006.7 33143 71997.7 33142.4 71988.8 33142.2 71979.8 M 33142.1 71979.8 33142.1 71770.9 M 33142.2 71770.9 33142.4 71761.9 33143 71753 33143.9 71744 33145.3 71735.1 33147 71726.3 33149.1 71717.6 33151.6 71708.9 33154.5 71700.4 33157.7 71692 33161.2 71683.8 33165.2 71675.7 33169.4 71667.8 33174 71660.1 33179 71652.6 33184.2 71645.3 33189.8 71638.2 33195.6 71631.4 33201.8 71624.9 33208.2 71618.6 33214.9 71612.6 33221.8 71606.9 33229 71601.5 33236.4 71596.4 33244 71591.6 33251.8 71587.2 33259.8 71583.1 33268 71579.3 33276.3 71575.9 33284.8 71572.9 33293.4 71570.2 33302 71567.9 33310.8 71566 33319.7 71564.5 33328.6 71563.3 33337.5 71562.5 33346.5 71562.1 33355.5 71562.1 33364.5 71562.5 33373.4 71563.3 33382.3 71564.5 33391.2 71566 33400 71567.9 33408.6 71570.2 33417.2 71572.9 33425.7 71575.9 33434 71579.3 33442.2 71583.1 33450.2 71587.2 33458 71591.6 33465.6 71596.4 33473 71601.5 33480.2 71606.9 33487.1 71612.6 33493.8 71618.6 33500.2 71624.9 33506.4 71631.4 33512.2 71638.2 33517.8 71645.3 33523 71652.6 33528 71660.1 33532.6 71667.8 33536.8 71675.7 33540.8 71683.8 33544.3 71692 33547.5 71700.4 33550.4 71708.9 33552.9 71717.6 33555 71726.3 33556.7 71735.1 33558.1 71744 33559 71753 33559.6 71761.9 33559.8 71770.9 M 32719.4 71562.1 32719.4 72188.6 32249.5 72188.6 32241.8 72188.4 32234.2 72187.8 32226.5 72186.9 32218.9 72185.6 32211.4 72183.9 32204 72181.9 32196.7 72179.4 32189.6 72176.7 32182.5 72173.6 32175.7 72170.1 32169 72166.3 32162.5 72162.2 32156.2 72157.8 32150.2 72153.1 32144.3 72148 32138.8 72142.7 32133.5 72137.2 32128.4 72131.3 32123.7 72125.3 32119.3 72119 32115.2 72112.5 32111.4 72105.8 32107.9 72099 32104.8 72091.9 32102.1 72084.8 32099.6 72077.5 32097.6 72070.1 32095.9 72062.6 32094.6 72055 32093.7 72047.3 32093.1 72039.7 32092.9 72032 M 32092.8 72032 32092.8 71562.1 M 32406.1 71562.1 32406.1 72188.6 M 31513.5 71562.1 31252.4 71562.1 M 31513.5 71562.1 31521.2 71562.3 31528.8 71562.9 31536.5 71563.8 31544.1 71565.1 31551.6 71566.8 31559 71568.8 31566.3 71571.3 31573.4 71574 31580.5 71577.1 31587.3 71580.6 31594 71584.4 31600.5 71588.5 31606.8 71592.9 31612.8 71597.6 31618.7 71602.7 31624.2 71608 31629.5 71613.5 31634.6 71619.4 31639.3 71625.4 31643.7 71631.7 31647.8 71638.2 31651.6 71644.9 31655.1 71651.7 31658.2 71658.8 31660.9 71665.9 31663.4 71673.2 31665.4 71680.6 31667.1 71688.1 31668.4 71695.7 31669.3 71703.4 31669.9 71711 31670.1 71718.7 31670.1 71979.8 M 31670 71979.8 31669.8 71988.8 31669.2 71997.7 31668.3 72006.7 31666.9 72015.6 31665.2 72024.4 31663.1 72033.1 31660.6 72041.8 31657.7 72050.3 31654.5 72058.7 31651 72066.9 31647 72075 31642.8 72082.9 31638.2 72090.6 31633.2 72098.1 31628 72105.4 31622.4 72112.5 31616.6 72119.3 31610.4 72125.8 31604 72132.1 31597.3 72138.1 31590.4 72143.8 31583.2 72149.2 31575.8 72154.3 31568.2 72159.1 31560.4 72163.5 31552.4 72167.6 31544.2 72171.4 31535.9 72174.8 31527.4 72177.8 31518.8 72180.5 31510.2 72182.8 31501.4 72184.7 31492.5 72186.2 31483.6 72187.4 31474.7 72188.2 31465.7 72188.6 31456.7 72188.6 31447.7 72188.2 31438.8 72187.4 31429.9 72186.2 31421 72184.7 31412.2 72182.8 31403.6 72180.5 31395 72177.8 31386.5 72174.8 31378.2 72171.4 31370 72167.6 31362 72163.5 31354.2 72159.1 31346.6 72154.3 31339.2 72149.2 31332 72143.8 31325.1 72138.1 31318.4 72132.1 31312 72125.8 31305.8 72119.3 31300 72112.5 31294.4 72105.4 31289.2 72098.1 31284.2 72090.6 31279.6 72082.9 31275.4 72075 31271.4 72066.9 31267.9 72058.7 31264.7 72050.3 31261.8 72041.8 31259.3 72033.1 31257.2 72024.4 31255.5 72015.6 31254.1 72006.7 31253.2 71997.7 31252.6 71988.8 31252.4 71979.8 31252.4 71875.4 31670.1 71875.4 M 30842 71562.1 30842 72188.6 30528.7 72188.6 30528.7 72084.2 M 30237.5 71979.8 30237.5 71770.9 M 30237.5 71979.8 30237.3 71988.8 30236.7 71997.7 30235.8 72006.7 30234.4 72015.6 30232.7 72024.4 30230.6 72033.1 30228.1 72041.8 30225.2 72050.3 30222 72058.7 30218.5 72066.9 30214.5 72075 30210.3 72082.9 30205.7 72090.6 30200.7 72098.1 30195.5 72105.4 30189.9 72112.5 30184.1 72119.3 30177.9 72125.8 30171.5 72132.1 30164.8 72138.1 30157.9 72143.8 30150.7 72149.2 30143.3 72154.3 30135.7 72159.1 30127.9 72163.5 30119.9 72167.6 30111.7 72171.4 30103.4 72174.8 30094.9 72177.8 30086.3 72180.5 30077.7 72182.8 30068.9 72184.7 30060 72186.2 30051.1 72187.4 30042.2 72188.2 30033.2 72188.6 30024.2 72188.6 30015.2 72188.2 30006.3 72187.4 29997.4 72186.2 29988.5 72184.7 29979.7 72182.8 29971.1 72180.5 29962.5 72177.8 29954 72174.8 29945.7 72171.4 29937.5 72167.6 29929.5 72163.5 29921.7 72159.1 29914.1 72154.3 29906.7 72149.2 29899.5 72143.8 29892.6 72138.1 29885.9 72132.1 29879.5 72125.8 29873.3 72119.3 29867.5 72112.5 29861.9 72105.4 29856.7 72098.1 29851.7 72090.6 29847.1 72082.9 29842.9 72075 29838.9 72066.9 29835.4 72058.7 29832.2 72050.3 29829.3 72041.8 29826.8 72033.1 29824.7 72024.4 29823 72015.6 29821.6 72006.7 29820.7 71997.7 29820.1 71988.8 29819.9 71979.8 M 29819.8 71979.8 29819.8 71770.9 M 29819.9 71770.9 29820.1 71761.9 29820.7 71753 29821.6 71744 29823 71735.1 29824.7 71726.3 29826.8 71717.6 29829.3 71708.9 29832.2 71700.4 29835.4 71692 29838.9 71683.8 29842.9 71675.7 29847.1 71667.8 29851.7 71660.1 29856.7 71652.6 29861.9 71645.3 29867.5 71638.2 29873.3 71631.4 29879.5 71624.9 29885.9 71618.6 29892.6 71612.6 29899.5 71606.9 29906.7 71601.5 29914.1 71596.4 29921.7 71591.6 29929.5 71587.2 29937.5 71583.1 29945.7 71579.3 29954 71575.9 29962.5 71572.9 29971.1 71570.2 29979.7 71567.9 29988.5 71566 29997.4 71564.5 30006.3 71563.3 30015.2 71562.5 30024.2 71562.1 30033.2 71562.1 30042.2 71562.5 30051.1 71563.3 30060 71564.5 30068.9 71566 30077.7 71567.9 30086.3 71570.2 30094.9 71572.9 30103.4 71575.9 30111.7 71579.3 30119.9 71583.1 30127.9 71587.2 30135.7 71591.6 30143.3 71596.4 30150.7 71601.5 30157.9 71606.9 30164.8 71612.6 30171.5 71618.6 30177.9 71624.9 30184.1 71631.4 30189.9 71638.2 30195.5 71645.3 30200.7 71652.6 30205.7 71660.1 30210.3 71667.8 30214.5 71675.7 30218.5 71683.8 30222 71692 30225.2 71700.4 30228.1 71708.9 30230.6 71717.6 30232.7 71726.3 30234.4 71735.1 30235.8 71744 30236.7 71753 30237.3 71761.9 30237.5 71770.9 M 37961.9 70977.9 37961.9 70038.1 M 37648.6 70455.8 37961.9 70977.9 M 37648.6 70455.8 37335.4 70977.9 37335.4 70038.1 M 36917.1 70038.1 36917.1 70664.6 M 36943.2 70925.7 36943.2 70977.9 36891 70977.9 36891 70925.7 36943.2 70925.7 M 36389.2 70038.1 36180.3 70038.1 M 36389.2 70038.1 36396.9 70038.3 36404.5 70038.9 36412.2 70039.8 36419.8 70041.1 36427.3 70042.8 36434.7 70044.8 36442 70047.3 36449.1 70050 36456.2 70053.1 36463 70056.6 36469.7 70060.4 36476.2 70064.5 36482.5 70068.9 36488.5 70073.6 36494.4 70078.7 36499.9 70084 36505.2 70089.5 36510.3 70095.4 36515 70101.4 36519.4 70107.7 36523.5 70114.2 36527.3 70120.9 36530.8 70127.7 36533.9 70134.8 36536.6 70141.9 36539.1 70149.2 36541.1 70156.6 36542.8 70164.1 36544.1 70171.7 36545 70179.4 36545.6 70187 36545.8 70194.7 36545.8 70508 36545.6 70515.7 36545 70523.3 36544.1 70531 36542.8 70538.6 36541.1 70546.1 36539.1 70553.5 36536.6 70560.8 36533.9 70567.9 36530.8 70575 36527.3 70581.8 36523.5 70588.5 36519.4 70595 36515 70601.3 36510.3 70607.3 36505.2 70613.2 36499.9 70618.7 36494.4 70624 36488.5 70629.1 36482.5 70633.8 36476.2 70638.2 36469.7 70642.3 36463 70646.1 36456.2 70649.6 36449.1 70652.7 36442 70655.4 36434.7 70657.9 36427.3 70659.9 36419.8 70661.6 36412.2 70662.9 36404.5 70663.8 36396.9 70664.4 36389.2 70664.6 36180.3 70664.6 M 35815.3 70977.9 35815.3 70038.1 M 35815.3 70664.6 35554.3 70664.6 35546.6 70664.4 35539 70663.8 35531.3 70662.9 35523.7 70661.6 35516.3 70659.9 35508.8 70657.9 35501.5 70655.4 35494.4 70652.7 35487.3 70649.6 35480.5 70646.1 35473.8 70642.3 35467.3 70638.2 35461 70633.8 35455 70629.1 35449.1 70624 35443.6 70618.7 35438.3 70613.2 35433.2 70607.3 35428.5 70601.3 35424.1 70595 35420 70588.5 35416.2 70581.8 35412.7 70575 35409.6 70567.9 35406.9 70560.8 35404.4 70553.5 35402.4 70546.1 35400.7 70538.6 35399.4 70531 35398.5 70523.4 35397.9 70515.7 35397.7 70508 M 35397.6 70508 35397.6 70038.1 M 34814.2 70403.6 34579.2 70403.6 M 34814.2 70403.5 34822.6 70403.3 34831.1 70402.7 34839.4 70401.7 34847.8 70400.4 34856 70398.6 34864.2 70396.5 34872.3 70394 34880.2 70391.2 34888 70387.9 34895.6 70384.3 34903.1 70380.4 34910.4 70376.1 34917.5 70371.5 34924.3 70366.6 34930.9 70361.4 34937.3 70355.8 34943.4 70350 34949.2 70343.9 34954.8 70337.5 34960 70330.9 34964.9 70324.1 34969.5 70317 34973.8 70309.7 34977.7 70302.2 34981.3 70294.6 34984.6 70286.8 34987.4 70278.9 34989.9 70270.8 34992 70262.6 34993.8 70254.4 34995.1 70246 34996.1 70237.7 34996.7 70229.2 34996.9 70220.8 34996.7 70212.4 34996.1 70203.9 34995.1 70195.6 34993.8 70187.2 34992 70179 34989.9 70170.8 34987.4 70162.7 34984.6 70154.8 34981.3 70147 34977.7 70139.4 34973.8 70131.9 34969.5 70124.6 34964.9 70117.5 34960 70110.7 34954.8 70104.1 34949.2 70097.7 34943.4 70091.6 34937.3 70085.8 34930.9 70080.2 34924.3 70075 34917.5 70070.1 34910.4 70065.5 34903.1 70061.2 34895.6 70057.3 34888 70053.7 34880.2 70050.4 34872.3 70047.6 34864.2 70045.1 34856 70043 34847.8 70041.2 34839.4 70039.9 34831.1 70038.9 34822.6 70038.3 34814.2 70038.1 34579.2 70038.1 34579.2 70508 M 34579.3 70508 34579.5 70515.7 34580.1 70523.3 34581 70531 34582.3 70538.6 34584 70546.1 34586 70553.5 34588.5 70560.8 34591.2 70567.9 34594.3 70575 34597.8 70581.8 34601.6 70588.5 34605.7 70595 34610.1 70601.3 34614.8 70607.3 34619.9 70613.2 34625.2 70618.7 34630.7 70624 34636.6 70629.1 34642.6 70633.8 34648.9 70638.2 34655.4 70642.3 34662.1 70646.1 34668.9 70649.6 34676 70652.7 34683.1 70655.4 34690.4 70657.9 34697.9 70659.9 34705.4 70661.6 34712.9 70662.9 34720.6 70663.8 34728.2 70664.4 34735.9 70664.6 34944.7 70664.6 M 34012.8 70038.1 33751.7 70038.1 M 34012.8 70038.1 34020.5 70038.3 34028.1 70038.9 34035.8 70039.8 34043.4 70041.1 34050.9 70042.8 34058.3 70044.8 34065.6 70047.3 34072.7 70050 34079.8 70053.1 34086.6 70056.6 34093.3 70060.4 34099.8 70064.5 34106.1 70068.9 34112.1 70073.6 34118 70078.7 34123.5 70084 34128.8 70089.5 34133.9 70095.4 34138.6 70101.4 34143 70107.7 34147.1 70114.2 34150.9 70120.9 34154.4 70127.7 34157.5 70134.8 34160.2 70141.9 34162.7 70149.2 34164.7 70156.6 34166.4 70164.1 34167.7 70171.7 34168.6 70179.4 34169.2 70187 34169.4 70194.7 34169.4 70455.8 34169.2 70464.8 34168.6 70473.7 34167.7 70482.7 34166.3 70491.6 34164.6 70500.4 34162.5 70509.1 34160 70517.8 34157.1 70526.3 34153.9 70534.7 34150.4 70542.9 34146.4 70551 34142.2 70558.9 34137.6 70566.6 34132.6 70574.1 34127.4 70581.4 34121.8 70588.5 34116 70595.3 34109.8 70601.8 34103.4 70608.1 34096.7 70614.1 34089.8 70619.8 34082.6 70625.2 34075.2 70630.3 34067.6 70635.1 34059.8 70639.5 34051.8 70643.6 34043.6 70647.4 34035.3 70650.8 34026.8 70653.8 34018.2 70656.5 34009.6 70658.8 34000.8 70660.7 33991.9 70662.2 33983 70663.4 33974.1 70664.2 33965.1 70664.6 33956.1 70664.6 33947.1 70664.2 33938.2 70663.4 33929.3 70662.2 33920.4 70660.7 33911.6 70658.8 33903 70656.5 33894.4 70653.8 33885.9 70650.8 33877.6 70647.4 33869.4 70643.6 33861.4 70639.5 33853.6 70635.1 33846 70630.3 33838.6 70625.2 33831.4 70619.8 33824.5 70614.1 33817.8 70608.1 33811.4 70601.8 33805.2 70595.3 33799.4 70588.5 33793.8 70581.4 33788.6 70574.1 33783.6 70566.6 33779 70558.9 33774.8 70551 33770.8 70542.9 33767.3 70534.7 33764.1 70526.3 33761.2 70517.8 33758.7 70509.1 33756.6 70500.4 33754.9 70491.6 33753.5 70482.7 33752.6 70473.7 33752 70464.8 33751.8 70455.8 M 33751.7 70455.8 33751.7 70351.4 34169.4 70351.4 M 33364.4 70194.7 33364.4 70977.9 M 33364.4 70194.7 33364.2 70187 33363.6 70179.4 33362.7 70171.7 33361.4 70164.1 33359.7 70156.6 33357.7 70149.2 33355.2 70141.9 33352.5 70134.8 33349.4 70127.7 33345.9 70120.9 33342.1 70114.2 33338 70107.7 33333.6 70101.4 33328.9 70095.4 33323.8 70089.5 33318.5 70084 33313 70078.7 33307.1 70073.6 33301.1 70068.9 33294.8 70064.5 33288.3 70060.4 33281.6 70056.6 33274.8 70053.1 33267.7 70050 33260.6 70047.3 33253.3 70044.8 33245.9 70042.8 33238.4 70041.1 33230.8 70039.8 33223.1 70038.9 33215.5 70038.3 33207.8 70038.1 M 32349.2 70560.2 32088.2 70560.2 M 32088.2 70560.3 32078.1 70560.1 32068 70559.5 32057.9 70558.5 32047.9 70557.2 32037.9 70555.4 32028 70553.3 32018.2 70550.7 32008.5 70547.8 31998.9 70544.6 31989.5 70540.9 31980.2 70536.9 31971 70532.5 31962.1 70527.8 31953.3 70522.7 31944.7 70517.3 31936.4 70511.6 31928.2 70505.6 31920.4 70499.2 31912.7 70492.6 31905.4 70485.6 31898.3 70478.4 31891.5 70470.9 31885 70463.1 31878.8 70455.1 31872.9 70446.9 31867.3 70438.4 31862.1 70429.8 31857.2 70420.9 31852.6 70411.8 31848.5 70402.6 31844.6 70393.2 31841.2 70383.7 31838.1 70374.1 31835.4 70364.3 31833 70354.5 31831.1 70344.5 31829.5 70334.5 31828.3 70324.5 31827.5 70314.4 31827.1 70304.3 31827.1 70294.1 31827.5 70284 31828.3 70273.9 31829.5 70263.9 31831.1 70253.9 31833 70243.9 31835.4 70234.1 31838.1 70224.3 31841.2 70214.7 31844.6 70205.2 31848.5 70195.8 31852.6 70186.6 31857.2 70177.5 31862.1 70168.7 31867.3 70160 31872.9 70151.5 31878.8 70143.3 31885 70135.3 31891.5 70127.5 31898.3 70120 31905.4 70112.8 31912.7 70105.8 31920.4 70099.2 31928.2 70092.8 31936.4 70086.8 31944.7 70081.1 31953.3 70075.7 31962.1 70070.6 31971 70065.9 31980.2 70061.5 31989.5 70057.5 31998.9 70053.8 32008.5 70050.6 32018.2 70047.7 32028 70045.1 32037.9 70043 32047.9 70041.2 32057.9 70039.9 32068 70038.9 32078.1 70038.3 32088.2 70038.1 32349.2 70038.1 32349.2 70977.9 32088.2 70977.9 32079.2 70977.7 32070.3 70977.1 32061.3 70976.2 32052.4 70974.8 32043.6 70973.1 32034.9 70971 32026.2 70968.5 32017.7 70965.6 32009.3 70962.4 32001.1 70958.9 31993 70954.9 31985.1 70950.7 31977.4 70946.1 31969.9 70941.1 31962.6 70935.9 31955.5 70930.3 31948.7 70924.5 31942.2 70918.3 31935.9 70911.9 31929.9 70905.2 31924.2 70898.3 31918.8 70891.1 31913.7 70883.7 31908.9 70876.1 31904.5 70868.3 31900.4 70860.3 31896.6 70852.1 31893.2 70843.8 31890.2 70835.3 31887.5 70826.7 31885.2 70818.1 31883.3 70809.3 31881.8 70800.4 31880.6 70791.5 31879.8 70782.6 31879.4 70773.6 31879.4 70764.6 31879.8 70755.6 31880.6 70746.7 31881.8 70737.8 31883.3 70728.9 31885.2 70720.1 31887.5 70711.5 31890.2 70702.9 31893.2 70694.4 31896.6 70686.1 31900.4 70677.9 31904.5 70669.9 31908.9 70662.1 31913.7 70654.5 31918.8 70647.1 31924.2 70639.9 31929.9 70633 31935.9 70626.3 31942.2 70619.9 31948.7 70613.7 31955.5 70607.9 31962.6 70602.3 31969.9 70597.1 31977.4 70592.1 31985.1 70587.5 31993 70583.3 32001.1 70579.3 32009.3 70575.8 32017.7 70572.6 32026.2 70569.7 32034.9 70567.2 32043.6 70565.1 32052.4 70563.4 32061.3 70562 32070.3 70561.1 32079.2 70560.5 32088.2 70560.3 M 31517.7 69724.8 31413.3 69724.8 31100 70664.6 M 31517.7 70664.6 31308.8 70038.1 M 30599.1 70038.1 30338 70038.1 M 30599.1 70038.1 30606.8 70038.3 30614.4 70038.9 30622.1 70039.8 30629.7 70041.1 30637.2 70042.8 30644.6 70044.8 30651.9 70047.3 30659 70050 30666.1 70053.1 30672.9 70056.6 30679.6 70060.4 30686.1 70064.5 30692.4 70068.9 30698.4 70073.6 30704.3 70078.7 30709.8 70084 30715.1 70089.5 30720.2 70095.4 30724.9 70101.4 30729.3 70107.7 30733.4 70114.2 30737.2 70120.9 30740.7 70127.7 30743.8 70134.8 30746.5 70141.9 30749 70149.2 30751 70156.6 30752.7 70164.1 30754 70171.7 30754.9 70179.4 30755.5 70187 30755.7 70194.7 30755.7 70455.8 M 30755.6 70455.8 30755.4 70464.8 30754.8 70473.7 30753.9 70482.7 30752.5 70491.6 30750.8 70500.4 30748.7 70509.1 30746.2 70517.8 30743.3 70526.3 30740.1 70534.7 30736.6 70542.9 30732.6 70551 30728.4 70558.9 30723.8 70566.6 30718.8 70574.1 30713.6 70581.4 30708 70588.5 30702.2 70595.3 30696 70601.8 30689.6 70608.1 30682.9 70614.1 30676 70619.8 30668.8 70625.2 30661.4 70630.3 30653.8 70635.1 30646 70639.5 30638 70643.6 30629.8 70647.4 30621.5 70650.8 30613 70653.8 30604.4 70656.5 30595.8 70658.8 30587 70660.7 30578.1 70662.2 30569.2 70663.4 30560.3 70664.2 30551.3 70664.6 30542.3 70664.6 30533.3 70664.2 30524.4 70663.4 30515.5 70662.2 30506.6 70660.7 30497.8 70658.8 30489.2 70656.5 30480.6 70653.8 30472.1 70650.8 30463.8 70647.4 30455.6 70643.6 30447.6 70639.5 30439.8 70635.1 30432.2 70630.3 30424.8 70625.2 30417.6 70619.8 30410.7 70614.1 30404 70608.1 30397.6 70601.8 30391.4 70595.3 30385.6 70588.5 30380 70581.4 30374.8 70574.1 30369.8 70566.6 30365.2 70558.9 30361 70551 30357 70542.9 30353.5 70534.7 30350.3 70526.3 30347.4 70517.8 30344.9 70509.1 30342.8 70500.4 30341.1 70491.6 30339.7 70482.7 30338.8 70473.7 30338.2 70464.8 30338 70455.8 30338 70351.4 30755.7 70351.4 M 29927.6 70038.1 29927.6 70664.6 29614.3 70664.6 29614.3 70560.2 M 29310.6 70194.7 29310.6 70977.9 M 29310.6 70194.7 29310.4 70187 29309.8 70179.4 29308.9 70171.7 29307.6 70164.1 29305.9 70156.6 29303.9 70149.2 29301.4 70141.9 29298.7 70134.8 29295.6 70127.7 29292.1 70120.9 29288.3 70114.2 29284.2 70107.7 29279.8 70101.4 29275.1 70095.4 29270 70089.5 29264.7 70084 29259.2 70078.7 29253.3 70073.6 29247.3 70068.9 29241 70064.5 29234.5 70060.4 29227.8 70056.6 29221 70053.1 29213.9 70050 29206.8 70047.3 29199.5 70044.8 29192.1 70042.8 29184.6 70041.1 29177 70039.8 29169.3 70038.9 29161.7 70038.3 29154 70038.1 M 28865.9 69724.8 28761.5 69724.8 28448.2 70664.6 M 28865.9 70664.6 28657.1 70038.1" fill="none" stroke-width="76.2"/></g><g id="jIgN2hPM9j9GVpJLrFrq_bottom_copper"><use xlink:href="#aYusHxtlNm48i0jdZ4Kn_pad-10" x="30555" y="80110"/><use xlink:href="#aYusHxtlNm48i0jdZ4Kn_pad-10" x="31825" y="82650"/><use xlink:href="#aYusHxtlNm48i0jdZ4Kn_pad-10" x="33095" y="80110"/><use xlink:href="#aYusHxtlNm48i0jdZ4Kn_pad-10" x="35635" y="80110"/><use xlink:href="#aYusHxtlNm48i0jdZ4Kn_pad-10" x="38175" y="80110"/><use xlink:href="#aYusHxtlNm48i0jdZ4Kn_pad-10" x="34365" y="82650"/><use xlink:href="#aYusHxtlNm48i0jdZ4Kn_pad-10" x="36905" y="82650"/><use xlink:href="#aYusHxtlNm48i0jdZ4Kn_pad-11" x="39445" y="82650"/><use xlink:href="#aYusHxtlNm48i0jdZ4Kn_pad-12" x="18000" y="74000"/><use xlink:href="#aYusHxtlNm48i0jdZ4Kn_pad-12" x="18000" y="76540"/><use xlink:href="#aYusHxtlNm48i0jdZ4Kn_pad-12" x="18000" y="79080"/><use xlink:href="#aYusHxtlNm48i0jdZ4Kn_pad-12" x="71000" y="74000"/><use xlink:href="#aYusHxtlNm48i0jdZ4Kn_pad-12" x="71000" y="76540"/><use xlink:href="#aYusHxtlNm48i0jdZ4Kn_pad-12" x="71000" y="79080"/><use xlink:href="#aYusHxtlNm48i0jdZ4Kn_pad-12" x="18000" y="83000"/><use xlink:href="#aYusHxtlNm48i0jdZ4Kn_pad-12" x="18000" y="85540"/><use xlink:href="#aYusHxtlNm48i0jdZ4Kn_pad-12" x="18000" y="88080"/><use xlink:href="#aYusHxtlNm48i0jdZ4Kn_pad-12" x="18000" y="90620"/><use xlink:href="#aYusHxtlNm48i0jdZ4Kn_pad-12" x="71000" y="83000"/><use xlink:href="#aYusHxtlNm48i0jdZ4Kn_pad-12" x="71000" y="85540"/><use xlink:href="#aYusHxtlNm48i0jdZ4Kn_pad-12" x="71000" y="88080"/><use xlink:href="#aYusHxtlNm48i0jdZ4Kn_pad-12" x="71000" y="90620"/><use xlink:href="#aYusHxtlNm48i0jdZ4Kn_pad-10" x="48555" y="80110"/><use xlink:href="#aYusHxtlNm48i0jdZ4Kn_pad-10" x="49825" y="82650"/><use xlink:href="#aYusHxtlNm48i0jdZ4Kn_pad-10" x="51095" y="80110"/><use xlink:href="#aYusHxtlNm48i0jdZ4Kn_pad-10" x="53635" y="80110"/><use xlink:href="#aYusHxtlNm48i0jdZ4Kn_pad-10" x="56175" y="80110"/><use xlink:href="#aYusHxtlNm48i0jdZ4Kn_pad-10" x="52365" y="82650"/><use xlink:href="#aYusHxtlNm48i0jdZ4Kn_pad-10" x="54905" y="82650"/><use xlink:href="#aYusHxtlNm48i0jdZ4Kn_pad-11" x="57445" y="82650"/><use xlink:href="#aYusHxtlNm48i0jdZ4Kn_pad-12" x="46500" y="66000"/><use xlink:href="#aYusHxtlNm48i0jdZ4Kn_pad-12" x="43960" y="66000"/><use xlink:href="#aYusHxtlNm48i0jdZ4Kn_pad-12" x="41420" y="66000"/><use xlink:href="#aYusHxtlNm48i0jdZ4Kn_pad-12" x="63000" y="66000"/><use xlink:href="#aYusHxtlNm48i0jdZ4Kn_pad-12" x="60460" y="66000"/><use xlink:href="#aYusHxtlNm48i0jdZ4Kn_pad-12" x="57920" y="66000"/><use xlink:href="#aYusHxtlNm48i0jdZ4Kn_pad-12" x="31000" y="66000"/><use xlink:href="#aYusHxtlNm48i0jdZ4Kn_pad-12" x="28460" y="66000"/><use xlink:href="#aYusHxtlNm48i0jdZ4Kn_pad-12" x="25920" y="66000"/><path d="M 55016.4 82600.8 56235.6 81381.6 68580 81381.6 70866 79095.6 M 55016.4 82600.8 54905 82650 M 70866 79095.6 71000 79080 M 18135.6 78943.2 18135.6 78333.6 25908 70561.2 25908 66141.6 M 18135.6 78943.2 18000 79080 M 25908 66141.6 25920 66000 M 53644.8 80010 54559.2 80010 57912 76657.2 70866 76657.2 M 53644.8 80010 53635 80110 M 70866 76657.2 71000 76540 M 29260.8 66141.6 28498.8 66141.6 M 29260.8 66141.6 30480 67360.8 42672 67360.8 43891.2 66141.6 M 28498.8 66141.6 28460 66000 M 43891.2 66141.6 43960 66000 M 59740.8 66141.6 60350.4 66141.6 M 59740.8 66141.6 58521.6 67360.8 45262.8 67360.8 44043.6 66141.6 M 60350.4 66141.6 60460 66000 M 44043.6 66141.6 43960 66000 M 32766 82753.2 31851.6 82753.2 M 32766 82753.2 33832.8 83820 70104 83820 70866 83058 M 31851.6 82753.2 31825 82650 M 70866 83058 71000 83000 M 35204.4 82600.8 34442.4 82600.8 M 35204.4 82600.8 36423.6 81381.6 45567.6 81381.6 52882.8 74066.4 70866 74066.4 M 34442.4 82600.8 34365 82650 M 70866 74066.4 71000 74000" fill="none" stroke-width="152.4"/></g><g id="jIgN2hPM9j9GVpJLrFrq_bottom_drill1"><use xlink:href="#JaoXs996KPkdVU6_PnuF_pad-1" x="40715" y="89000"/><use xlink:href="#JaoXs996KPkdVU6_PnuF_pad-1" x="29285" y="89000"/><use xlink:href="#JaoXs996KPkdVU6_PnuF_pad-1" x="58715" y="89000"/><use xlink:href="#JaoXs996KPkdVU6_PnuF_pad-1" x="47285" y="89000"/><use xlink:href="#JaoXs996KPkdVU6_PnuF_pad-2" x="23000" y="95000"/><use xlink:href="#JaoXs996KPkdVU6_PnuF_pad-2" x="65000" y="95000"/><use xlink:href="#JaoXs996KPkdVU6_PnuF_pad-2" x="44000" y="73000"/><use xlink:href="#JaoXs996KPkdVU6_PnuF_pad-3" x="46500" y="66000"/><use xlink:href="#JaoXs996KPkdVU6_PnuF_pad-3" x="43960" y="66000"/><use xlink:href="#JaoXs996KPkdVU6_PnuF_pad-3" x="41420" y="66000"/><use xlink:href="#JaoXs996KPkdVU6_PnuF_pad-3" x="25920" y="66000"/><use xlink:href="#JaoXs996KPkdVU6_PnuF_pad-3" x="60460" y="66000"/><use xlink:href="#JaoXs996KPkdVU6_PnuF_pad-3" x="57920" y="66000"/><use xlink:href="#JaoXs996KPkdVU6_PnuF_pad-3" x="31000" y="66000"/><use xlink:href="#JaoXs996KPkdVU6_PnuF_pad-3" x="28460" y="66000"/><use xlink:href="#JaoXs996KPkdVU6_PnuF_pad-3" x="18000" y="74000"/><use xlink:href="#JaoXs996KPkdVU6_PnuF_pad-3" x="18000" y="76540"/><use xlink:href="#JaoXs996KPkdVU6_PnuF_pad-3" x="18000" y="79080"/><use xlink:href="#JaoXs996KPkdVU6_PnuF_pad-3" x="71000" y="74000"/><use xlink:href="#JaoXs996KPkdVU6_PnuF_pad-3" x="71000" y="76540"/><use xlink:href="#JaoXs996KPkdVU6_PnuF_pad-3" x="71000" y="79080"/><use xlink:href="#JaoXs996KPkdVU6_PnuF_pad-3" x="18000" y="83000"/><use xlink:href="#JaoXs996KPkdVU6_PnuF_pad-3" x="18000" y="85540"/><use xlink:href="#JaoXs996KPkdVU6_PnuF_pad-3" x="18000" y="88080"/><use xlink:href="#JaoXs996KPkdVU6_PnuF_pad-3" x="18000" y="90620"/><use xlink:href="#JaoXs996KPkdVU6_PnuF_pad-3" x="71000" y="83000"/><use xlink:href="#JaoXs996KPkdVU6_PnuF_pad-3" x="71000" y="85540"/><use xlink:href="#JaoXs996KPkdVU6_PnuF_pad-3" x="71000" y="88080"/><use xlink:href="#JaoXs996KPkdVU6_PnuF_pad-3" x="71000" y="90620"/><use xlink:href="#JaoXs996KPkdVU6_PnuF_pad-3" x="63000" y="66000"/><use xlink:href="#JaoXs996KPkdVU6_PnuF_pad-4" x="30555" y="80110"/><use xlink:href="#JaoXs996KPkdVU6_PnuF_pad-4" x="31825" y="82650"/><use xlink:href="#JaoXs996KPkdVU6_PnuF_pad-4" x="33095" y="80110"/><use xlink:href="#JaoXs996KPkdVU6_PnuF_pad-4" x="35635" y="80110"/><use xlink:href="#JaoXs996KPkdVU6_PnuF_pad-4" x="38175" y="80110"/><use xlink:href="#JaoXs996KPkdVU6_PnuF_pad-4" x="34365" y="82650"/><use xlink:href="#JaoXs996KPkdVU6_PnuF_pad-4" x="36905" y="82650"/><use xlink:href="#JaoXs996KPkdVU6_PnuF_pad-4" x="39445" y="82650"/><use xlink:href="#JaoXs996KPkdVU6_PnuF_pad-4" x="51095" y="80110"/><use xlink:href="#JaoXs996KPkdVU6_PnuF_pad-4" x="53635" y="80110"/><use xlink:href="#JaoXs996KPkdVU6_PnuF_pad-4" x="56175" y="80110"/><use xlink:href="#JaoXs996KPkdVU6_PnuF_pad-4" x="52365" y="82650"/><use xlink:href="#JaoXs996KPkdVU6_PnuF_pad-4" x="48555" y="80110"/><use xlink:href="#JaoXs996KPkdVU6_PnuF_pad-4" x="57445" y="82650"/><use xlink:href="#JaoXs996KPkdVU6_PnuF_pad-4" x="49825" y="82650"/><use xlink:href="#JaoXs996KPkdVU6_PnuF_pad-4" x="54905" y="82650"/></g><clipPath id="jIgN2hPM9j9GVpJLrFrq_bottom_outline"><path d="M 15000 72000 25000 63000 64000 63000 74000 72000 74000 95000 68000 100000 21000 100000 15000 95000 15000 72000 M 39115 89052.4 39121.9 89156.9 39135.5 89260.8 39156 89363.5 39183.1 89464.7 39216.7 89563.9 39256.8 89660.7 39303.2 89754.6 39355.6 89845.4 39413.8 89932.5 39477.5 90015.6 39546.6 90094.3 39620.7 90168.4 39699.4 90237.5 39782.5 90301.3 39869.6 90359.5 39960.4 90411.8 40054.3 90458.2 40151.1 90498.3 40250.3 90531.9 40351.5 90559 40454.2 90579.5 40558.1 90593.2 40662.6 90600 40767.4 90600 40871.9 90593.2 40975.8 90579.5 41078.5 90559 41179.7 90531.9 41278.9 90498.3 41375.7 90458.2 41469.6 90411.8 41560.4 90359.5 41647.5 90301.3 41730.6 90237.5 41809.3 90168.4 41883.4 90094.3 41952.5 90015.6 42016.3 89932.5 42074.5 89845.4 42126.8 89754.6 42173.2 89660.7 42213.3 89563.9 42246.9 89464.7 42274 89363.5 42294.5 89260.8 42308.2 89156.9 42315 89052.4 42315 88947.6 42308.2 88843.1 42294.5 88739.2 42274 88636.5 42246.9 88535.3 42213.3 88436.1 42173.2 88339.3 42126.8 88245.4 42074.5 88154.6 42016.3 88067.5 41952.5 87984.4 41883.4 87905.7 41809.3 87831.6 41730.6 87762.5 41647.5 87698.8 41560.4 87640.6 41469.6 87588.2 41375.7 87541.8 41278.9 87501.7 41179.7 87468.1 41078.5 87441 40975.8 87420.5 40871.9 87406.9 40767.4 87400 40662.6 87400 40558.1 87406.9 40454.2 87420.5 40351.5 87441 40250.3 87468.1 40151.1 87501.7 40054.3 87541.8 39960.4 87588.2 39869.6 87640.6 39782.5 87698.8 39699.4 87762.5 39620.7 87831.6 39546.6 87905.7 39477.5 87984.4 39413.8 88067.5 39355.6 88154.6 39303.2 88245.4 39256.8 88339.3 39216.7 88436.1 39183.1 88535.3 39156 88636.5 39135.5 88739.2 39121.9 88843.1 39115 88947.6 39115 89052.4 M 27685 89052.4 27691.9 89156.9 27705.5 89260.8 27726 89363.5 27753.1 89464.7 27786.7 89563.9 27826.8 89660.7 27873.2 89754.6 27925.6 89845.4 27983.8 89932.5 28047.5 90015.6 28116.6 90094.3 28190.7 90168.4 28269.4 90237.5 28352.5 90301.3 28439.6 90359.5 28530.4 90411.8 28624.3 90458.2 28721.1 90498.3 28820.3 90531.9 28921.5 90559 29024.2 90579.5 29128.1 90593.2 29232.6 90600 29337.4 90600 29441.9 90593.2 29545.8 90579.5 29648.5 90559 29749.7 90531.9 29848.9 90498.3 29945.7 90458.2 30039.6 90411.8 30130.4 90359.5 30217.5 90301.3 30300.6 90237.5 30379.3 90168.4 30453.4 90094.3 30522.5 90015.6 30586.3 89932.5 30644.5 89845.4 30696.8 89754.6 30743.2 89660.7 30783.3 89563.9 30816.9 89464.7 30844 89363.5 30864.5 89260.8 30878.2 89156.9 30885 89052.4 30885 88947.6 30878.2 88843.1 30864.5 88739.2 30844 88636.5 30816.9 88535.3 30783.3 88436.1 30743.2 88339.3 30696.8 88245.4 30644.5 88154.6 30586.3 88067.5 30522.5 87984.4 30453.4 87905.7 30379.3 87831.6 30300.6 87762.5 30217.5 87698.8 30130.4 87640.6 30039.6 87588.2 29945.7 87541.8 29848.9 87501.7 29749.7 87468.1 29648.5 87441 29545.8 87420.5 29441.9 87406.9 29337.4 87400 29232.6 87400 29128.1 87406.9 29024.2 87420.5 28921.5 87441 28820.3 87468.1 28721.1 87501.7 28624.3 87541.8 28530.4 87588.2 28439.6 87640.6 28352.5 87698.8 28269.4 87762.5 28190.7 87831.6 28116.6 87905.7 28047.5 87984.4 27983.8 88067.5 27925.6 88154.6 27873.2 88245.4 27826.8 88339.3 27786.7 88436.1 27753.1 88535.3 27726 88636.5 27705.5 88739.2 27691.9 88843.1 27685 88947.6 27685 89052.4 M 24400 94950 24392.9 94850.3 24378.6 94751.3 24357.4 94653.6 24329.2 94557.6 24294.3 94463.9 24252.7 94372.9 24204.8 94285.2 24150.7 94201 24090.8 94121 24025.3 94045.4 23954.6 93974.7 23879 93909.2 23799 93849.3 23714.8 93795.2 23627.1 93747.3 23536.1 93705.7 23442.4 93670.8 23346.5 93642.6 23248.7 93621.4 23149.8 93607.1 23050 93600 22950 93600 22850.3 93607.1 22751.3 93621.4 22653.6 93642.6 22557.6 93670.8 22463.9 93705.7 22372.9 93747.3 22285.2 93795.2 22201 93849.3 22121 93909.2 22045.4 93974.7 21974.7 94045.4 21909.2 94121 21849.3 94201 21795.2 94285.2 21747.3 94372.9 21705.7 94463.9 21670.8 94557.6 21642.6 94653.6 21621.4 94751.3 21607.1 94850.3 21600 94950 21600 95050 21607.1 95149.8 21621.4 95248.7 21642.6 95346.5 21670.8 95442.4 21705.7 95536.1 21747.3 95627.1 21795.2 95714.8 21849.3 95799 21909.2 95879 21974.7 95954.6 22045.4 96025.3 22121 96090.8 22201 96150.7 22285.2 96204.8 22372.9 96252.7 22463.9 96294.3 22557.6 96329.2 22653.6 96357.4 22751.3 96378.6 22850.3 96392.9 22950 96400 23050 96400 23149.8 96392.9 23248.7 96378.6 23346.5 96357.4 23442.4 96329.2 23536.1 96294.3 23627.1 96252.7 23714.8 96204.8 23799 96150.7 23879 96090.8 23954.6 96025.3 24025.3 95954.6 24090.8 95879 24150.7 95799 24204.8 95714.8 24252.7 95627.1 24294.3 95536.1 24329.2 95442.4 24357.4 95346.5 24378.6 95248.7 24392.9 95149.8 24400 95050 24400 94950 M 66400 94950 66392.9 94850.3 66378.6 94751.3 66357.4 94653.6 66329.2 94557.6 66294.3 94463.9 66252.7 94372.9 66204.8 94285.2 66150.7 94201 66090.8 94121 66025.3 94045.4 65954.6 93974.7 65879 93909.2 65799 93849.3 65714.8 93795.2 65627.1 93747.3 65536.1 93705.7 65442.4 93670.8 65346.5 93642.6 65248.7 93621.4 65149.8 93607.1 65050 93600 64950 93600 64850.3 93607.1 64751.3 93621.4 64653.6 93642.6 64557.6 93670.8 64463.9 93705.7 64372.9 93747.3 64285.2 93795.2 64201 93849.3 64121 93909.2 64045.4 93974.7 63974.7 94045.4 63909.2 94121 63849.3 94201 63795.2 94285.2 63747.3 94372.9 63705.7 94463.9 63670.8 94557.6 63642.6 94653.6 63621.4 94751.3 63607.1 94850.3 63600 94950 63600 95050 63607.1 95149.8 63621.4 95248.7 63642.6 95346.5 63670.8 95442.4 63705.7 95536.1 63747.3 95627.1 63795.2 95714.8 63849.3 95799 63909.2 95879 63974.7 95954.6 64045.4 96025.3 64121 96090.8 64201 96150.7 64285.2 96204.8 64372.9 96252.7 64463.9 96294.3 64557.6 96329.2 64653.6 96357.4 64751.3 96378.6 64850.3 96392.9 64950 96400 65050 96400 65149.8 96392.9 65248.7 96378.6 65346.5 96357.4 65442.4 96329.2 65536.1 96294.3 65627.1 96252.7 65714.8 96204.8 65799 96150.7 65879 96090.8 65954.6 96025.3 66025.3 95954.6 66090.8 95879 66150.7 95799 66204.8 95714.8 66252.7 95627.1 66294.3 95536.1 66329.2 95442.4 66357.4 95346.5 66378.6 95248.7 66392.9 95149.8 66400 95050 66400 94950 M 45400 72950 45392.9 72850.3 45378.6 72751.3 45357.4 72653.6 45329.2 72557.6 45294.3 72463.9 45252.7 72372.9 45204.8 72285.2 45150.7 72201 45090.8 72121 45025.3 72045.4 44954.6 71974.7 44879 71909.2 44799 71849.3 44714.8 71795.2 44627.1 71747.3 44536.1 71705.7 44442.4 71670.8 44346.5 71642.6 44248.7 71621.4 44149.8 71607.1 44050 71600 43950 71600 43850.3 71607.1 43751.3 71621.4 43653.6 71642.6 43557.6 71670.8 43463.9 71705.7 43372.9 71747.3 43285.2 71795.2 43201 71849.3 43121 71909.2 43045.4 71974.7 42974.7 72045.4 42909.2 72121 42849.3 72201 42795.2 72285.2 42747.3 72372.9 42705.7 72463.9 42670.8 72557.6 42642.6 72653.6 42621.4 72751.3 42607.1 72850.3 42600 72950 42600 73050 42607.1 73149.8 42621.4 73248.7 42642.6 73346.5 42670.8 73442.4 42705.7 73536.1 42747.3 73627.1 42795.2 73714.8 42849.3 73799 42909.2 73879 42974.7 73954.6 43045.4 74025.3 43121 74090.8 43201 74150.7 43285.2 74204.8 43372.9 74252.7 43463.9 74294.3 43557.6 74329.2 43653.6 74357.4 43751.3 74378.6 43850.3 74392.9 43950 74400 44050 74400 44149.8 74392.9 44248.7 74378.6 44346.5 74357.4 44442.4 74329.2 44536.1 74294.3 44627.1 74252.7 44714.8 74204.8 44799 74150.7 44879 74090.8 44954.6 74025.3 45025.3 73954.6 45090.8 73879 45150.7 73799 45204.8 73714.8 45252.7 73627.1 45294.3 73536.1 45329.2 73442.4 45357.4 73346.5 45378.6 73248.7 45392.9 73149.8 45400 73050 45400 72950 M 57115 89052.4 57121.9 89156.9 57135.5 89260.8 57156 89363.5 57183.1 89464.7 57216.7 89563.9 57256.8 89660.7 57303.2 89754.6 57355.6 89845.4 57413.8 89932.5 57477.5 90015.6 57546.6 90094.3 57620.7 90168.4 57699.4 90237.5 57782.5 90301.3 57869.6 90359.5 57960.4 90411.8 58054.3 90458.2 58151.1 90498.3 58250.3 90531.9 58351.5 90559 58454.2 90579.5 58558.1 90593.2 58662.6 90600 58767.4 90600 58871.9 90593.2 58975.8 90579.5 59078.5 90559 59179.7 90531.9 59278.9 90498.3 59375.7 90458.2 59469.6 90411.8 59560.4 90359.5 59647.5 90301.3 59730.6 90237.5 59809.3 90168.4 59883.4 90094.3 59952.5 90015.6 60016.3 89932.5 60074.5 89845.4 60126.8 89754.6 60173.2 89660.7 60213.3 89563.9 60246.9 89464.7 60274 89363.5 60294.5 89260.8 60308.2 89156.9 60315 89052.4 60315 88947.6 60308.2 88843.1 60294.5 88739.2 60274 88636.5 60246.9 88535.3 60213.3 88436.1 60173.2 88339.3 60126.8 88245.4 60074.5 88154.6 60016.3 88067.5 59952.5 87984.4 59883.4 87905.7 59809.3 87831.6 59730.6 87762.5 59647.5 87698.8 59560.4 87640.6 59469.6 87588.2 59375.7 87541.8 59278.9 87501.7 59179.7 87468.1 59078.5 87441 58975.8 87420.5 58871.9 87406.9 58767.4 87400 58662.6 87400 58558.1 87406.9 58454.2 87420.5 58351.5 87441 58250.3 87468.1 58151.1 87501.7 58054.3 87541.8 57960.4 87588.2 57869.6 87640.6 57782.5 87698.8 57699.4 87762.5 57620.7 87831.6 57546.6 87905.7 57477.5 87984.4 57413.8 88067.5 57355.6 88154.6 57303.2 88245.4 57256.8 88339.3 57216.7 88436.1 57183.1 88535.3 57156 88636.5 57135.5 88739.2 57121.9 88843.1 57115 88947.6 57115 89052.4 M 45685 89052.4 45691.9 89156.9 45705.5 89260.8 45726 89363.5 45753.1 89464.7 45786.7 89563.9 45826.8 89660.7 45873.2 89754.6 45925.6 89845.4 45983.8 89932.5 46047.5 90015.6 46116.6 90094.3 46190.7 90168.4 46269.4 90237.5 46352.5 90301.3 46439.6 90359.5 46530.4 90411.8 46624.3 90458.2 46721.1 90498.3 46820.3 90531.9 46921.5 90559 47024.2 90579.5 47128.1 90593.2 47232.6 90600 47337.4 90600 47441.9 90593.2 47545.8 90579.5 47648.5 90559 47749.7 90531.9 47848.9 90498.3 47945.7 90458.2 48039.6 90411.8 48130.4 90359.5 48217.5 90301.3 48300.6 90237.5 48379.3 90168.4 48453.4 90094.3 48522.5 90015.6 48586.3 89932.5 48644.5 89845.4 48696.8 89754.6 48743.2 89660.7 48783.3 89563.9 48816.9 89464.7 48844 89363.5 48864.5 89260.8 48878.2 89156.9 48885 89052.4 48885 88947.6 48878.2 88843.1 48864.5 88739.2 48844 88636.5 48816.9 88535.3 48783.3 88436.1 48743.2 88339.3 48696.8 88245.4 48644.5 88154.6 48586.3 88067.5 48522.5 87984.4 48453.4 87905.7 48379.3 87831.6 48300.6 87762.5 48217.5 87698.8 48130.4 87640.6 48039.6 87588.2 47945.7 87541.8 47848.9 87501.7 47749.7 87468.1 47648.5 87441 47545.8 87420.5 47441.9 87406.9 47337.4 87400 47232.6 87400 47128.1 87406.9 47024.2 87420.5 46921.5 87441 46820.3 87468.1 46721.1 87501.7 46624.3 87541.8 46530.4 87588.2 46439.6 87640.6 46352.5 87698.8 46269.4 87762.5 46190.7 87831.6 46116.6 87905.7 46047.5 87984.4 45983.8 88067.5 45925.6 88154.6 45873.2 88245.4 45826.8 88339.3 45786.7 88436.1 45753.1 88535.3 45726 88636.5 45705.5 88739.2 45691.9 88843.1 45685 88947.6 45685 89052.4" fill="none" stroke-width="254"/></clipPath><mask id="jIgN2hPM9j9GVpJLrFrq_bottom_mech-mask"><g fill="#000" stroke="#000"><rect x="15000" y="63000" width="59000" height="37000" fill="#fff"/><use xlink:href="#jIgN2hPM9j9GVpJLrFrq_bottom_drill1"/></g></mask><mask id="jIgN2hPM9j9GVpJLrFrq_bottom_cf-mask"><g fill="#fff" stroke="#fff"><use xlink:href="#jIgN2hPM9j9GVpJLrFrq_bottom_soldermask"/></g></mask><mask id="jIgN2hPM9j9GVpJLrFrq_bottom_sm-mask"><g fill="#000" stroke="#000"><rect x="15000" y="63000" width="59000" height="37000" fill="#fff"/><use xlink:href="#jIgN2hPM9j9GVpJLrFrq_bottom_soldermask"/></g></mask></defs><g transform="translate(0,163000) scale(1,-1)"><g mask="url(#jIgN2hPM9j9GVpJLrFrq_bottom_mech-mask)" clip-path="url(#jIgN2hPM9j9GVpJLrFrq_bottom_outline)" transform="translate(89000,0) scale(-1,1)"><rect x="15000" y="63000" width="59000" height="37000" fill="currentColor" class="jIgN2hPM9j9GVpJLrFrq_fr4"/><use xlink:href="#jIgN2hPM9j9GVpJLrFrq_bottom_copper" fill="currentColor" stroke="currentColor" class="jIgN2hPM9j9GVpJLrFrq_cu"/><use xlink:href="#jIgN2hPM9j9GVpJLrFrq_bottom_copper" fill="currentColor" stroke="currentColor" class="jIgN2hPM9j9GVpJLrFrq_cf" mask="url(#jIgN2hPM9j9GVpJLrFrq_bottom_cf-mask)"/><g mask="url(#jIgN2hPM9j9GVpJLrFrq_bottom_sm-mask)"><rect x="15000" y="63000" width="59000" height="37000" fill="currentColor" class="jIgN2hPM9j9GVpJLrFrq_sm"/><use xlink:href="#jIgN2hPM9j9GVpJLrFrq_bottom_silkscreen" fill="currentColor" stroke="currentColor" class="jIgN2hPM9j9GVpJLrFrq_ss"/></g></g></g></svg>