<svg version="1.1" xmlns="http://www.w3.org/2000/svg" xmlns:xlink="http://www.w3.org/1999/xlink" stroke-linecap="round" stroke-linejoin="round" stroke-width="0" fill-rule="evenodd" width="55.4032mm" height="31.703200000000002mm" viewBox="16798.4 64798.4 55403.2 31703.2" id="A-OyjNt7KNJp-TWcoWlS"><defs><circle cx="0" cy="0" r="1041.4" id="A-OyjNt7KNJp-TWcoWlS_pad-10"/><rect x="-1041.4" y="-1041.4" width="2082.8" height="2082.8" id="A-OyjNt7KNJp-TWcoWlS_pad-11"/><circle cx="0" cy="0" r="1701.6" id="A-OyjNt7KNJp-TWcoWlS_pad-12"/><circle cx="0" cy="0" r="1501.6" id="A-OyjNt7KNJp-TWcoWlS_pad-13"/><circle cx="0" cy="0" r="1201.6" id="A-OyjNt7KNJp-TWcoWlS_pad-14"/></defs><g transform="translate(0,161300) scale(1,-1)" fill="currentColor" stroke="currentColor"><use xlink:href="#A-OyjNt7KNJp-TWcoWlS_pad-10" x="30555" y="80110"/><use xlink:href="#A-OyjNt7KNJp-TWcoWlS_pad-10" x="31825" y="82650"/><use xlink:href="#A-OyjNt7KNJp-TWcoWlS_pad-10" x="33095" y="80110"/><use xlink:href="#A-OyjNt7KNJp-TWcoWlS_pad-10" x="35635" y="80110"/><use xlink:href="#A-OyjNt7KNJp-TWcoWlS_pad-10" x="38175" y="80110"/><use xlink:href="#A-OyjNt7KNJp-TWcoWlS_pad-10" x="34365" y="82650"/><use xlink:href="#A-OyjNt7KNJp-TWcoWlS_pad-10" x="36905" y="82650"/><use xlink:href="#A-OyjNt7KNJp-TWcoWlS_pad-11" x="39445" y="82650"/><use xlink:href="#A-OyjNt7KNJp-TWcoWlS_pad-12" x="40715" y="89000"/><use xlink:href="#A-OyjNt7KNJp-TWcoWlS_pad-12" x="29285" y="89000"/><use xlink:href="#A-OyjNt7KNJp-TWcoWlS_pad-13" x="23000" y="95000"/><use xlink:href="#A-OyjNt7KNJp-TWcoWlS_pad-13" x="65000" y="95000"/><use xlink:href="#A-OyjNt7KNJp-TWcoWlS_pad-13" x="44000" y="73000"/><use xlink:href="#A-OyjNt7KNJp-TWcoWlS_pad-14" x="18000" y="74000"/><use xlink:href="#A-OyjNt7KNJp-TWcoWlS_pad-14" x="18000" y="76540"/><use xlink:href="#A-OyjNt7KNJp-TWcoWlS_pad-14" x="18000" y="79080"/><use xlink:href="#A-OyjNt7KNJp-TWcoWlS_pad-14" x="71000" y="74000"/><use xlink:href="#A-OyjNt7KNJp-TWcoWlS_pad-14" x="71000" y="76540"/><use xlink:href="#A-OyjNt7KNJp-TWcoWlS_pad-14" x="71000" y="79080"/><use xlink:href="#A-OyjNt7KNJp-TWcoWlS_pad-14" x="18000" y="83000"/><use xlink:href="#A-OyjNt7KNJp-TWcoWlS_pad-14" x="18000" y="85540"/><use xlink:href="#A-OyjNt7KNJp-TWcoWlS_pad-14" x="18000" y="88080"/><use xlink:href="#A-OyjNt7KNJp-TWcoWlS_pad-14" x="18000" y="90620"/><use xlink:href="#A-OyjNt7KNJp-TWcoWlS_pad-14" x="71000" y="83000"/><use xlink:href="#A-OyjNt7KNJp-TWcoWlS_pad-14" x="71000" y="85540"/><use xlink:href="#A-OyjNt7KNJp-TWcoWlS_pad-14" x="71000" y="88080"/><use xlink:href="#A-OyjNt7KNJp-TWcoWlS_pad-14" x="71000" y="90620"/><use xlink:href="#A-OyjNt7KNJp-TWcoWlS_pad-10" x="48555" y="80110"/><use xlink:href="#A-OyjNt7KNJp-TWcoWlS_pad-10" x="49825" y="82650"/><use xlink:href="#A-OyjNt7KNJp-TWcoWlS_pad-10" x="51095" y="80110"/><use xlink:href="#A-OyjNt7KNJp-TWcoWlS_pad-10" x="53635" y="80110"/><use xlink:href="#A-OyjNt7KNJp-TWcoWlS_pad-10" x="56175" y="80110"/><use xlink:href="#A-OyjNt7KNJp-TWcoWlS_pad-10" x="52365" y="82650"/><use xlink:href="#A-OyjNt7KNJp-TWcoWlS_pad-10" x="54905" y="82650"/><use xlink:href="#A-OyjNt7KNJp-TWcoWlS_pad-11" x="57445" y="82650"/><use xlink:href="#A-OyjNt7KNJp-TWcoWlS_pad-12" x="58715" y="89000"/><use xlink:href="#A-OyjNt7KNJp-TWcoWlS_pad-12" x="47285" y="89000"/><use xlink:href="#A-OyjNt7KNJp-TWcoWlS_pad-14" x="46500" y="66000"/><use xlink:href="#A-OyjNt7KNJp-TWcoWlS_pad-14" x="43960" y="66000"/><use xlink:href="#A-OyjNt7KNJp-TWcoWlS_pad-14" x="41420" y="66000"/><use xlink:href="#A-OyjNt7KNJp-TWcoWlS_pad-14" x="63000" y="66000"/><use xlink:href="#A-OyjNt7KNJp-TWcoWlS_pad-14" x="60460" y="66000"/><use xlink:href="#A-OyjNt7KNJp-TWcoWlS_pad-14" x="57920" y="66000"/><use xlink:href="#A-OyjNt7KNJp-TWcoWlS_pad-14" x="31000" y="66000"/><use xlink:href="#A-OyjNt7KNJp-TWcoWlS_pad-14" x="28460" y="66000"/><use xlink:href="#A-OyjNt7KNJp-TWcoWlS_pad-14" x="25920" y="66000"/></g></svg>