<?xml version="1.0" encoding="UTF-8"?>
<svg id="_0" data-name="0" xmlns="http://www.w3.org/2000/svg" viewBox="0 0 270.57 270.57">
  <defs>
    <style>
      .cls-1 {
        fill: none;
        stroke: #000;
        stroke-linecap: round;
        stroke-linejoin: round;
        stroke-width: .71px;
      }
    </style>
  </defs>
  <g id="LWPOLYLINE">
    <path class="cls-1" d="M220.32,11.69H50.02l-2.9,.13s-.02,0-.03,0c-10.33-.03-20.39-3.29-28.77-9.33C13.24-1.17,6.15-.01,2.49,5.07c-2.85,3.96-2.85,9.29,0,13.25,6.04,8.39,9.3,18.46,9.33,28.8,.01-.12,.02-.24,.03-.37-.11,1.16-.16,2.32-.16,3.49V220.32c0,1.16,.05,2.33,.16,3.49-.01-.12-.02-.24-.03-.36-.02,10.34-3.29,20.41-9.33,28.8-3.66,5.08-2.51,12.17,2.58,15.83,3.96,2.85,9.29,2.85,13.25,0,8.38-6.04,18.44-9.3,28.77-9.33,1.05,.09,2.1,.13,3.16,.13H220.55l2.9-.13s.02,0,.03,0c10.33,.03,20.39,3.29,28.77,9.33,5.08,3.66,12.17,2.51,15.83-2.57,2.85-3.96,2.85-9.29,0-13.25-6.04-8.39-9.3-18.46-9.33-28.8,.08-1.04,.13-2.08,.13-3.12V50.02s-.13-2.9-.13-2.9c.02-10.34,3.29-20.41,9.33-28.8,3.66-5.08,2.51-12.17-2.58-15.83-3.96-2.85-9.29-2.85-13.25,0-8.38,6.04-18.44,9.3-28.77,9.33-1.05-.09-2.1-.13-3.16-.13Z"/>
  </g>
  <g id="LWPOLYLINE-2" data-name="LWPOLYLINE">
    <path class="cls-1" d="M12.7,22.72l-6.01-6.01c-2.77-2.77-2.77-7.25,0-10.02s7.25-2.77,10.02,0l6.01,6.01c2.77,2.77,2.77,7.25,0,10.02s-7.25,2.77-10.02,0Z"/>
  </g>
  <g id="LWPOLYLINE-3" data-name="LWPOLYLINE">
    <path class="cls-1" d="M22.72,257.87c2.77-2.77,2.77-7.25,0-10.02s-7.25-2.77-10.02,0l-6.01,6.01c-2.77,2.77-2.77,7.25,0,10.02s7.25,2.77,10.02,0l6.01-6.01Z"/>
  </g>
  <g id="LWPOLYLINE-4" data-name="LWPOLYLINE">
    <path class="cls-1" d="M257.87,247.85c-2.77-2.77-7.25-2.77-10.02,0s-2.77,7.25,0,10.02l6.01,6.01c2.77,2.77,7.25,2.77,10.02,0s2.77-7.25,0-10.02l-6.01-6.01Z"/>
  </g>
  <g id="LWPOLYLINE-5" data-name="LWPOLYLINE">
    <path class="cls-1" d="M247.85,12.7c-2.77,2.77-2.77,7.25,0,10.02s7.25,2.77,10.02,0l6.01-6.01c2.77-2.77,2.77-7.25,0-10.02s-7.25-2.77-10.02,0l-6.01,6.01Z"/>
  </g>
</svg>