M48
;GenerationSoftware,Autodesk,EAGLE,9.6.2*%
;CreationDate,2023-04-03T20:00:18Z*%
FMAT,2
ICI,OFF
METRIC,TZ,000.000
T4C1.000
T3C1.400
T2C2.800
T1C3.200
%
G90
M71
T1
X40715Y89000
X29285Y89000
X58715Y89000
X47285Y89000
T2
X23000Y95000
X65000Y95000
X44000Y73000
T3
X46500Y66000
X43960Y66000
X41420Y66000
X25920Y66000
X60460Y66000
X57920Y66000
X31000Y66000
X28460Y66000
X18000Y74000
X18000Y76540
X18000Y79080
X71000Y74000
X71000Y76540
X71000Y79080
X18000Y83000
X18000Y85540
X18000Y88080
X18000Y90620
X71000Y83000
X71000Y85540
X71000Y88080
X71000Y90620
X63000Y66000
T4
X30555Y80110
X31825Y82650
X33095Y80110
X35635Y80110
X38175Y80110
X34365Y82650
X36905Y82650
X39445Y82650
X51095Y80110
X53635Y80110
X56175Y80110
X52365Y82650
X48555Y80110
X57445Y82650
X49825Y82650
X54905Y82650
M30