<svg version="1.1" xmlns="http://www.w3.org/2000/svg" xmlns:xlink="http://www.w3.org/1999/xlink" stroke-linecap="round" stroke-linejoin="round" stroke-width="0" fill-rule="evenodd" width="55.2mm" height="26.82mm" viewBox="16900 64900 55200 26820" id="aYusHxtlNm48i0jdZ4Kn"><defs><circle cx="0" cy="0" r="939.8" id="aYusHxtlNm48i0jdZ4Kn_pad-10"/><rect x="-939.8" y="-939.8" width="1879.6" height="1879.6" id="aYusHxtlNm48i0jdZ4Kn_pad-11"/><circle cx="0" cy="0" r="1100" id="aYusHxtlNm48i0jdZ4Kn_pad-12"/></defs><g transform="translate(0,156620) scale(1,-1)" fill="currentColor" stroke="currentColor"><use xlink:href="#aYusHxtlNm48i0jdZ4Kn_pad-10" x="30555" y="80110"/><use xlink:href="#aYusHxtlNm48i0jdZ4Kn_pad-10" x="31825" y="82650"/><use xlink:href="#aYusHxtlNm48i0jdZ4Kn_pad-10" x="33095" y="80110"/><use xlink:href="#aYusHxtlNm48i0jdZ4Kn_pad-10" x="35635" y="80110"/><use xlink:href="#aYusHxtlNm48i0jdZ4Kn_pad-10" x="38175" y="80110"/><use xlink:href="#aYusHxtlNm48i0jdZ4Kn_pad-10" x="34365" y="82650"/><use xlink:href="#aYusHxtlNm48i0jdZ4Kn_pad-10" x="36905" y="82650"/><use xlink:href="#aYusHxtlNm48i0jdZ4Kn_pad-11" x="39445" y="82650"/><use xlink:href="#aYusHxtlNm48i0jdZ4Kn_pad-12" x="18000" y="74000"/><use xlink:href="#aYusHxtlNm48i0jdZ4Kn_pad-12" x="18000" y="76540"/><use xlink:href="#aYusHxtlNm48i0jdZ4Kn_pad-12" x="18000" y="79080"/><use xlink:href="#aYusHxtlNm48i0jdZ4Kn_pad-12" x="71000" y="74000"/><use xlink:href="#aYusHxtlNm48i0jdZ4Kn_pad-12" x="71000" y="76540"/><use xlink:href="#aYusHxtlNm48i0jdZ4Kn_pad-12" x="71000" y="79080"/><use xlink:href="#aYusHxtlNm48i0jdZ4Kn_pad-12" x="18000" y="83000"/><use xlink:href="#aYusHxtlNm48i0jdZ4Kn_pad-12" x="18000" y="85540"/><use xlink:href="#aYusHxtlNm48i0jdZ4Kn_pad-12" x="18000" y="88080"/><use xlink:href="#aYusHxtlNm48i0jdZ4Kn_pad-12" x="18000" y="90620"/><use xlink:href="#aYusHxtlNm48i0jdZ4Kn_pad-12" x="71000" y="83000"/><use xlink:href="#aYusHxtlNm48i0jdZ4Kn_pad-12" x="71000" y="85540"/><use xlink:href="#aYusHxtlNm48i0jdZ4Kn_pad-12" x="71000" y="88080"/><use xlink:href="#aYusHxtlNm48i0jdZ4Kn_pad-12" x="71000" y="90620"/><use xlink:href="#aYusHxtlNm48i0jdZ4Kn_pad-10" x="48555" y="80110"/><use xlink:href="#aYusHxtlNm48i0jdZ4Kn_pad-10" x="49825" y="82650"/><use xlink:href="#aYusHxtlNm48i0jdZ4Kn_pad-10" x="51095" y="80110"/><use xlink:href="#aYusHxtlNm48i0jdZ4Kn_pad-10" x="53635" y="80110"/><use xlink:href="#aYusHxtlNm48i0jdZ4Kn_pad-10" x="56175" y="80110"/><use xlink:href="#aYusHxtlNm48i0jdZ4Kn_pad-10" x="52365" y="82650"/><use xlink:href="#aYusHxtlNm48i0jdZ4Kn_pad-10" x="54905" y="82650"/><use xlink:href="#aYusHxtlNm48i0jdZ4Kn_pad-11" x="57445" y="82650"/><use xlink:href="#aYusHxtlNm48i0jdZ4Kn_pad-12" x="46500" y="66000"/><use xlink:href="#aYusHxtlNm48i0jdZ4Kn_pad-12" x="43960" y="66000"/><use xlink:href="#aYusHxtlNm48i0jdZ4Kn_pad-12" x="41420" y="66000"/><use xlink:href="#aYusHxtlNm48i0jdZ4Kn_pad-12" x="63000" y="66000"/><use xlink:href="#aYusHxtlNm48i0jdZ4Kn_pad-12" x="60460" y="66000"/><use xlink:href="#aYusHxtlNm48i0jdZ4Kn_pad-12" x="57920" y="66000"/><use xlink:href="#aYusHxtlNm48i0jdZ4Kn_pad-12" x="31000" y="66000"/><use xlink:href="#aYusHxtlNm48i0jdZ4Kn_pad-12" x="28460" y="66000"/><use xlink:href="#aYusHxtlNm48i0jdZ4Kn_pad-12" x="25920" y="66000"/><path d="M 55016.4 82600.8 56235.6 81381.6 68580 81381.6 70866 79095.6 M 55016.4 82600.8 54905 82650 M 70866 79095.6 71000 79080 M 18135.6 78943.2 18135.6 78333.6 25908 70561.2 25908 66141.6 M 18135.6 78943.2 18000 79080 M 25908 66141.6 25920 66000 M 53644.8 80010 54559.2 80010 57912 76657.2 70866 76657.2 M 53644.8 80010 53635 80110 M 70866 76657.2 71000 76540 M 29260.8 66141.6 28498.8 66141.6 M 29260.8 66141.6 30480 67360.8 42672 67360.8 43891.2 66141.6 M 28498.8 66141.6 28460 66000 M 43891.2 66141.6 43960 66000 M 59740.8 66141.6 60350.4 66141.6 M 59740.8 66141.6 58521.6 67360.8 45262.8 67360.8 44043.6 66141.6 M 60350.4 66141.6 60460 66000 M 44043.6 66141.6 43960 66000 M 32766 82753.2 31851.6 82753.2 M 32766 82753.2 33832.8 83820 70104 83820 70866 83058 M 31851.6 82753.2 31825 82650 M 70866 83058 71000 83000 M 35204.4 82600.8 34442.4 82600.8 M 35204.4 82600.8 36423.6 81381.6 45567.6 81381.6 52882.8 74066.4 70866 74066.4 M 34442.4 82600.8 34365 82650 M 70866 74066.4 71000 74000" fill="none" stroke-width="152.4"/></g></svg>