<svg version="1.1" xmlns="http://www.w3.org/2000/svg" xmlns:xlink="http://www.w3.org/1999/xlink" stroke-linecap="round" stroke-linejoin="round" stroke-width="0" fill-rule="evenodd" width="55.5646mm" height="27.1786mm" viewBox="16535.4 64541.4 55564.6 27178.6" id="B2dm8ay-QgV4tE37ZuSe"><defs><circle cx="0" cy="0" r="939.8" id="B2dm8ay-QgV4tE37ZuSe_pad-10"/><rect x="-939.8" y="-939.8" width="1879.6" height="1879.6" id="B2dm8ay-QgV4tE37ZuSe_pad-11"/><circle cx="0" cy="0" r="1100" id="B2dm8ay-QgV4tE37ZuSe_pad-12"/></defs><g transform="translate(0,156261.4) scale(1,-1)" fill="currentColor" stroke="currentColor"><use xlink:href="#B2dm8ay-QgV4tE37ZuSe_pad-10" x="30555" y="80110"/><use xlink:href="#B2dm8ay-QgV4tE37ZuSe_pad-10" x="31825" y="82650"/><use xlink:href="#B2dm8ay-QgV4tE37ZuSe_pad-10" x="33095" y="80110"/><use xlink:href="#B2dm8ay-QgV4tE37ZuSe_pad-10" x="35635" y="80110"/><use xlink:href="#B2dm8ay-QgV4tE37ZuSe_pad-10" x="38175" y="80110"/><use xlink:href="#B2dm8ay-QgV4tE37ZuSe_pad-10" x="34365" y="82650"/><use xlink:href="#B2dm8ay-QgV4tE37ZuSe_pad-10" x="36905" y="82650"/><use xlink:href="#B2dm8ay-QgV4tE37ZuSe_pad-11" x="39445" y="82650"/><use xlink:href="#B2dm8ay-QgV4tE37ZuSe_pad-12" x="18000" y="74000"/><use xlink:href="#B2dm8ay-QgV4tE37ZuSe_pad-12" x="18000" y="76540"/><use xlink:href="#B2dm8ay-QgV4tE37ZuSe_pad-12" x="18000" y="79080"/><use xlink:href="#B2dm8ay-QgV4tE37ZuSe_pad-12" x="71000" y="74000"/><use xlink:href="#B2dm8ay-QgV4tE37ZuSe_pad-12" x="71000" y="76540"/><use xlink:href="#B2dm8ay-QgV4tE37ZuSe_pad-12" x="71000" y="79080"/><use xlink:href="#B2dm8ay-QgV4tE37ZuSe_pad-12" x="18000" y="83000"/><use xlink:href="#B2dm8ay-QgV4tE37ZuSe_pad-12" x="18000" y="85540"/><use xlink:href="#B2dm8ay-QgV4tE37ZuSe_pad-12" x="18000" y="88080"/><use xlink:href="#B2dm8ay-QgV4tE37ZuSe_pad-12" x="18000" y="90620"/><use xlink:href="#B2dm8ay-QgV4tE37ZuSe_pad-12" x="71000" y="83000"/><use xlink:href="#B2dm8ay-QgV4tE37ZuSe_pad-12" x="71000" y="85540"/><use xlink:href="#B2dm8ay-QgV4tE37ZuSe_pad-12" x="71000" y="88080"/><use xlink:href="#B2dm8ay-QgV4tE37ZuSe_pad-12" x="71000" y="90620"/><use xlink:href="#B2dm8ay-QgV4tE37ZuSe_pad-10" x="48555" y="80110"/><use xlink:href="#B2dm8ay-QgV4tE37ZuSe_pad-10" x="49825" y="82650"/><use xlink:href="#B2dm8ay-QgV4tE37ZuSe_pad-10" x="51095" y="80110"/><use xlink:href="#B2dm8ay-QgV4tE37ZuSe_pad-10" x="53635" y="80110"/><use xlink:href="#B2dm8ay-QgV4tE37ZuSe_pad-10" x="56175" y="80110"/><use xlink:href="#B2dm8ay-QgV4tE37ZuSe_pad-10" x="52365" y="82650"/><use xlink:href="#B2dm8ay-QgV4tE37ZuSe_pad-10" x="54905" y="82650"/><use xlink:href="#B2dm8ay-QgV4tE37ZuSe_pad-11" x="57445" y="82650"/><use xlink:href="#B2dm8ay-QgV4tE37ZuSe_pad-12" x="46500" y="66000"/><use xlink:href="#B2dm8ay-QgV4tE37ZuSe_pad-12" x="43960" y="66000"/><use xlink:href="#B2dm8ay-QgV4tE37ZuSe_pad-12" x="41420" y="66000"/><use xlink:href="#B2dm8ay-QgV4tE37ZuSe_pad-12" x="63000" y="66000"/><use xlink:href="#B2dm8ay-QgV4tE37ZuSe_pad-12" x="60460" y="66000"/><use xlink:href="#B2dm8ay-QgV4tE37ZuSe_pad-12" x="57920" y="66000"/><use xlink:href="#B2dm8ay-QgV4tE37ZuSe_pad-12" x="31000" y="66000"/><use xlink:href="#B2dm8ay-QgV4tE37ZuSe_pad-12" x="28460" y="66000"/><use xlink:href="#B2dm8ay-QgV4tE37ZuSe_pad-12" x="25920" y="66000"/><path d="M 57454.8 82753.2 63093.6 82753.2 70866 90525.6 M 57454.8 82753.2 57445 82650 M 70866 90525.6 71000 90620 M 23926.8 90525.6 18135.6 90525.6 M 23926.8 90525.6 30632.4 83820 56235.6 83820 57302.4 82753.2 M 18135.6 90525.6 18000 90620 M 57302.4 82753.2 57445 82650 M 56235.6 80162.4 63093.6 80162.4 70866 87934.8 M 56235.6 80162.4 56175 80110 M 70866 87934.8 71000 88080 M 41300.4 65989.2 32918.4 65989.2 31546.8 64617.6 27432 64617.6 26060.4 65989.2 M 41300.4 65989.2 41420 66000 M 26060.4 65989.2 25920 66000 M 48463.2 65989.2 54864 65989.2 57912 65989.2 M 48463.2 65989.2 47091.6 64617.6 42824.4 64617.6 41452.8 65989.2 M 57912 65989.2 57920 66000 M 41452.8 65989.2 41420 66000 M 54864 65989.2 54864 82600.8 54905 82650 M 70866 76504.8 60502.8 66141.6 60460 66000 M 70866 76504.8 71000 76540 M 70866 84886.8 70866 85496.4 M 70866 84886.8 69646.8 83667.6 69646.8 77876.4 70866 76657.2 M 70866 85496.4 71000 85540 M 70866 76657.2 71000 76540 M 17983.2 76657.2 17983.2 77114.4 16611.6 78486 16611.6 84124.8 17983.2 85496.4 M 17983.2 76657.2 18000 76540 M 17983.2 85496.4 18000 85540 M 17983.2 76504.8 17983.2 75895.2 16611.6 74523.6 16611.6 73456.8 22707.6 67360.8 27127.2 67360.8 28346.4 66141.6 M 17983.2 76504.8 18000 76540 M 28346.4 66141.6 28460 66000 M 32156.4 80162.4 33070.8 80162.4 M 32156.4 80162.4 29413.2 82905.6 18135.6 82905.6 M 33070.8 80162.4 33095 80110 M 18135.6 82905.6 18000 83000 M 34747.2 80010 35509.2 80010 M 34747.2 80010 28803.6 74066.4 18135.6 74066.4 M 35509.2 80010 35635 80110 M 18135.6 74066.4 18000 74000 M 39471.6 72390 39471.6 82600.8 M 39471.6 72390 45720 66141.6 46482 66141.6 M 39471.6 82600.8 39445 82650 M 46482 66141.6 46500 66000 M 36880.8 71932.8 36880.8 82600.8 M 36880.8 71932.8 31089.6 66141.6 M 36880.8 82600.8 36905 82650 M 31089.6 66141.6 31000 66000" fill="none" stroke-width="152.4"/></g></svg>