<svg version="1.1" xmlns="http://www.w3.org/2000/svg" xmlns:xlink="http://www.w3.org/1999/xlink" stroke-linecap="round" stroke-linejoin="round" stroke-width="0" fill-rule="evenodd" width="54.4mm" height="31.1mm" viewBox="17300 65300 54400 31100" id="JaoXs996KPkdVU6_PnuF"><defs><circle cx="0" cy="0" r="1600" id="JaoXs996KPkdVU6_PnuF_pad-1"/><circle cx="0" cy="0" r="1400" id="JaoXs996KPkdVU6_PnuF_pad-2"/><circle cx="0" cy="0" r="700" id="JaoXs996KPkdVU6_PnuF_pad-3"/><circle cx="0" cy="0" r="500" id="JaoXs996KPkdVU6_PnuF_pad-4"/></defs><g transform="translate(0,161700) scale(1,-1)" fill="currentColor" stroke="currentColor"><use xlink:href="#JaoXs996KPkdVU6_PnuF_pad-1" x="40715" y="89000"/><use xlink:href="#JaoXs996KPkdVU6_PnuF_pad-1" x="29285" y="89000"/><use xlink:href="#JaoXs996KPkdVU6_PnuF_pad-1" x="58715" y="89000"/><use xlink:href="#JaoXs996KPkdVU6_PnuF_pad-1" x="47285" y="89000"/><use xlink:href="#JaoXs996KPkdVU6_PnuF_pad-2" x="23000" y="95000"/><use xlink:href="#JaoXs996KPkdVU6_PnuF_pad-2" x="65000" y="95000"/><use xlink:href="#JaoXs996KPkdVU6_PnuF_pad-2" x="44000" y="73000"/><use xlink:href="#JaoXs996KPkdVU6_PnuF_pad-3" x="46500" y="66000"/><use xlink:href="#JaoXs996KPkdVU6_PnuF_pad-3" x="43960" y="66000"/><use xlink:href="#JaoXs996KPkdVU6_PnuF_pad-3" x="41420" y="66000"/><use xlink:href="#JaoXs996KPkdVU6_PnuF_pad-3" x="25920" y="66000"/><use xlink:href="#JaoXs996KPkdVU6_PnuF_pad-3" x="60460" y="66000"/><use xlink:href="#JaoXs996KPkdVU6_PnuF_pad-3" x="57920" y="66000"/><use xlink:href="#JaoXs996KPkdVU6_PnuF_pad-3" x="31000" y="66000"/><use xlink:href="#JaoXs996KPkdVU6_PnuF_pad-3" x="28460" y="66000"/><use xlink:href="#JaoXs996KPkdVU6_PnuF_pad-3" x="18000" y="74000"/><use xlink:href="#JaoXs996KPkdVU6_PnuF_pad-3" x="18000" y="76540"/><use xlink:href="#JaoXs996KPkdVU6_PnuF_pad-3" x="18000" y="79080"/><use xlink:href="#JaoXs996KPkdVU6_PnuF_pad-3" x="71000" y="74000"/><use xlink:href="#JaoXs996KPkdVU6_PnuF_pad-3" x="71000" y="76540"/><use xlink:href="#JaoXs996KPkdVU6_PnuF_pad-3" x="71000" y="79080"/><use xlink:href="#JaoXs996KPkdVU6_PnuF_pad-3" x="18000" y="83000"/><use xlink:href="#JaoXs996KPkdVU6_PnuF_pad-3" x="18000" y="85540"/><use xlink:href="#JaoXs996KPkdVU6_PnuF_pad-3" x="18000" y="88080"/><use xlink:href="#JaoXs996KPkdVU6_PnuF_pad-3" x="18000" y="90620"/><use xlink:href="#JaoXs996KPkdVU6_PnuF_pad-3" x="71000" y="83000"/><use xlink:href="#JaoXs996KPkdVU6_PnuF_pad-3" x="71000" y="85540"/><use xlink:href="#JaoXs996KPkdVU6_PnuF_pad-3" x="71000" y="88080"/><use xlink:href="#JaoXs996KPkdVU6_PnuF_pad-3" x="71000" y="90620"/><use xlink:href="#JaoXs996KPkdVU6_PnuF_pad-3" x="63000" y="66000"/><use xlink:href="#JaoXs996KPkdVU6_PnuF_pad-4" x="30555" y="80110"/><use xlink:href="#JaoXs996KPkdVU6_PnuF_pad-4" x="31825" y="82650"/><use xlink:href="#JaoXs996KPkdVU6_PnuF_pad-4" x="33095" y="80110"/><use xlink:href="#JaoXs996KPkdVU6_PnuF_pad-4" x="35635" y="80110"/><use xlink:href="#JaoXs996KPkdVU6_PnuF_pad-4" x="38175" y="80110"/><use xlink:href="#JaoXs996KPkdVU6_PnuF_pad-4" x="34365" y="82650"/><use xlink:href="#JaoXs996KPkdVU6_PnuF_pad-4" x="36905" y="82650"/><use xlink:href="#JaoXs996KPkdVU6_PnuF_pad-4" x="39445" y="82650"/><use xlink:href="#JaoXs996KPkdVU6_PnuF_pad-4" x="51095" y="80110"/><use xlink:href="#JaoXs996KPkdVU6_PnuF_pad-4" x="53635" y="80110"/><use xlink:href="#JaoXs996KPkdVU6_PnuF_pad-4" x="56175" y="80110"/><use xlink:href="#JaoXs996KPkdVU6_PnuF_pad-4" x="52365" y="82650"/><use xlink:href="#JaoXs996KPkdVU6_PnuF_pad-4" x="48555" y="80110"/><use xlink:href="#JaoXs996KPkdVU6_PnuF_pad-4" x="57445" y="82650"/><use xlink:href="#JaoXs996KPkdVU6_PnuF_pad-4" x="49825" y="82650"/><use xlink:href="#JaoXs996KPkdVU6_PnuF_pad-4" x="54905" y="82650"/></g></svg>