<svg version="1.1" xmlns="http://www.w3.org/2000/svg" xmlns:xlink="http://www.w3.org/1999/xlink" stroke-linecap="round" stroke-linejoin="round" stroke-width="0" fill-rule="evenodd" width="59mm" height="37mm" viewBox="15000 63000 59000 37000" id="irRyFBKZkjUzq8iHcwHT"><g transform="translate(0,163000) scale(1,-1)" fill="currentColor" stroke="currentColor"><path d="M 15000 72000 25000 63000 64000 63000 74000 72000 74000 95000 68000 100000 21000 100000 15000 95000 15000 72000 M 39115 89052.4 39121.9 89156.9 39135.5 89260.8 39156 89363.5 39183.1 89464.7 39216.7 89563.9 39256.8 89660.7 39303.2 89754.6 39355.6 89845.4 39413.8 89932.5 39477.5 90015.6 39546.6 90094.3 39620.7 90168.4 39699.4 90237.5 39782.5 90301.3 39869.6 90359.5 39960.4 90411.8 40054.3 90458.2 40151.1 90498.3 40250.3 90531.9 40351.5 90559 40454.2 90579.5 40558.1 90593.2 40662.6 90600 40767.4 90600 40871.9 90593.2 40975.8 90579.5 41078.5 90559 41179.7 90531.9 41278.9 90498.3 41375.7 90458.2 41469.6 90411.8 41560.4 90359.5 41647.5 90301.3 41730.6 90237.5 41809.3 90168.4 41883.4 90094.3 41952.5 90015.6 42016.3 89932.5 42074.5 89845.4 42126.8 89754.6 42173.2 89660.7 42213.3 89563.9 42246.9 89464.7 42274 89363.5 42294.5 89260.8 42308.2 89156.9 42315 89052.4 42315 88947.6 42308.2 88843.1 42294.5 88739.2 42274 88636.5 42246.9 88535.3 42213.3 88436.1 42173.2 88339.3 42126.8 88245.4 42074.5 88154.6 42016.3 88067.5 41952.5 87984.4 41883.4 87905.7 41809.3 87831.6 41730.6 87762.5 41647.5 87698.8 41560.4 87640.6 41469.6 87588.2 41375.7 87541.8 41278.9 87501.7 41179.7 87468.1 41078.5 87441 40975.8 87420.5 40871.9 87406.9 40767.4 87400 40662.6 87400 40558.1 87406.9 40454.2 87420.5 40351.5 87441 40250.3 87468.1 40151.1 87501.7 40054.3 87541.8 39960.4 87588.2 39869.6 87640.6 39782.5 87698.8 39699.4 87762.5 39620.7 87831.6 39546.6 87905.7 39477.5 87984.4 39413.8 88067.5 39355.6 88154.6 39303.2 88245.4 39256.8 88339.3 39216.7 88436.1 39183.1 88535.3 39156 88636.5 39135.5 88739.2 39121.9 88843.1 39115 88947.6 39115 89052.4 M 27685 89052.4 27691.9 89156.9 27705.5 89260.8 27726 89363.5 27753.1 89464.7 27786.7 89563.9 27826.8 89660.7 27873.2 89754.6 27925.6 89845.4 27983.8 89932.5 28047.5 90015.6 28116.6 90094.3 28190.7 90168.4 28269.4 90237.5 28352.5 90301.3 28439.6 90359.5 28530.4 90411.8 28624.3 90458.2 28721.1 90498.3 28820.3 90531.9 28921.5 90559 29024.2 90579.5 29128.1 90593.2 29232.6 90600 29337.4 90600 29441.9 90593.2 29545.8 90579.5 29648.5 90559 29749.7 90531.9 29848.9 90498.3 29945.7 90458.2 30039.6 90411.8 30130.4 90359.5 30217.5 90301.3 30300.6 90237.5 30379.3 90168.4 30453.4 90094.3 30522.5 90015.6 30586.3 89932.5 30644.5 89845.4 30696.8 89754.6 30743.2 89660.7 30783.3 89563.9 30816.9 89464.7 30844 89363.5 30864.5 89260.8 30878.2 89156.9 30885 89052.4 30885 88947.6 30878.2 88843.1 30864.5 88739.2 30844 88636.5 30816.9 88535.3 30783.3 88436.1 30743.2 88339.3 30696.8 88245.4 30644.5 88154.6 30586.3 88067.5 30522.5 87984.4 30453.4 87905.7 30379.3 87831.6 30300.6 87762.5 30217.5 87698.8 30130.4 87640.6 30039.6 87588.2 29945.7 87541.8 29848.9 87501.7 29749.7 87468.1 29648.5 87441 29545.8 87420.5 29441.9 87406.9 29337.4 87400 29232.6 87400 29128.1 87406.9 29024.2 87420.5 28921.5 87441 28820.3 87468.1 28721.1 87501.7 28624.3 87541.8 28530.4 87588.2 28439.6 87640.6 28352.5 87698.8 28269.4 87762.5 28190.7 87831.6 28116.6 87905.7 28047.5 87984.4 27983.8 88067.5 27925.6 88154.6 27873.2 88245.4 27826.8 88339.3 27786.7 88436.1 27753.1 88535.3 27726 88636.5 27705.5 88739.2 27691.9 88843.1 27685 88947.6 27685 89052.4 M 24400 94950 24392.9 94850.3 24378.6 94751.3 24357.4 94653.6 24329.2 94557.6 24294.3 94463.9 24252.7 94372.9 24204.8 94285.2 24150.7 94201 24090.8 94121 24025.3 94045.4 23954.6 93974.7 23879 93909.2 23799 93849.3 23714.8 93795.2 23627.1 93747.3 23536.1 93705.7 23442.4 93670.8 23346.5 93642.6 23248.7 93621.4 23149.8 93607.1 23050 93600 22950 93600 22850.3 93607.1 22751.3 93621.4 22653.6 93642.6 22557.6 93670.8 22463.9 93705.7 22372.9 93747.3 22285.2 93795.2 22201 93849.3 22121 93909.2 22045.4 93974.7 21974.7 94045.4 21909.2 94121 21849.3 94201 21795.2 94285.2 21747.3 94372.9 21705.7 94463.9 21670.8 94557.6 21642.6 94653.6 21621.4 94751.3 21607.1 94850.3 21600 94950 21600 95050 21607.1 95149.8 21621.4 95248.7 21642.6 95346.5 21670.8 95442.4 21705.7 95536.1 21747.3 95627.1 21795.2 95714.8 21849.3 95799 21909.2 95879 21974.7 95954.6 22045.4 96025.3 22121 96090.8 22201 96150.7 22285.2 96204.8 22372.9 96252.7 22463.9 96294.3 22557.6 96329.2 22653.6 96357.4 22751.3 96378.6 22850.3 96392.9 22950 96400 23050 96400 23149.8 96392.9 23248.7 96378.6 23346.5 96357.4 23442.4 96329.2 23536.1 96294.3 23627.1 96252.7 23714.8 96204.8 23799 96150.7 23879 96090.8 23954.6 96025.3 24025.3 95954.6 24090.8 95879 24150.7 95799 24204.8 95714.8 24252.7 95627.1 24294.3 95536.1 24329.2 95442.4 24357.4 95346.5 24378.6 95248.7 24392.9 95149.8 24400 95050 24400 94950 M 66400 94950 66392.9 94850.3 66378.6 94751.3 66357.4 94653.6 66329.2 94557.6 66294.3 94463.9 66252.7 94372.9 66204.8 94285.2 66150.7 94201 66090.8 94121 66025.3 94045.4 65954.6 93974.7 65879 93909.2 65799 93849.3 65714.8 93795.2 65627.1 93747.3 65536.1 93705.7 65442.4 93670.8 65346.5 93642.6 65248.7 93621.4 65149.8 93607.1 65050 93600 64950 93600 64850.3 93607.1 64751.3 93621.4 64653.6 93642.6 64557.6 93670.8 64463.9 93705.7 64372.9 93747.3 64285.2 93795.2 64201 93849.3 64121 93909.2 64045.4 93974.7 63974.7 94045.4 63909.2 94121 63849.3 94201 63795.2 94285.2 63747.3 94372.9 63705.7 94463.9 63670.8 94557.6 63642.6 94653.6 63621.4 94751.3 63607.1 94850.3 63600 94950 63600 95050 63607.1 95149.8 63621.4 95248.7 63642.6 95346.5 63670.8 95442.4 63705.7 95536.1 63747.3 95627.1 63795.2 95714.8 63849.3 95799 63909.2 95879 63974.7 95954.6 64045.4 96025.3 64121 96090.8 64201 96150.7 64285.2 96204.8 64372.9 96252.7 64463.9 96294.3 64557.6 96329.2 64653.6 96357.4 64751.3 96378.6 64850.3 96392.9 64950 96400 65050 96400 65149.8 96392.9 65248.7 96378.6 65346.5 96357.4 65442.4 96329.2 65536.1 96294.3 65627.1 96252.7 65714.8 96204.8 65799 96150.7 65879 96090.8 65954.6 96025.3 66025.3 95954.6 66090.8 95879 66150.7 95799 66204.8 95714.8 66252.7 95627.1 66294.3 95536.1 66329.2 95442.4 66357.4 95346.5 66378.6 95248.7 66392.9 95149.8 66400 95050 66400 94950 M 45400 72950 45392.9 72850.3 45378.6 72751.3 45357.4 72653.6 45329.2 72557.6 45294.3 72463.9 45252.7 72372.9 45204.8 72285.2 45150.7 72201 45090.8 72121 45025.3 72045.4 44954.6 71974.7 44879 71909.2 44799 71849.3 44714.8 71795.2 44627.1 71747.3 44536.1 71705.7 44442.4 71670.8 44346.5 71642.6 44248.7 71621.4 44149.8 71607.1 44050 71600 43950 71600 43850.3 71607.1 43751.3 71621.4 43653.6 71642.6 43557.6 71670.8 43463.9 71705.7 43372.9 71747.3 43285.2 71795.2 43201 71849.3 43121 71909.2 43045.4 71974.7 42974.7 72045.4 42909.2 72121 42849.3 72201 42795.2 72285.2 42747.3 72372.9 42705.7 72463.9 42670.8 72557.6 42642.6 72653.6 42621.4 72751.3 42607.1 72850.3 42600 72950 42600 73050 42607.1 73149.8 42621.4 73248.7 42642.6 73346.5 42670.8 73442.4 42705.7 73536.1 42747.3 73627.1 42795.2 73714.8 42849.3 73799 42909.2 73879 42974.7 73954.6 43045.4 74025.3 43121 74090.8 43201 74150.7 43285.2 74204.8 43372.9 74252.7 43463.9 74294.3 43557.6 74329.2 43653.6 74357.4 43751.3 74378.6 43850.3 74392.9 43950 74400 44050 74400 44149.8 74392.9 44248.7 74378.6 44346.5 74357.4 44442.4 74329.2 44536.1 74294.3 44627.1 74252.7 44714.8 74204.8 44799 74150.7 44879 74090.8 44954.6 74025.3 45025.3 73954.6 45090.8 73879 45150.7 73799 45204.8 73714.8 45252.7 73627.1 45294.3 73536.1 45329.2 73442.4 45357.4 73346.5 45378.6 73248.7 45392.9 73149.8 45400 73050 45400 72950 M 57115 89052.4 57121.9 89156.9 57135.5 89260.8 57156 89363.5 57183.1 89464.7 57216.7 89563.9 57256.8 89660.7 57303.2 89754.6 57355.6 89845.4 57413.8 89932.5 57477.5 90015.6 57546.6 90094.3 57620.7 90168.4 57699.4 90237.5 57782.5 90301.3 57869.6 90359.5 57960.4 90411.8 58054.3 90458.2 58151.1 90498.3 58250.3 90531.9 58351.5 90559 58454.2 90579.5 58558.1 90593.2 58662.6 90600 58767.4 90600 58871.9 90593.2 58975.8 90579.5 59078.5 90559 59179.7 90531.9 59278.9 90498.3 59375.7 90458.2 59469.6 90411.8 59560.4 90359.5 59647.5 90301.3 59730.6 90237.5 59809.3 90168.4 59883.4 90094.3 59952.5 90015.6 60016.3 89932.5 60074.5 89845.4 60126.8 89754.6 60173.2 89660.7 60213.3 89563.9 60246.9 89464.7 60274 89363.5 60294.5 89260.8 60308.2 89156.9 60315 89052.4 60315 88947.6 60308.2 88843.1 60294.5 88739.2 60274 88636.5 60246.9 88535.3 60213.3 88436.1 60173.2 88339.3 60126.8 88245.4 60074.5 88154.6 60016.3 88067.5 59952.5 87984.4 59883.4 87905.7 59809.3 87831.6 59730.6 87762.5 59647.5 87698.8 59560.4 87640.6 59469.6 87588.2 59375.7 87541.8 59278.9 87501.7 59179.7 87468.1 59078.5 87441 58975.8 87420.5 58871.9 87406.9 58767.4 87400 58662.6 87400 58558.1 87406.9 58454.2 87420.5 58351.5 87441 58250.3 87468.1 58151.1 87501.7 58054.3 87541.8 57960.4 87588.2 57869.6 87640.6 57782.5 87698.8 57699.4 87762.5 57620.7 87831.6 57546.6 87905.7 57477.5 87984.4 57413.8 88067.5 57355.6 88154.6 57303.2 88245.4 57256.8 88339.3 57216.7 88436.1 57183.1 88535.3 57156 88636.5 57135.5 88739.2 57121.9 88843.1 57115 88947.6 57115 89052.4 M 45685 89052.4 45691.9 89156.9 45705.5 89260.8 45726 89363.5 45753.1 89464.7 45786.7 89563.9 45826.8 89660.7 45873.2 89754.6 45925.6 89845.4 45983.8 89932.5 46047.5 90015.6 46116.6 90094.3 46190.7 90168.4 46269.4 90237.5 46352.5 90301.3 46439.6 90359.5 46530.4 90411.8 46624.3 90458.2 46721.1 90498.3 46820.3 90531.9 46921.5 90559 47024.2 90579.5 47128.1 90593.2 47232.6 90600 47337.4 90600 47441.9 90593.2 47545.8 90579.5 47648.5 90559 47749.7 90531.9 47848.9 90498.3 47945.7 90458.2 48039.6 90411.8 48130.4 90359.5 48217.5 90301.3 48300.6 90237.5 48379.3 90168.4 48453.4 90094.3 48522.5 90015.6 48586.3 89932.5 48644.5 89845.4 48696.8 89754.6 48743.2 89660.7 48783.3 89563.9 48816.9 89464.7 48844 89363.5 48864.5 89260.8 48878.2 89156.9 48885 89052.4 48885 88947.6 48878.2 88843.1 48864.5 88739.2 48844 88636.5 48816.9 88535.3 48783.3 88436.1 48743.2 88339.3 48696.8 88245.4 48644.5 88154.6 48586.3 88067.5 48522.5 87984.4 48453.4 87905.7 48379.3 87831.6 48300.6 87762.5 48217.5 87698.8 48130.4 87640.6 48039.6 87588.2 47945.7 87541.8 47848.9 87501.7 47749.7 87468.1 47648.5 87441 47545.8 87420.5 47441.9 87406.9 47337.4 87400 47232.6 87400 47128.1 87406.9 47024.2 87420.5 46921.5 87441 46820.3 87468.1 46721.1 87501.7 46624.3 87541.8 46530.4 87588.2 46439.6 87640.6 46352.5 87698.8 46269.4 87762.5 46190.7 87831.6 46116.6 87905.7 46047.5 87984.4 45983.8 88067.5 45925.6 88154.6 45873.2 88245.4 45826.8 88339.3 45786.7 88436.1 45753.1 88535.3 45726 88636.5 45705.5 88739.2 45691.9 88843.1 45685 88947.6 45685 89052.4" fill="none" stroke-width="254"/></g></svg>