0
SECTION
2
HEADER
9
$INSUNITS
70
4
9
$ACADVER
1
AC1014
9
$HANDSEED
5
FFFF
0
ENDSEC
0
SECTION
2
TABLES
0
TABLE
2
VPORT
5
8
100
AcDbSymbolTable
0
ENDTAB
0
TABLE
2
LTYPE
5
5
100
AcDbSymbolTable
0
LTYPE
5
14
100
AcDbSymbolTableRecord
100
AcDbLinetypeTableRecord
2
BYBLOCK
70
0
0
LTYPE
5
15
100
AcDbSymbolTableRecord
100
AcDbLinetypeTableRecord
2
BYLAYER
70
0
0
ENDTAB
0
TABLE
2
LAYER
5
2
100
AcDbSymbolTable
70
2
0
LAYER
5
50
100
AcDbSymbolTableRecord
100
AcDbLayerTableRecord
2
0
70
0
6
CONTINUOUS
0
ENDTAB
0
TABLE
2
STYLE
5
3
100
AcDbSymbolTable
70
1
0
STYLE
5
11
100
AcDbSymbolTableRecord
100
AcDbTextStyleTableRecord
2
STANDARD
70
0
0
ENDTAB
0
TABLE
2
VIEW
5
6
100
AcDbSymbolTable
70
0
0
ENDTAB
0
TABLE
2
UCS
5
7
100
AcDbSymbolTable
70
0
0
ENDTAB
0
TABLE
2
APPID
5
9
100
AcDbSymbolTable
70
2
0
APPID
5
12
100
AcDbSymbolTableRecord
100
AcDbRegAppTableRecord
2
ACAD
70
0
0
ENDTAB
0
TABLE
2
DIMSTYLE
5
A
100
AcDbSymbolTable
70
1
0
ENDTAB
0
TABLE
2
BLOCK_RECORD
5
1
100
AcDbSymbolTable
70
1
0
BLOCK_RECORD
5
1F
100
AcDbSymbolTableRecord
100
AcDbBlockTableRecord
2
*MODEL_SPACE
0
BLOCK_RECORD
5
1B
100
AcDbSymbolTableRecord
100
AcDbBlockTableRecord
2
*PAPER_SPACE
0
ENDTAB
0
ENDSEC
0
SECTION
2
BLOCKS
0
BLOCK
5
20
100
AcDbEntity
100
AcDbBlockBegin
2
*MODEL_SPACE
0
ENDBLK
5
21
100
AcDbEntity
100
AcDbBlockEnd
0
BLOCK
5
1C
100
AcDbEntity
100
AcDbBlockBegin
2
*PAPER_SPACE
0
ENDBLK
5
1D
100
AcDbEntity
100
AcDbBlockEnd
0
ENDSEC
0
SECTION
2
ENTITIES
0
LWPOLYLINE
5
100
100
AcDbEntity
8
0
100
AcDbPolyline
90
13
70
1
43
0.0
10
-74.125005343773481
20
-65.524459163914813
10
-74.125005343773665
20
-5.5244596121602374
42
-0.38923925258115566
10
-64.435641446732859
20
5.036305206356797
10
-63.538113499948437
20
5.075540387839732
10
-56.97576111322995
20
5.075540387839732
10
-10.074994656227441
20
5.0755399480605146
10
-3.5250053437736288
20
5.0755403878397596
42
-0.38923925231474227
10
7.0357594989490568
20
-4.6137834721265083
10
7.074994656226341
20
-5.5113520569790442
10
7.0749946562285704
20
-65.524459612160257
42
-0.38923967676244775
10
-2.6143448040064827
20
-76.085272729552798
10
-3.5119139082493778
20
-76.124459612160251
10
-63.525005343773664
20
-76.124459612160436
42
-0.41421398761432177
0
LWPOLYLINE
5
101
100
AcDbEntity
8
0
100
AcDbPolyline
90
28
70
1
43
0.0
10
-3.5250053437736106
20
8.0755403878397569
10
-63.603654280822433
20
8.0755403878397392
10
-64.626148653926833
20
8.0308423342171125
42
0.00021114905758011618
10
-64.637597031307081
20
8.0299075050866229
42
-0.15656319234269395
10
-74.78771327179301
20
11.321313481492467
42
0.85047410834397352
10
-80.37139143350943
20
5.7380660085955952
42
-0.15672419161812484
10
-77.080740128278094
20
-4.4232765565876173
42
-0.0023758075485886218
10
-77.069234968631633
20
-4.2940948642542942
42
0.022651892401336197
10
-77.125005343773665
20
-5.5244596121602338
10
-77.125005343772472
20
-65.524456922687591
42
0.022635601385135134
10
-77.069317469149553
20
-66.753941856303555
42
-0.002359628374866027
10
-77.080740128278066
20
-66.625639507666506
42
-0.15672419161812554
10
-80.37139143350943
20
-76.786982072849611
42
0.85047410834396986
10
-74.787713271793024
20
-82.370229545746525
42
-0.15655445638346108
10
-64.638192421608252
20
-79.078825347251026
42
0.020488793504134621
10
-63.525005343773685
20
-79.124459612160848
10
-3.4464567306284444
20
-79.124459612160251
10
-2.4239221662180017
20
-79.079816874628193
42
0.000223590593857545
10
-2.4117992317793826
20
-79.078826709680015
42
-0.15654782852356189
10
7.7372699024225566
20
-82.370229545746525
42
0.85047410834397308
10
13.320948064138957
20
-76.786982072849625
42
-0.15671611376346162
10
10.030298013592791
20
-66.626190019395835
42
0.020277430380600776
10
10.074994656228569
20
-65.524459612160157
10
10.074994656226348
20
-5.4458142810731047
10
10.030296758907609
20
-4.4232765565874965
42
-0.15672419161812529
10
13.320948064138971
20
5.7380660085955864
42
0.85047410834397241
10
7.7372699024225522
20
11.32131348149249
42
-0.15654894647120463
10
-2.4118754245828908
20
8.029910414799911
42
0.020487806262469366
0
LWPOLYLINE
5
102
100
AcDbEntity
8
0
100
AcDbPolyline
90
4
70
1
43
0.0
10
-76.771884634997761
20
4.1864530913137354
10
-78.893204978557378
20
6.3077734348733721
42
-0.99999999999999989
10
-75.357671072624697
20
9.8433073408061418
10
-73.236350729065009
20
7.7219869972464661
42
-0.99999999999999989
0
LWPOLYLINE
5
103
100
AcDbEntity
8
0
100
AcDbPolyline
90
4
70
1
43
0.0
10
-73.236350729065009
20
-78.770903061500505
42
0.99999999999999989
10
-76.771884634997775
20
-75.235369155567767
10
-78.893204978557435
20
-77.356689499127441
42
0.99999999999999989
10
-75.35767107262464
20
-80.892223405060122
0
LWPOLYLINE
5
104
100
AcDbEntity
8
0
100
AcDbPolyline
90
4
70
1
43
0.0
10
9.7214412656273197
20
-75.235369155567767
42
0.99999999999999989
10
6.185907359694589
20
-78.770903061500505
10
8.307227703254247
20
-80.892223405060179
42
0.99999999999999989
10
11.84276160918694
20
-77.356689499127384
0
LWPOLYLINE
5
105
100
AcDbEntity
8
0
100
AcDbPolyline
90
4
70
1
43
0.0
10
6.1859073596945553
20
7.7219869972464625
42
0.99999999999999989
10
9.7214412656273161
20
4.1864530913137408
10
11.842761609186976
20
6.3077734348734094
42
0.99999999999999989
10
8.3072277032541741
20
9.8433073408061045
0
ENDSEC
0
SECTION
2
OBJECTS
0
DICTIONARY
5
C
100
AcDbDictionary
3
ACAD_GROUP
350
D
3
ACAD_MLINESTYLE
350
17
0
DICTIONARY
5
D
100
AcDbDictionary
0
DICTIONARY
5
1A
330
C
100
AcDbDictionary
0
DICTIONARY
5
17
100
AcDbDictionary
0
ENDSEC
0
EOF
