G04 EAGLE Gerber RS-274X export*
G75*
%MOMM*%
%FSLAX34Y34*%
%LPD*%
%INBottom Copper*%
%IPPOS*%
%AMOC8*
5,1,8,0,0,1.08239X$1,22.5*%
G01*
%ADD10C,1.879600*%
%ADD11R,1.879600X1.879600*%
%ADD12C,2.200000*%
%ADD13C,0.152400*%


D10*
X305550Y801100D03*
X318250Y826500D03*
X330950Y801100D03*
X356350Y801100D03*
X381750Y801100D03*
X343650Y826500D03*
X369050Y826500D03*
D11*
X394450Y826500D03*
D12*
X180000Y740000D03*
X180000Y765400D03*
X180000Y790800D03*
X710000Y740000D03*
X710000Y765400D03*
X710000Y790800D03*
X180000Y830000D03*
X180000Y855400D03*
X180000Y880800D03*
X180000Y906200D03*
X710000Y830000D03*
X710000Y855400D03*
X710000Y880800D03*
X710000Y906200D03*
D10*
X485550Y801100D03*
X498250Y826500D03*
X510950Y801100D03*
X536350Y801100D03*
X561750Y801100D03*
X523650Y826500D03*
X549050Y826500D03*
D11*
X574450Y826500D03*
D12*
X465000Y660000D03*
X439600Y660000D03*
X414200Y660000D03*
X630000Y660000D03*
X604600Y660000D03*
X579200Y660000D03*
X310000Y660000D03*
X284600Y660000D03*
X259200Y660000D03*
D13*
X550164Y826008D02*
X562356Y813816D01*
X685800Y813816D01*
X708660Y790956D01*
X550164Y826008D02*
X549050Y826500D01*
X708660Y790956D02*
X710000Y790800D01*
X181356Y789432D02*
X181356Y783336D01*
X259080Y705612D01*
X259080Y661416D01*
X181356Y789432D02*
X180000Y790800D01*
X259080Y661416D02*
X259200Y660000D01*
X536448Y800100D02*
X545592Y800100D01*
X579120Y766572D01*
X708660Y766572D01*
X536448Y800100D02*
X536350Y801100D01*
X708660Y766572D02*
X710000Y765400D01*
X292608Y661416D02*
X284988Y661416D01*
X292608Y661416D02*
X304800Y673608D01*
X426720Y673608D01*
X438912Y661416D01*
X284988Y661416D02*
X284600Y660000D01*
X438912Y661416D02*
X439600Y660000D01*
X597408Y661416D02*
X603504Y661416D01*
X597408Y661416D02*
X585216Y673608D01*
X452628Y673608D01*
X440436Y661416D01*
X603504Y661416D02*
X604600Y660000D01*
X440436Y661416D02*
X439600Y660000D01*
X327660Y827532D02*
X318516Y827532D01*
X327660Y827532D02*
X338328Y838200D01*
X701040Y838200D01*
X708660Y830580D01*
X318516Y827532D02*
X318250Y826500D01*
X708660Y830580D02*
X710000Y830000D01*
X352044Y826008D02*
X344424Y826008D01*
X352044Y826008D02*
X364236Y813816D01*
X455676Y813816D01*
X528828Y740664D01*
X708660Y740664D01*
X344424Y826008D02*
X343650Y826500D01*
X708660Y740664D02*
X710000Y740000D01*
M02*
