G04 EAGLE Gerber RS-274X export*
G75*
%MOMM*%
%FSLAX34Y34*%
%LPD*%
%INSoldermask Bottom*%
%IPPOS*%
%AMOC8*
5,1,8,0,0,1.08239X$1,22.5*%
G01*
%ADD10C,2.082800*%
%ADD11R,2.082800X2.082800*%
%ADD12C,3.403200*%
%ADD13C,3.003200*%
%ADD14C,2.403200*%


D10*
X305550Y801100D03*
X318250Y826500D03*
X330950Y801100D03*
X356350Y801100D03*
X381750Y801100D03*
X343650Y826500D03*
X369050Y826500D03*
D11*
X394450Y826500D03*
D12*
X407150Y890000D03*
X292850Y890000D03*
D13*
X230000Y950000D03*
X650000Y950000D03*
X440000Y730000D03*
D14*
X180000Y740000D03*
X180000Y765400D03*
X180000Y790800D03*
X710000Y740000D03*
X710000Y765400D03*
X710000Y790800D03*
X180000Y830000D03*
X180000Y855400D03*
X180000Y880800D03*
X180000Y906200D03*
X710000Y830000D03*
X710000Y855400D03*
X710000Y880800D03*
X710000Y906200D03*
D10*
X485550Y801100D03*
X498250Y826500D03*
X510950Y801100D03*
X536350Y801100D03*
X561750Y801100D03*
X523650Y826500D03*
X549050Y826500D03*
D11*
X574450Y826500D03*
D12*
X587150Y890000D03*
X472850Y890000D03*
D14*
X465000Y660000D03*
X439600Y660000D03*
X414200Y660000D03*
X630000Y660000D03*
X604600Y660000D03*
X579200Y660000D03*
X310000Y660000D03*
X284600Y660000D03*
X259200Y660000D03*
M02*
